<svg width="11.351440" height="12.688110" viewBox="0 0 11.3514 12.6881" fill="none" xmlns="http://www.w3.org/2000/svg" xmlns:xlink="http://www.w3.org/1999/xlink">
	<desc>
			Created with Pixso.
	</desc>
	<defs/>
	<path id="Vector" d="M11.01 12.35L11.01 11.01C11.01 10.3 10.73 9.62 10.23 9.12C9.73 8.62 9.05 8.34 8.34 8.34L7.67 8.34C7.5 8.34 7.33 8.27 7.2 8.15C7.08 8.02 7.01 7.85 7.01 7.67L7.01 4.34C7.01 3.98 6.87 3.64 6.62 3.39C6.36 3.14 6.02 3 5.67 3C5.32 3 4.98 3.14 4.73 3.39C4.48 3.64 4.34 3.98 4.34 4.34L4.34 10.34L2.73 8.21C2.61 8.04 2.45 7.91 2.26 7.81C2.08 7.72 1.87 7.67 1.66 7.67L1.37 7.67C0.8 7.67 0.33 8.14 0.33 8.72C0.33 8.91 0.38 9.1 0.48 9.26L2.33 12.35L11.01 12.35ZM5.67 1L5.67 0.33L5.67 1ZM9.68 5L10.34 5L9.68 5ZM1 5L1.66 5L1 5ZM2.56 1.89L2.09 1.42L2.56 1.89ZM8.78 1.89L9.25 1.42L8.78 1.89ZM11.33 12.33L11.35 12.35C11.35 12.54 11.2 12.68 11.01 12.68C10.83 12.68 10.68 12.54 10.68 12.35L10.7 12.33L11.33 12.33ZM2.59 12.17L2.62 12.18C2.71 12.34 2.66 12.54 2.5 12.63C2.34 12.73 2.14 12.68 2.05 12.52L2.05 12.49L2.59 12.17ZM5.98 0.98L6 1C6 1.18 5.86 1.33 5.67 1.33C5.48 1.33 5.34 1.18 5.34 1L5.36 0.98L5.98 0.98ZM5.36 0.35L5.34 0.33C5.34 0.14 5.48 0 5.67 0C5.86 0 6 0.14 6 0.33L5.98 0.35L5.36 0.35ZM9.7 5.32L9.68 5.34C9.49 5.34 9.34 5.19 9.34 5C9.34 4.82 9.49 4.67 9.68 4.67L9.7 4.69L9.7 5.32ZM10.32 4.69L10.34 4.67C10.53 4.67 10.68 4.82 10.68 5C10.68 5.19 10.53 5.34 10.34 5.34L10.32 5.32L10.32 4.69ZM1.02 5.32L1 5.34C0.81 5.34 0.66 5.19 0.66 5C0.66 4.82 0.81 4.67 1 4.67L1.02 4.69L1.02 5.32ZM1.64 4.69L1.66 4.67C1.85 4.67 2 4.82 2 5C2 5.19 1.85 5.34 1.66 5.34L1.64 5.32L1.64 4.69ZM2.77 1.66L2.8 1.66C2.93 1.79 2.93 2 2.8 2.13C2.66 2.26 2.46 2.26 2.32 2.13L2.32 2.1L2.77 1.66ZM1.88 1.66L1.85 1.66C1.72 1.53 1.72 1.32 1.85 1.19C1.99 1.05 2.19 1.05 2.33 1.19L2.33 1.21L1.88 1.66ZM9.02 2.1L9.02 2.13C8.88 2.26 8.68 2.26 8.54 2.13C8.41 2 8.41 1.79 8.54 1.66L8.57 1.66L9.02 2.1ZM9.02 1.21L9.02 1.19C9.15 1.05 9.36 1.05 9.49 1.19C9.62 1.32 9.62 1.53 9.49 1.66L9.46 1.66L9.02 1.21Z" fill="#4CAF4F" fill-opacity="1.000000" fill-rule="nonzero"/>
	<path id="Vector" d="M11.01 12.35L11.01 11.01C11.01 10.3 10.73 9.62 10.23 9.12C9.73 8.62 9.05 8.34 8.34 8.34L7.67 8.34C7.5 8.34 7.33 8.27 7.2 8.15C7.08 8.02 7.01 7.85 7.01 7.67L7.01 4.34C7.01 3.98 6.87 3.64 6.62 3.39C6.36 3.14 6.02 3 5.67 3C5.32 3 4.98 3.14 4.73 3.39C4.48 3.64 4.34 3.98 4.34 4.34L4.34 10.34L2.73 8.21C2.61 8.04 2.45 7.91 2.26 7.81C2.08 7.72 1.87 7.67 1.66 7.67L1.37 7.67C0.8 7.67 0.33 8.14 0.33 8.72C0.33 8.91 0.38 9.1 0.48 9.26L2.33 12.35M5.67 1L5.67 0.33M9.68 5L10.34 5M1 5L1.66 5M2.56 1.89L2.09 1.42M8.78 1.89L9.25 1.42" stroke="#4CAF4F" stroke-opacity="1.000000" stroke-width="0.667733" stroke-linejoin="round"/>
</svg>
