<svg width="10.808105" height="10.016113" viewBox="0 0 10.8081 10.0161" fill="none" xmlns="http://www.w3.org/2000/svg" xmlns:xlink="http://www.w3.org/1999/xlink">
	<desc>
			Created with Pixso.
	</desc>
	<defs/>
	<path id="Vector" d="M6.79 4.88C6.71 4.88 6.63 4.86 6.57 4.83L6.57 4.83C6.57 4.95 6.52 5.07 6.43 5.16C6.34 5.25 6.22 5.3 6.09 5.3C6.01 5.3 5.94 5.28 5.87 5.24C5.86 5.36 5.82 5.46 5.73 5.55C5.64 5.64 5.53 5.69 5.4 5.69C5.15 5.69 4.94 5.49 4.93 5.24C4.85 5.28 4.76 5.31 4.67 5.3C4.43 5.28 4.23 5.07 4.23 4.81L4.23 2.69L3.99 3.11C3.9 3.27 3.73 3.37 3.54 3.37C3.45 3.37 3.36 3.34 3.28 3.3C3.18 3.24 3.11 3.15 3.08 3.04C3.05 2.93 3.07 2.81 3.13 2.72C3.13 2.72 3.92 1.34 3.97 1.26C3.97 1.25 3.99 1.21 4 1.18C4.01 1.15 4.03 1.12 4.04 1.09C4.28 0.41 4.87 0 5.58 0C6.51 0 7.26 0.81 7.26 1.82L7.26 4.41C7.26 4.54 7.21 4.66 7.12 4.75C7.03 4.84 6.91 4.88 6.79 4.88L6.79 4.88ZM5.58 0.25C4.97 0.25 4.48 0.59 4.27 1.17C4.26 1.21 4.25 1.25 4.23 1.28C4.18 1.39 4.18 1.39 4.17 1.4L4.17 1.4C4.1 1.52 3.91 1.85 3.34 2.84C3.32 2.88 3.31 2.93 3.32 2.97C3.34 3.02 3.37 3.06 3.41 3.08C3.53 3.15 3.7 3.11 3.77 2.98L4.25 2.16C4.28 2.11 4.34 2.08 4.39 2.1C4.45 2.11 4.48 2.16 4.48 2.22L4.48 4.81C4.48 4.94 4.58 5.04 4.69 5.05C4.76 5.05 4.82 5.03 4.86 4.98C4.9 4.94 4.93 4.89 4.93 4.83L4.93 3.13C4.93 3.06 4.98 3.01 5.05 3.01C5.12 3.01 5.18 3.06 5.18 3.13L5.18 5.21C5.18 5.34 5.28 5.43 5.4 5.43C5.46 5.43 5.51 5.41 5.56 5.37C5.6 5.33 5.62 5.27 5.62 5.21L5.62 3.13C5.62 3.06 5.68 3.01 5.75 3.01C5.82 3.01 5.87 3.06 5.87 3.13L5.87 4.81L5.87 4.83C5.87 4.95 5.97 5.05 6.09 5.05C6.15 5.05 6.21 5.03 6.25 4.98C6.29 4.94 6.31 4.89 6.31 4.83L6.31 3.13C6.31 3.06 6.37 3.01 6.44 3.01C6.51 3.01 6.57 3.06 6.57 3.13L6.57 4.41C6.57 4.53 6.67 4.63 6.79 4.63C6.85 4.63 6.9 4.61 6.94 4.57C6.99 4.53 7.01 4.47 7.01 4.41L7.01 1.82C7.01 0.95 6.37 0.25 5.58 0.25L5.58 0.25Z" fill="#4CAF4F" fill-opacity="1.000000" fill-rule="nonzero"/>
	<path id="Vector" d="M7.01 4.83C6.94 4.87 6.87 4.88 6.79 4.88L6.79 4.88L6.79 4.88L6.79 4.88C6.78 4.88 6.77 4.88 6.76 4.88C6.69 4.88 6.62 4.86 6.57 4.83L6.57 4.83C6.57 4.9 6.55 4.96 6.52 5.03C6.5 5.08 6.47 5.12 6.43 5.16C6.41 5.18 6.38 5.2 6.36 5.22C6.33 5.24 6.3 5.25 6.27 5.26C6.22 5.29 6.16 5.3 6.09 5.3C6.08 5.3 6.07 5.3 6.06 5.3C5.99 5.29 5.93 5.27 5.87 5.24C5.87 5.27 5.86 5.3 5.86 5.33C5.85 5.37 5.83 5.4 5.82 5.44C5.79 5.48 5.77 5.51 5.73 5.55C5.72 5.57 5.7 5.58 5.67 5.6C5.6 5.65 5.5 5.69 5.4 5.69C5.29 5.69 5.2 5.65 5.12 5.59C5.06 5.55 5.02 5.5 4.98 5.44C4.95 5.38 4.93 5.31 4.93 5.24C4.87 5.27 4.81 5.29 4.74 5.3C4.72 5.3 4.69 5.3 4.67 5.3C4.62 5.3 4.57 5.28 4.53 5.26C4.35 5.19 4.23 5.02 4.23 4.81L4.23 2.69L4.04 3.02L3.99 3.11C3.94 3.19 3.87 3.26 3.79 3.3C3.71 3.34 3.63 3.37 3.54 3.37C3.45 3.37 3.36 3.34 3.28 3.3C3.18 3.24 3.11 3.15 3.08 3.04C3.05 2.93 3.07 2.81 3.13 2.72C3.13 2.72 3.92 1.34 3.97 1.26C3.97 1.25 3.97 1.24 3.98 1.23C3.99 1.22 3.99 1.2 4 1.18C4.01 1.15 4.03 1.12 4.04 1.09C4.07 0.99 4.12 0.89 4.16 0.81C4.45 0.3 4.97 0 5.58 0C5.76 0 5.93 0.03 6.09 0.08C6.77 0.32 7.26 1 7.26 1.82L7.26 4.41C7.26 4.42 7.26 4.43 7.26 4.44C7.25 4.56 7.2 4.66 7.12 4.75C7.09 4.78 7.05 4.81 7.01 4.83ZM7.01 4.44C7 4.49 6.98 4.53 6.94 4.57C6.9 4.61 6.85 4.63 6.79 4.63L6.79 4.63C6.78 4.63 6.77 4.63 6.76 4.63C6.65 4.62 6.57 4.52 6.57 4.41L6.57 4.38L6.57 4.32L6.57 3.43L6.57 3.13C6.57 3.12 6.56 3.11 6.56 3.11C6.55 3.05 6.5 3.01 6.44 3.01C6.38 3.01 6.33 3.05 6.32 3.11C6.32 3.12 6.31 3.12 6.31 3.13L6.31 4.83C6.31 4.84 6.31 4.86 6.31 4.88C6.3 4.92 6.28 4.95 6.25 4.98C6.21 5.03 6.15 5.05 6.09 5.05C6.08 5.05 6.07 5.05 6.07 5.05C5.99 5.04 5.92 4.99 5.89 4.91C5.88 4.89 5.87 4.86 5.87 4.83L5.87 4.81L5.87 4.79L5.87 4.74L5.87 3.43L5.87 3.13C5.87 3.12 5.87 3.12 5.87 3.11C5.86 3.05 5.81 3.01 5.75 3.01C5.68 3.01 5.63 3.05 5.62 3.11C5.62 3.12 5.62 3.12 5.62 3.13L5.62 5.21C5.62 5.24 5.62 5.26 5.61 5.29C5.6 5.3 5.6 5.32 5.59 5.33C5.58 5.34 5.57 5.36 5.56 5.37C5.51 5.41 5.46 5.43 5.4 5.43C5.3 5.43 5.22 5.37 5.19 5.29C5.18 5.26 5.18 5.24 5.18 5.21L5.18 5.18L5.18 4.6L5.18 3.43L5.18 3.13C5.18 3.12 5.18 3.12 5.18 3.11C5.17 3.05 5.11 3.01 5.05 3.01C4.99 3.01 4.94 3.05 4.93 3.11C4.93 3.12 4.93 3.12 4.93 3.13L4.93 4.83C4.93 4.89 4.9 4.94 4.86 4.98C4.83 5.02 4.78 5.04 4.73 5.05C4.72 5.05 4.7 5.05 4.69 5.05C4.58 5.04 4.48 4.94 4.48 4.81L4.48 2.22C4.48 2.16 4.45 2.11 4.39 2.1C4.34 2.08 4.29 2.1 4.26 2.14C4.26 2.15 4.25 2.15 4.25 2.16L4.1 2.41L4.04 2.52L3.94 2.69L3.79 2.96L3.77 2.98C3.77 2.99 3.76 3 3.75 3.01C3.67 3.11 3.52 3.15 3.41 3.08C3.37 3.06 3.34 3.02 3.32 2.97C3.31 2.93 3.32 2.88 3.34 2.84C3.36 2.8 3.38 2.77 3.41 2.73C3.62 2.36 3.78 2.09 3.89 1.89C3.91 1.86 3.93 1.82 3.95 1.79C4.07 1.57 4.14 1.46 4.17 1.4L4.17 1.4L4.17 1.4L4.17 1.4C4.18 1.38 4.19 1.38 4.23 1.28C4.25 1.25 4.26 1.21 4.27 1.17C4.3 1.1 4.33 1.04 4.36 0.97C4.52 0.66 4.78 0.44 5.09 0.33C5.24 0.27 5.41 0.25 5.58 0.25L5.58 0.25C5.73 0.25 5.88 0.27 6.02 0.32C6.59 0.53 7.01 1.12 7.01 1.82L7.01 3.07L7.01 4.38L7.01 4.41C7.01 4.42 7.01 4.43 7.01 4.44Z" fill="#4CAF4F" fill-opacity="1.000000" fill-rule="evenodd"/>
	<path id="Vector" d="M1.85 6.69L3.67 5.59C3.89 5.46 4.18 5.52 4.32 5.72C4.37 5.8 4.4 5.88 4.4 5.97C4.47 5.94 4.54 5.92 4.62 5.92C4.66 5.92 4.69 5.92 4.73 5.93C4.85 5.96 4.96 6.04 5.02 6.15C5.09 6.25 5.11 6.38 5.08 6.5C5.05 6.62 4.98 6.71 4.88 6.78C4.95 6.82 5.01 6.87 5.05 6.94C5.11 7.05 5.13 7.18 5.1 7.3C5.07 7.42 5 7.52 4.89 7.59L4.89 7.59C4.95 7.63 5.01 7.68 5.05 7.75C5.11 7.86 5.13 7.98 5.1 8.11C5.07 8.23 5 8.33 4.89 8.4L2.66 9.73C2.25 9.98 1.77 10.07 1.31 9.97C0.85 9.88 0.47 9.62 0.24 9.23C-0.13 8.62 -0.08 7.9 0.38 7.34C0.4 7.32 0.42 7.29 0.44 7.27C0.46 7.24 0.48 7.21 0.49 7.19C0.54 7.11 1.31 5.72 1.31 5.72C1.38 5.58 1.53 5.51 1.68 5.51C1.75 5.51 1.82 5.52 1.89 5.56C1.96 5.6 2.03 5.67 2.08 5.75C2.17 5.9 2.18 6.1 2.09 6.27L1.85 6.69ZM1.86 5.87C1.84 5.83 1.8 5.8 1.76 5.78C1.68 5.73 1.57 5.76 1.53 5.85C0.98 6.84 0.79 7.18 0.72 7.3L0.72 7.3C0.71 7.32 0.71 7.32 0.65 7.41C0.62 7.44 0.6 7.47 0.57 7.5C0.18 7.98 0.14 8.57 0.45 9.1C0.65 9.43 0.97 9.65 1.36 9.73C1.75 9.81 2.17 9.73 2.53 9.52L4.76 8.18C4.81 8.15 4.85 8.1 4.86 8.05C4.87 7.99 4.86 7.93 4.83 7.88C4.77 7.77 4.64 7.74 4.53 7.8L3.43 8.46C3.37 8.5 3.3 8.48 3.26 8.42C3.22 8.36 3.24 8.28 3.3 8.25L4.4 7.59L4.76 7.37C4.81 7.34 4.84 7.29 4.86 7.24C4.87 7.18 4.86 7.12 4.83 7.07C4.77 6.96 4.63 6.93 4.53 6.99L3.08 7.87C3.02 7.9 2.94 7.88 2.9 7.82C2.87 7.76 2.89 7.69 2.95 7.65L4.73 6.58C4.78 6.55 4.82 6.5 4.83 6.44C4.85 6.39 4.84 6.33 4.81 6.28C4.78 6.22 4.73 6.19 4.67 6.17C4.61 6.16 4.55 6.17 4.5 6.2L4.17 6.4C4.17 6.4 4.17 6.4 4.17 6.4L4.17 6.4L2.72 7.27C2.66 7.31 2.58 7.29 2.55 7.23C2.51 7.17 2.53 7.09 2.59 7.06L4.04 6.18C4.09 6.15 4.13 6.1 4.14 6.05C4.16 5.98 4.15 5.92 4.11 5.87C4.05 5.77 3.91 5.75 3.8 5.81L1.58 7.14C1.53 7.17 1.47 7.17 1.43 7.13C1.39 7.09 1.38 7.03 1.4 6.98L1.87 6.14C1.91 6.06 1.91 5.96 1.86 5.87L1.86 5.87Z" fill="#4CAF4F" fill-opacity="1.000000" fill-rule="nonzero"/>
	<path id="Vector" d="M2.57 6.26L3.67 5.59C3.85 5.49 4.06 5.5 4.21 5.62C4.25 5.64 4.29 5.68 4.32 5.72C4.33 5.74 4.34 5.76 4.35 5.78C4.38 5.84 4.4 5.9 4.4 5.97C4.46 5.94 4.53 5.92 4.59 5.92C4.6 5.92 4.61 5.92 4.62 5.92C4.66 5.92 4.69 5.92 4.73 5.93C4.76 5.94 4.78 5.94 4.8 5.95C4.89 5.99 4.97 6.06 5.02 6.15C5.07 6.23 5.1 6.33 5.09 6.43C5.09 6.45 5.08 6.48 5.08 6.5C5.06 6.55 5.05 6.59 5.02 6.63C4.99 6.69 4.94 6.74 4.88 6.78C4.94 6.81 4.99 6.86 5.03 6.91C5.04 6.92 5.04 6.93 5.05 6.94C5.08 6.99 5.1 7.05 5.11 7.11C5.12 7.14 5.12 7.18 5.12 7.21C5.11 7.24 5.11 7.27 5.1 7.3C5.09 7.35 5.07 7.4 5.03 7.45C5 7.51 4.95 7.55 4.89 7.59L4.89 7.59C4.94 7.62 4.99 7.67 5.03 7.72C5.04 7.73 5.04 7.74 5.05 7.75C5.09 7.81 5.11 7.88 5.12 7.96C5.12 7.96 5.12 7.96 5.12 7.97C5.12 8.02 5.11 8.06 5.1 8.11C5.07 8.23 5 8.33 4.89 8.4L2.66 9.73C2.25 9.98 1.77 10.07 1.31 9.97C0.85 9.88 0.47 9.62 0.24 9.23C-0.07 8.72 -0.08 8.13 0.19 7.63C0.24 7.53 0.3 7.43 0.38 7.34C0.4 7.32 0.42 7.29 0.44 7.27C0.45 7.25 0.46 7.24 0.47 7.22C0.48 7.21 0.49 7.2 0.49 7.19C0.53 7.12 1.12 6.06 1.27 5.79C1.29 5.75 1.31 5.72 1.31 5.72C1.38 5.58 1.53 5.51 1.68 5.51C1.75 5.51 1.82 5.52 1.89 5.56C1.96 5.6 2.03 5.67 2.08 5.75L2.08 5.75C2.12 5.82 2.15 5.9 2.15 5.99C2.15 6.02 2.15 6.06 2.15 6.09C2.14 6.15 2.12 6.21 2.09 6.27L2.04 6.35L1.85 6.69L2.18 6.49L2.57 6.26ZM3.79 5.82L2.37 6.67L2.31 6.7L2.11 6.83L1.94 6.93L1.83 6.99L1.58 7.14C1.53 7.17 1.47 7.17 1.43 7.13C1.39 7.09 1.38 7.03 1.4 6.98L1.53 6.75L1.55 6.72L1.61 6.61L1.7 6.44L1.85 6.17L1.87 6.14C1.87 6.13 1.88 6.12 1.88 6.11C1.91 6.03 1.91 5.95 1.86 5.87L1.86 5.87C1.84 5.83 1.8 5.8 1.76 5.78C1.75 5.77 1.73 5.76 1.71 5.76C1.64 5.75 1.56 5.78 1.53 5.85C1.5 5.88 1.48 5.92 1.46 5.96C1.45 5.98 1.44 6 1.43 6.02C1.24 6.36 1.1 6.61 0.99 6.8C0.98 6.83 0.96 6.86 0.94 6.89C0.82 7.12 0.75 7.23 0.72 7.3L0.72 7.3L0.72 7.3L0.72 7.3L0.72 7.3C0.71 7.32 0.71 7.32 0.65 7.41C0.62 7.44 0.6 7.47 0.57 7.5C0.52 7.56 0.48 7.62 0.44 7.69C0.18 8.13 0.18 8.64 0.45 9.1C0.65 9.43 0.97 9.65 1.36 9.73C1.75 9.81 2.17 9.73 2.53 9.52L4.73 8.2L4.76 8.18C4.81 8.15 4.85 8.1 4.86 8.05C4.87 7.99 4.86 7.93 4.83 7.88C4.83 7.87 4.82 7.86 4.82 7.86C4.75 7.77 4.63 7.74 4.53 7.8L4.5 7.82L4.45 7.85L3.69 8.31L3.43 8.46C3.43 8.47 3.42 8.47 3.41 8.47C3.36 8.49 3.29 8.47 3.26 8.42C3.23 8.36 3.24 8.3 3.29 8.26C3.29 8.25 3.3 8.25 3.3 8.25L3.56 8.09L4.21 7.7L4.4 7.59L4.73 7.39L4.76 7.37C4.77 7.36 4.79 7.35 4.8 7.34C4.83 7.31 4.85 7.28 4.86 7.24C4.87 7.18 4.86 7.12 4.83 7.07C4.83 7.06 4.82 7.05 4.82 7.05C4.75 6.96 4.63 6.94 4.53 6.99L4.5 7.01L4.45 7.04L3.33 7.71L3.08 7.87C3.07 7.87 3.06 7.87 3.06 7.88C3 7.9 2.93 7.88 2.9 7.82C2.87 7.77 2.88 7.7 2.93 7.66C2.93 7.66 2.94 7.65 2.95 7.65L3.2 7.5L4.21 6.89L4.29 6.84L4.35 6.81L4.35 6.81L4.4 6.78L4.44 6.75L4.44 6.75L4.7 6.6L4.73 6.58C4.75 6.57 4.77 6.55 4.79 6.53C4.81 6.51 4.82 6.48 4.83 6.44C4.85 6.39 4.84 6.33 4.81 6.28C4.78 6.22 4.73 6.19 4.67 6.17C4.64 6.17 4.6 6.17 4.57 6.17C4.55 6.18 4.53 6.19 4.5 6.2L4.47 6.22L4.17 6.4L4.17 6.4L4.17 6.4L2.97 7.12L2.72 7.27C2.71 7.27 2.71 7.28 2.7 7.28C2.64 7.3 2.58 7.28 2.55 7.23C2.51 7.18 2.53 7.11 2.57 7.07C2.58 7.06 2.58 7.06 2.59 7.06L2.84 6.9L3.97 6.23L4 6.21L4.04 6.18L4.04 6.18C4.09 6.15 4.13 6.1 4.14 6.05C4.15 6.02 4.15 5.98 4.15 5.95L4.15 5.95L4.15 5.95C4.14 5.94 4.14 5.92 4.13 5.9C4.13 5.89 4.12 5.88 4.11 5.87C4.05 5.77 3.91 5.75 3.8 5.81L3.79 5.82Z" fill="#4CAF4F" fill-opacity="1.000000" fill-rule="evenodd"/>
	<path id="Vector" d="M10.56 9.23C10.33 9.62 9.95 9.88 9.49 9.97C9.03 10.07 8.55 9.98 8.14 9.73L5.91 8.4C5.8 8.33 5.73 8.23 5.69 8.11C5.66 7.98 5.68 7.86 5.75 7.75C5.79 7.68 5.85 7.63 5.91 7.59L5.91 7.59C5.8 7.52 5.73 7.42 5.7 7.3C5.66 7.18 5.68 7.05 5.75 6.94C5.79 6.87 5.85 6.82 5.91 6.78C5.82 6.71 5.75 6.62 5.72 6.5C5.69 6.38 5.71 6.25 5.78 6.15C5.84 6.04 5.94 5.96 6.07 5.93C6.1 5.92 6.14 5.92 6.18 5.92C6.26 5.92 6.33 5.94 6.4 5.97C6.4 5.88 6.43 5.8 6.48 5.72C6.62 5.52 6.9 5.46 7.12 5.59L8.95 6.69L8.71 6.27C8.62 6.1 8.62 5.9 8.72 5.74C8.77 5.67 8.83 5.6 8.91 5.56C8.98 5.52 9.05 5.5 9.12 5.5C9.27 5.5 9.41 5.58 9.49 5.72C9.76 6.21 10.27 7.13 10.31 7.19C10.32 7.2 10.34 7.24 10.36 7.27C10.38 7.29 10.4 7.32 10.42 7.34C10.87 7.9 10.93 8.62 10.56 9.23L10.56 9.23ZM10.22 7.5C10.2 7.47 10.18 7.44 10.15 7.41C10.09 7.31 10.08 7.31 10.08 7.29C10 7.15 9.81 6.81 9.27 5.85C9.23 5.76 9.12 5.73 9.03 5.78C8.99 5.8 8.96 5.83 8.94 5.87C8.89 5.96 8.88 6.06 8.93 6.14L9.39 6.98C9.42 7.03 9.41 7.09 9.37 7.13C9.33 7.17 9.27 7.17 9.22 7.14L6.99 5.81C6.89 5.75 6.75 5.77 6.69 5.87C6.65 5.92 6.64 5.98 6.65 6.05C6.67 6.1 6.7 6.15 6.75 6.18C6.75 6.18 6.75 6.18 6.75 6.18L8.21 7.06C8.27 7.09 8.29 7.17 8.25 7.23C8.22 7.29 8.14 7.31 8.08 7.27L6.29 6.2C6.24 6.17 6.18 6.16 6.13 6.17C6.07 6.19 6.02 6.22 5.99 6.28C5.96 6.33 5.95 6.39 5.97 6.44C5.98 6.5 6.02 6.55 6.07 6.58L6.41 6.79L7.85 7.65C7.91 7.69 7.93 7.76 7.89 7.82C7.86 7.88 7.78 7.9 7.72 7.87L6.27 6.99C6.16 6.93 6.03 6.96 5.96 7.07C5.93 7.12 5.92 7.18 5.94 7.24C5.95 7.29 5.99 7.34 6.04 7.37L6.4 7.59L7.49 8.25C7.55 8.28 7.57 8.36 7.54 8.42C7.5 8.48 7.42 8.5 7.37 8.46L6.27 7.8C6.22 7.77 6.16 7.76 6.1 7.78C6.04 7.79 5.99 7.83 5.96 7.88C5.93 7.93 5.92 7.99 5.94 8.05C5.95 8.1 5.99 8.15 6.04 8.18L8.27 9.52C8.63 9.73 9.04 9.81 9.44 9.73C9.83 9.65 10.15 9.43 10.35 9.1C10.66 8.57 10.62 7.98 10.23 7.5L10.22 7.5Z" fill="#4CAF4F" fill-opacity="1.000000" fill-rule="nonzero"/>
	<path id="Vector" d="M10.56 9.23C10.35 9.58 10.02 9.83 9.61 9.94C9.57 9.96 9.53 9.97 9.49 9.97C9.03 10.07 8.55 9.98 8.14 9.73L5.91 8.4C5.8 8.33 5.73 8.23 5.69 8.11C5.68 8.06 5.68 8.01 5.68 7.96C5.69 7.88 5.71 7.81 5.75 7.75C5.75 7.74 5.76 7.73 5.76 7.72C5.8 7.67 5.85 7.62 5.91 7.59L5.91 7.59C5.85 7.55 5.8 7.5 5.76 7.45C5.73 7.4 5.71 7.35 5.7 7.3C5.69 7.27 5.68 7.24 5.68 7.21C5.68 7.17 5.68 7.14 5.69 7.11C5.7 7.05 5.72 6.99 5.75 6.94C5.75 6.93 5.76 6.92 5.77 6.91C5.81 6.86 5.86 6.81 5.91 6.78C5.86 6.74 5.81 6.69 5.78 6.63C5.75 6.59 5.73 6.55 5.72 6.5C5.72 6.48 5.71 6.46 5.71 6.43C5.7 6.33 5.72 6.23 5.78 6.15C5.83 6.06 5.91 5.99 6 5.95C6.02 5.94 6.04 5.94 6.07 5.93C6.1 5.92 6.14 5.92 6.18 5.92C6.19 5.92 6.2 5.92 6.21 5.92C6.27 5.92 6.34 5.94 6.4 5.97C6.4 5.9 6.42 5.84 6.45 5.78C6.46 5.76 6.47 5.74 6.48 5.72C6.51 5.68 6.54 5.64 6.58 5.62C6.74 5.5 6.95 5.49 7.12 5.59L8.23 6.26L8.61 6.49L8.95 6.69L8.76 6.35L8.71 6.27C8.66 6.18 8.64 6.08 8.65 5.99C8.65 5.9 8.68 5.82 8.72 5.74C8.77 5.67 8.83 5.6 8.91 5.56C8.98 5.52 9.05 5.5 9.12 5.5C9.27 5.5 9.41 5.58 9.49 5.72C9.71 6.11 10.07 6.77 10.23 7.06C10.27 7.13 10.3 7.18 10.31 7.19C10.32 7.2 10.34 7.24 10.36 7.27C10.38 7.29 10.4 7.32 10.42 7.34L10.42 7.34C10.74 7.74 10.87 8.22 10.77 8.69C10.74 8.87 10.67 9.06 10.56 9.23L10.56 9.23L10.56 9.23L10.56 9.23ZM10.35 9.1L10.35 9.1C10.22 9.31 10.04 9.48 9.83 9.59C9.71 9.65 9.58 9.7 9.44 9.73C9.04 9.81 8.63 9.73 8.27 9.52L7.19 8.87L6.07 8.2L6.04 8.18C5.99 8.15 5.95 8.1 5.94 8.05C5.92 7.99 5.93 7.93 5.96 7.88C5.97 7.87 5.97 7.86 5.98 7.86C6.01 7.82 6.05 7.79 6.1 7.78C6.16 7.76 6.22 7.77 6.27 7.8L6.3 7.82L6.34 7.85L7.11 8.31L7.37 8.46C7.37 8.47 7.38 8.47 7.39 8.47C7.44 8.49 7.51 8.47 7.54 8.42C7.57 8.36 7.56 8.3 7.51 8.26C7.51 8.25 7.5 8.25 7.49 8.25L7.24 8.09L6.59 7.7L6.4 7.59L6.07 7.39L6.04 7.37C6.03 7.36 6.01 7.35 6 7.34C5.97 7.31 5.95 7.28 5.94 7.24C5.92 7.18 5.93 7.12 5.96 7.07C5.97 7.06 5.97 7.05 5.98 7.05C6.05 6.96 6.17 6.93 6.27 6.99L6.3 7.01L6.34 7.04L7.47 7.71L7.72 7.87C7.73 7.87 7.74 7.87 7.74 7.88C7.8 7.9 7.86 7.88 7.89 7.82C7.93 7.77 7.91 7.7 7.87 7.66C7.86 7.66 7.86 7.65 7.85 7.65L7.6 7.5L6.59 6.89L6.41 6.79L6.09 6.6L6.07 6.58C6.04 6.57 6.03 6.55 6.01 6.53C5.99 6.51 5.97 6.48 5.97 6.44C5.95 6.39 5.96 6.33 5.99 6.28C6.02 6.22 6.07 6.19 6.13 6.17C6.16 6.17 6.19 6.17 6.23 6.17C6.25 6.18 6.27 6.19 6.29 6.2L6.32 6.22L6.63 6.4L6.64 6.41L6.82 6.51L7.83 7.12L8.08 7.27C8.09 7.27 8.09 7.28 8.1 7.28C8.16 7.3 8.22 7.28 8.25 7.23C8.28 7.18 8.27 7.11 8.23 7.07C8.22 7.06 8.22 7.06 8.21 7.06L6.83 6.23L6.79 6.21L6.75 6.18L6.75 6.18C6.7 6.15 6.67 6.1 6.65 6.05C6.64 6 6.65 5.95 6.67 5.9C6.67 5.89 6.68 5.88 6.69 5.87C6.74 5.78 6.85 5.76 6.95 5.79C6.96 5.79 6.97 5.8 6.98 5.8C6.99 5.81 6.99 5.81 6.99 5.81L7.01 5.82L7.02 5.83L7.02 5.83L8.43 6.67L8.48 6.7L8.69 6.83L8.86 6.93L8.97 6.99L9.22 7.14C9.27 7.17 9.33 7.17 9.37 7.13C9.41 7.09 9.42 7.04 9.4 6.99C9.4 6.99 9.4 6.98 9.39 6.98L9.25 6.72L9.19 6.61L9.1 6.44L8.94 6.17L8.93 6.14C8.92 6.13 8.92 6.12 8.91 6.11C8.89 6.03 8.89 5.95 8.94 5.87C8.96 5.83 8.99 5.8 9.03 5.78C9.12 5.73 9.23 5.76 9.27 5.85C9.29 5.88 9.31 5.92 9.33 5.96C9.54 6.33 9.69 6.6 9.8 6.8C9.96 7.07 10.03 7.21 10.08 7.29C10.08 7.31 10.09 7.31 10.15 7.41C10.18 7.44 10.2 7.47 10.22 7.5L10.23 7.5C10.54 7.88 10.63 8.34 10.49 8.78C10.48 8.82 10.47 8.86 10.45 8.9C10.42 8.96 10.39 9.03 10.35 9.1Z" fill="#4CAF4F" fill-opacity="1.000000" fill-rule="evenodd"/>
</svg>
