<svg width="15.618652" height="10.389038" viewBox="0 0 15.6187 10.389" fill="none" xmlns="http://www.w3.org/2000/svg" xmlns:xlink="http://www.w3.org/1999/xlink">
	<desc>
			Created with Pixso.
	</desc>
	<defs/>
	<path id="Vector" d="M7.83 7.07C8.46 6.54 8.91 5.83 9.12 5.03C9.33 4.24 9.3 3.4 9.02 2.63C8.73 1.86 8.22 1.19 7.55 0.72C6.88 0.25 6.07 0 5.25 0C4.43 0 3.63 0.25 2.96 0.72C2.28 1.19 1.77 1.86 1.49 2.63C1.21 3.4 1.17 4.24 1.38 5.03C1.59 5.83 2.04 6.54 2.67 7.07C1.65 7.53 0.78 8.26 0.13 9.17C0.02 9.33 -0.03 9.53 0.01 9.73C0.04 9.93 0.15 10.1 0.31 10.22C0.44 10.31 0.59 10.35 0.74 10.35C0.87 10.35 0.98 10.33 1.09 10.27C1.2 10.21 1.29 10.13 1.36 10.03C1.8 9.41 2.38 8.9 3.06 8.55C3.74 8.19 4.49 8.01 5.25 8.01C6.02 8.01 6.77 8.19 7.45 8.55C8.12 8.9 8.71 9.41 9.15 10.03C9.2 10.12 9.27 10.19 9.36 10.25C9.44 10.31 9.53 10.35 9.63 10.37C9.73 10.39 9.84 10.39 9.94 10.37C10.04 10.35 10.13 10.31 10.21 10.25C10.3 10.19 10.37 10.11 10.42 10.03C10.47 9.94 10.51 9.84 10.52 9.74C10.54 9.64 10.53 9.54 10.51 9.44C10.48 9.34 10.44 9.25 10.37 9.17C9.73 8.26 8.85 7.53 7.83 7.07ZM2.75 4.01C2.75 3.51 2.9 3.03 3.17 2.62C3.45 2.2 3.84 1.88 4.29 1.69C4.75 1.5 5.25 1.45 5.74 1.55C6.23 1.65 6.67 1.89 7.02 2.24C7.37 2.59 7.61 3.03 7.71 3.52C7.8 4 7.76 4.51 7.57 4.96C7.38 5.42 7.06 5.81 6.64 6.09C6.23 6.36 5.75 6.51 5.25 6.51C4.59 6.51 3.95 6.25 3.48 5.78C3.01 5.31 2.75 4.67 2.75 4.01ZM15.29 10.22C15.17 10.31 15.02 10.35 14.86 10.35C14.74 10.35 14.62 10.32 14.52 10.27C14.41 10.21 14.32 10.13 14.25 10.03C13.81 9.41 13.22 8.9 12.55 8.55C11.87 8.2 11.12 8.01 10.35 8.01C10.15 8.01 9.96 7.93 9.82 7.79C9.68 7.65 9.6 7.46 9.6 7.26C9.6 7.06 9.68 6.87 9.82 6.73C9.96 6.59 10.15 6.51 10.35 6.51C11.02 6.51 11.66 6.25 12.12 5.78C12.59 5.31 12.86 4.67 12.86 4.01C12.86 3.34 12.59 2.71 12.12 2.24C11.66 1.77 11.02 1.5 10.35 1.5C10.13 1.5 9.9 1.53 9.68 1.6C9.58 1.62 9.48 1.63 9.38 1.62C9.28 1.61 9.19 1.58 9.1 1.53C9.01 1.49 8.94 1.42 8.87 1.34C8.81 1.27 8.77 1.18 8.74 1.08C8.71 0.98 8.71 0.88 8.72 0.78C8.73 0.69 8.76 0.59 8.81 0.5C8.86 0.42 8.93 0.34 9.01 0.28C9.08 0.22 9.17 0.18 9.27 0.15C9.62 0.05 9.99 0 10.35 0C11.18 0 11.98 0.25 12.65 0.72C13.33 1.19 13.84 1.86 14.12 2.63C14.41 3.4 14.44 4.24 14.23 5.04C14.02 5.83 13.56 6.54 12.93 7.07C13.95 7.53 14.83 8.26 15.47 9.17C15.53 9.25 15.57 9.34 15.6 9.44C15.62 9.53 15.62 9.63 15.6 9.73C15.59 9.83 15.55 9.92 15.5 10C15.44 10.09 15.37 10.16 15.29 10.22Z" fill="#4CAF4F" fill-opacity="1.000000" fill-rule="nonzero"/>
	<path id="Vector" d="M8.1 6.82C8.59 6.33 8.94 5.71 9.12 5.03C9.33 4.24 9.3 3.4 9.02 2.63C8.73 1.86 8.22 1.19 7.55 0.72C6.88 0.25 6.07 0 5.25 0C4.43 0 3.63 0.25 2.96 0.72C2.28 1.19 1.77 1.86 1.49 2.63C1.21 3.4 1.17 4.24 1.38 5.03C1.56 5.71 1.92 6.33 2.41 6.82C2.49 6.91 2.58 6.99 2.67 7.07C2.56 7.12 2.45 7.17 2.35 7.23C1.47 7.69 0.71 8.35 0.13 9.17C0.02 9.33 -0.03 9.53 0.01 9.73C0.04 9.93 0.15 10.1 0.31 10.22C0.44 10.31 0.59 10.35 0.74 10.35C0.87 10.35 0.98 10.33 1.09 10.27C1.2 10.21 1.29 10.13 1.36 10.03C1.8 9.41 2.38 8.9 3.06 8.55C3.74 8.19 4.49 8.01 5.25 8.01C6.02 8.01 6.77 8.19 7.45 8.55C8.12 8.9 8.71 9.41 9.15 10.03C9.2 10.12 9.27 10.19 9.36 10.25C9.44 10.31 9.53 10.35 9.63 10.37C9.73 10.39 9.84 10.39 9.94 10.37C10.04 10.35 10.13 10.31 10.21 10.25C10.3 10.19 10.37 10.11 10.42 10.03C10.47 9.94 10.51 9.84 10.52 9.74C10.54 9.64 10.53 9.54 10.51 9.44C10.48 9.34 10.44 9.25 10.37 9.17C9.8 8.35 9.04 7.69 8.16 7.23C8.05 7.17 7.94 7.12 7.83 7.07C7.92 6.99 8.01 6.91 8.1 6.82ZM13.26 7.23C13.15 7.17 13.04 7.12 12.93 7.07C13.03 6.99 13.11 6.91 13.2 6.82C13.69 6.33 14.05 5.71 14.23 5.04C14.44 4.24 14.41 3.4 14.12 2.63C13.84 1.86 13.33 1.19 12.65 0.72C11.98 0.25 11.18 0 10.35 0C9.99 0 9.62 0.05 9.27 0.15C9.17 0.18 9.08 0.22 9.01 0.28C8.93 0.34 8.86 0.42 8.81 0.5C8.76 0.59 8.73 0.69 8.72 0.78C8.71 0.88 8.71 0.98 8.74 1.08C8.77 1.18 8.81 1.27 8.87 1.34C8.94 1.42 9.01 1.49 9.1 1.53C9.19 1.58 9.28 1.61 9.38 1.62C9.48 1.63 9.58 1.62 9.68 1.6C9.9 1.53 10.13 1.5 10.35 1.5C11.02 1.5 11.66 1.77 12.12 2.24C12.59 2.71 12.86 3.34 12.86 4.01C12.86 4.67 12.59 5.31 12.12 5.78C11.66 6.25 11.02 6.51 10.35 6.51C10.15 6.51 9.96 6.59 9.82 6.73C9.68 6.87 9.6 7.06 9.6 7.26C9.6 7.46 9.68 7.65 9.82 7.79C9.96 7.93 10.15 8.01 10.35 8.01C11.12 8.01 11.87 8.2 12.55 8.55C13.22 8.9 13.81 9.41 14.25 10.03C14.32 10.13 14.41 10.21 14.52 10.27C14.62 10.32 14.74 10.35 14.86 10.35C15.02 10.35 15.17 10.31 15.29 10.22C15.37 10.16 15.44 10.09 15.5 10C15.55 9.92 15.59 9.83 15.6 9.73C15.62 9.63 15.62 9.53 15.6 9.44C15.57 9.34 15.53 9.25 15.47 9.17C14.9 8.35 14.14 7.69 13.26 7.23ZM8.9 4.4Q8.87 4.68 8.8 4.95Q8.73 5.22 8.62 5.48Q8.5 5.73 8.35 5.97Q8.2 6.21 8.02 6.42Q7.83 6.63 7.62 6.81L7.21 7.15L7.69 7.37Q8.06 7.54 8.39 7.74Q8.72 7.95 9.03 8.21Q9.34 8.46 9.6 8.75Q9.87 9.04 10.1 9.36L10.1 9.37L10.11 9.38Q10.14 9.41 10.15 9.45Q10.17 9.48 10.18 9.53Q10.2 9.57 10.2 9.61Q10.2 9.65 10.19 9.69Q10.19 9.74 10.17 9.78Q10.16 9.82 10.14 9.85Q10.11 9.89 10.08 9.92Q10.06 9.95 10.02 9.97Q9.99 10 9.95 10.02Q9.91 10.03 9.87 10.04Q9.83 10.05 9.78 10.05Q9.74 10.05 9.7 10.04Q9.66 10.03 9.62 10.02Q9.58 10 9.54 9.98Q9.51 9.95 9.48 9.92Q9.45 9.89 9.43 9.86L9.42 9.85L9.42 9.84Q9.06 9.33 8.61 8.94Q8.15 8.54 7.6 8.25Q7.05 7.96 6.46 7.82Q5.87 7.68 5.25 7.68Q4.63 7.68 4.04 7.82Q3.46 7.96 2.9 8.25Q2.36 8.53 1.91 8.93Q1.45 9.33 1.08 9.84Q1.06 9.89 1.02 9.92Q0.98 9.95 0.94 9.97Q0.9 9.99 0.86 10Q0.8 10.02 0.74 10.02Q0.68 10.02 0.63 10Q0.56 9.98 0.51 9.94Q0.44 9.89 0.39 9.83Q0.35 9.76 0.33 9.67Q0.32 9.59 0.34 9.51Q0.36 9.43 0.4 9.36Q0.63 9.04 0.9 8.75Q1.17 8.46 1.47 8.21Q1.78 7.95 2.11 7.74Q2.45 7.54 2.81 7.37L3.29 7.15L2.89 6.81Q2.67 6.63 2.49 6.42Q2.3 6.21 2.15 5.97Q2 5.73 1.89 5.48Q1.78 5.22 1.7 4.95Q1.63 4.68 1.6 4.4Q1.57 4.12 1.58 3.84Q1.6 3.56 1.65 3.28Q1.71 3.01 1.8 2.74Q1.9 2.48 2.03 2.23Q2.17 1.99 2.34 1.76Q2.51 1.54 2.71 1.35Q2.92 1.15 3.15 0.99Q3.38 0.83 3.63 0.71Q3.88 0.58 4.15 0.5Q4.42 0.41 4.69 0.37Q4.97 0.33 5.25 0.33Q5.53 0.33 5.81 0.37Q6.09 0.41 6.36 0.5Q6.63 0.58 6.88 0.71Q7.13 0.83 7.36 0.99Q7.59 1.15 7.79 1.35Q7.99 1.54 8.16 1.76Q8.34 1.99 8.47 2.23Q8.61 2.48 8.7 2.74Q8.8 3.01 8.85 3.28Q8.91 3.56 8.92 3.84Q8.93 4.12 8.9 4.4ZM14.86 10.02L14.86 10.02Q14.81 10.02 14.76 10.01Q14.72 10 14.67 9.97Q14.62 9.95 14.59 9.92Q14.55 9.88 14.52 9.84Q14.16 9.34 13.71 8.94Q13.26 8.54 12.7 8.25Q12.15 7.97 11.56 7.82Q10.98 7.68 10.35 7.68Q10.27 7.68 10.19 7.65Q10.12 7.62 10.06 7.56Q10 7.5 9.97 7.42Q9.94 7.35 9.94 7.26Q9.94 7.17 9.97 7.1Q10 7.03 10.06 6.97Q10.12 6.91 10.19 6.87Q10.27 6.84 10.35 6.84Q10.64 6.84 10.91 6.79Q11.18 6.74 11.44 6.63Q11.7 6.52 11.93 6.37Q12.16 6.21 12.36 6.01Q12.56 5.81 12.71 5.58Q12.87 5.35 12.98 5.09Q13.08 4.83 13.14 4.56Q13.19 4.29 13.19 4.01Q13.19 3.72 13.14 3.45Q13.08 3.18 12.98 2.92Q12.87 2.66 12.71 2.43Q12.56 2.2 12.36 2Q12.16 1.8 11.93 1.65Q11.7 1.49 11.44 1.38Q11.18 1.28 10.91 1.22Q10.64 1.17 10.35 1.17Q10.17 1.17 9.98 1.19Q9.78 1.22 9.59 1.27Q9.52 1.29 9.45 1.29Q9.44 1.29 9.42 1.29Q9.38 1.29 9.34 1.27Q9.3 1.26 9.26 1.24Q9.23 1.22 9.19 1.19Q9.16 1.17 9.14 1.14Q9.11 1.1 9.09 1.07Q9.07 1.03 9.06 0.99Q9.05 0.95 9.05 0.91Q9.04 0.87 9.05 0.83Q9.05 0.78 9.07 0.74Q9.08 0.71 9.1 0.67Q9.12 0.63 9.15 0.6Q9.18 0.57 9.21 0.55Q9.24 0.52 9.28 0.5Q9.32 0.48 9.36 0.47Q9.68 0.38 10.01 0.35Q10.18 0.33 10.35 0.33Q10.65 0.33 10.95 0.38Q11.21 0.42 11.46 0.5Q11.73 0.58 11.98 0.71Q12.23 0.83 12.46 0.99Q12.69 1.15 12.9 1.35Q13.1 1.54 13.27 1.76Q13.44 1.99 13.58 2.23Q13.71 2.48 13.81 2.74Q13.91 3.01 13.96 3.28Q14.02 3.56 14.03 3.84Q14.04 4.12 14.01 4.4Q13.98 4.68 13.91 4.95Q13.83 5.22 13.72 5.48Q13.61 5.73 13.46 5.97Q13.3 6.21 13.12 6.42Q12.94 6.63 12.72 6.81L12.31 7.15L12.8 7.37Q13.16 7.54 13.49 7.74Q13.83 7.95 14.13 8.21Q14.44 8.46 14.71 8.75Q14.97 9.04 15.2 9.36Q15.24 9.41 15.26 9.46Q15.26 9.49 15.27 9.51Q15.28 9.55 15.28 9.59Q15.28 9.63 15.27 9.67Q15.27 9.71 15.25 9.75Q15.24 9.79 15.22 9.83Q15.19 9.86 15.17 9.89Q15.14 9.92 15.1 9.94Q15.04 9.99 14.96 10.01Q14.92 10.02 14.86 10.02ZM3.15 2.1Q3.01 2.25 2.89 2.43Q2.78 2.6 2.69 2.79Q2.6 2.98 2.54 3.18Q2.48 3.38 2.44 3.59Q2.41 3.8 2.41 4.01Q2.41 4.29 2.47 4.56Q2.52 4.83 2.63 5.09Q2.74 5.35 2.89 5.58Q3.05 5.81 3.25 6.01Q3.45 6.21 3.68 6.37Q3.91 6.52 4.17 6.63Q4.43 6.74 4.7 6.79Q4.97 6.84 5.25 6.84Q5.46 6.84 5.67 6.81Q5.87 6.78 6.08 6.72Q6.28 6.66 6.47 6.57Q6.65 6.48 6.83 6.37Q7 6.25 7.16 6.11Q7.31 5.97 7.45 5.81Q7.58 5.64 7.69 5.47Q7.79 5.29 7.87 5.09Q7.95 4.9 8.01 4.7Q8.06 4.49 8.08 4.28Q8.1 4.07 8.09 3.87Q8.08 3.66 8.04 3.45Q7.99 3.25 7.92 3.05Q7.85 2.85 7.75 2.67Q7.66 2.48 7.53 2.32Q7.41 2.15 7.26 2Q7.11 1.85 6.94 1.73Q6.78 1.6 6.59 1.5Q6.4 1.4 6.21 1.33Q6.01 1.26 5.81 1.22Q5.6 1.18 5.39 1.17Q5.18 1.16 4.97 1.18Q4.76 1.2 4.56 1.25Q4.36 1.3 4.17 1.38Q3.97 1.46 3.79 1.57Q3.61 1.68 3.45 1.81Q3.29 1.95 3.15 2.1ZM2.75 4.01C2.75 3.51 2.9 3.03 3.17 2.62C3.45 2.2 3.84 1.88 4.29 1.69C4.75 1.5 5.25 1.45 5.74 1.55C6.23 1.65 6.67 1.89 7.02 2.24C7.37 2.59 7.61 3.03 7.71 3.52C7.8 4 7.76 4.51 7.57 4.96C7.38 5.42 7.06 5.81 6.64 6.09C6.23 6.36 5.75 6.51 5.25 6.51C4.59 6.51 3.95 6.25 3.48 5.78C3.01 5.31 2.75 4.67 2.75 4.01Z" fill="#4CAF4F" fill-opacity="1.000000" fill-rule="evenodd"/>
</svg>
