<svg width="14.022339" height="11.017578" viewBox="0 0 14.0223 11.0176" fill="none" xmlns="http://www.w3.org/2000/svg" xmlns:xlink="http://www.w3.org/1999/xlink">
	<desc>
			Created with Pixso.
	</desc>
	<defs/>
	<path id="Vector" d="M0 2.25C0 1.65 0.23 1.08 0.66 0.66C1.08 0.23 1.65 0 2.25 0L11.76 0C12.36 0 12.93 0.23 13.36 0.66C13.78 1.08 14.02 1.65 14.02 2.25L14.02 8.76C14.02 9.36 13.78 9.93 13.36 10.35C12.93 10.78 12.36 11.01 11.76 11.01L2.25 11.01C1.65 11.01 1.08 10.78 0.66 10.35C0.23 9.93 0 9.36 0 8.76L0 2.25ZM2.25 1C1.92 1 1.6 1.13 1.36 1.36C1.13 1.6 1 1.92 1 2.25L1 3L13.02 3L13.02 2.25C13.02 1.92 12.88 1.6 12.65 1.36C12.41 1.13 12.1 1 11.76 1L2.25 1ZM1 8.76C1 9.09 1.13 9.41 1.36 9.64C1.6 9.88 1.92 10.01 2.25 10.01L11.76 10.01C12.1 10.01 12.41 9.88 12.65 9.64C12.88 9.41 13.02 9.09 13.02 8.76L13.02 4L1 4L1 8.76ZM9.51 7.01L11.01 7.01C11.15 7.01 11.27 7.06 11.37 7.15C11.46 7.25 11.51 7.37 11.51 7.51C11.51 7.64 11.46 7.77 11.37 7.86C11.27 7.96 11.15 8.01 11.01 8.01L9.51 8.01C9.38 8.01 9.25 7.96 9.16 7.86C9.06 7.77 9.01 7.64 9.01 7.51C9.01 7.37 9.06 7.25 9.16 7.15C9.25 7.06 9.38 7.01 9.51 7.01Z" fill="#4CAF4F" fill-opacity="1.000000" fill-rule="nonzero"/>
	<path id="Vector" d="M0 2.25C0 1.65 0.23 1.08 0.66 0.66C1.08 0.23 1.65 0 2.25 0L11.76 0C12.36 0 12.93 0.23 13.36 0.66C13.78 1.08 14.02 1.65 14.02 2.25L14.02 8.76C14.02 9.36 13.78 9.93 13.36 10.35C12.93 10.78 12.36 11.01 11.76 11.01L2.25 11.01C1.65 11.01 1.08 10.78 0.66 10.35C0.23 9.93 0 9.36 0 8.76L0 2.25ZM0.65 1.18Q0.76 1.03 0.89 0.89Q1.03 0.76 1.18 0.65Q1.34 0.55 1.51 0.47Q1.69 0.4 1.87 0.37Q2.06 0.33 2.25 0.33L11.76 0.33Q11.95 0.33 12.14 0.37Q12.32 0.4 12.5 0.47Q12.67 0.55 12.83 0.65Q12.99 0.76 13.12 0.89Q13.26 1.03 13.36 1.18Q13.46 1.34 13.54 1.51Q13.61 1.69 13.65 1.87Q13.68 2.06 13.68 2.25L13.68 8.76Q13.68 8.95 13.65 9.13Q13.61 9.32 13.54 9.49Q13.46 9.67 13.36 9.83Q13.26 9.98 13.12 10.12Q12.99 10.25 12.83 10.36Q12.67 10.46 12.5 10.53Q12.32 10.61 12.14 10.64Q11.95 10.68 11.76 10.68L2.25 10.68Q2.06 10.68 1.87 10.64Q1.69 10.61 1.51 10.53Q1.34 10.46 1.18 10.36Q1.03 10.25 0.89 10.12Q0.76 9.98 0.65 9.83Q0.55 9.67 0.47 9.49Q0.4 9.32 0.37 9.13Q0.33 8.95 0.33 8.76L0.33 2.25Q0.33 2.06 0.37 1.87Q0.4 1.69 0.47 1.51Q0.55 1.34 0.65 1.18ZM1.37 0.93Q1.24 1.02 1.13 1.13Q1.02 1.24 0.93 1.37Q0.84 1.5 0.78 1.64Q0.72 1.79 0.69 1.94Q0.66 2.09 0.66 2.25L0.66 3.33L13.35 3.33L13.35 2.25Q13.35 2.09 13.32 1.94Q13.29 1.79 13.23 1.64Q13.17 1.5 13.08 1.37Q13 1.24 12.89 1.13Q12.77 1.02 12.65 0.93Q12.52 0.84 12.37 0.78Q12.23 0.72 12.07 0.69Q11.92 0.66 11.76 0.66L2.25 0.66Q2.09 0.66 1.94 0.69Q1.79 0.72 1.64 0.78Q1.5 0.84 1.37 0.93ZM2.25 1C1.92 1 1.6 1.13 1.36 1.36C1.13 1.6 1 1.92 1 2.25L1 3L1.33 3L12.68 3L13.02 3L13.02 2.67L13.02 2.25C13.02 1.92 12.88 1.6 12.65 1.36C12.41 1.13 12.1 1 11.76 1L2.25 1ZM0.93 9.64Q1.02 9.77 1.13 9.88Q1.24 9.99 1.37 10.08Q1.5 10.16 1.64 10.22Q1.79 10.28 1.94 10.31Q2.09 10.34 2.25 10.34L11.76 10.34Q11.92 10.34 12.07 10.31Q12.23 10.28 12.37 10.22Q12.52 10.16 12.65 10.08Q12.77 9.99 12.89 9.88Q13 9.77 13.08 9.64Q13.17 9.51 13.23 9.37Q13.29 9.22 13.32 9.07Q13.35 8.92 13.35 8.76L13.35 3.67L0.66 3.67L0.66 8.76Q0.66 8.92 0.69 9.07Q0.72 9.22 0.78 9.37Q0.84 9.51 0.93 9.64ZM13.02 4.34L13.02 8.76C13.02 9.09 12.88 9.41 12.65 9.64C12.41 9.88 12.1 10.01 11.76 10.01L2.25 10.01C1.92 10.01 1.6 9.88 1.36 9.64C1.13 9.41 1 9.09 1 8.76L1 4L13.02 4L13.02 4.34ZM9.51 7.01L11.01 7.01C11.15 7.01 11.27 7.06 11.37 7.15C11.46 7.25 11.51 7.37 11.51 7.51C11.51 7.64 11.46 7.77 11.37 7.86C11.27 7.96 11.15 8.01 11.01 8.01L9.51 8.01C9.38 8.01 9.25 7.96 9.16 7.86C9.06 7.77 9.01 7.64 9.01 7.51C9.01 7.37 9.06 7.25 9.16 7.15C9.25 7.06 9.38 7.01 9.51 7.01ZM9.51 7.34L11.01 7.34Q11.05 7.34 11.08 7.35Q11.11 7.36 11.13 7.39Q11.16 7.41 11.17 7.44Q11.18 7.47 11.18 7.51Q11.18 7.54 11.17 7.57Q11.16 7.6 11.13 7.63Q11.11 7.65 11.08 7.66Q11.05 7.67 11.01 7.67L9.51 7.67Q9.48 7.67 9.45 7.66Q9.42 7.65 9.39 7.63Q9.37 7.6 9.36 7.57Q9.34 7.54 9.34 7.51Q9.34 7.47 9.36 7.44Q9.37 7.41 9.39 7.39Q9.42 7.36 9.45 7.35Q9.48 7.34 9.51 7.34Z" fill="#4CAF4F" fill-opacity="1.000000" fill-rule="evenodd"/>
</svg>
