<svg width="147.413086" height="144.697388" viewBox="0 0 147.413 144.697" fill="none" xmlns="http://www.w3.org/2000/svg" xmlns:xlink="http://www.w3.org/1999/xlink">
	<desc>
			Created with Pixso.
	</desc>
	<defs/>
	<g opacity="0.000000">
		<path id="Vector" d="M147.41 97.35L90.86 97.35L90.86 64.63L147.41 64.63L147.41 97.35ZM91.2 97.01L147.06 97.01L147.06 64.97L91.2 64.97L91.2 97.01Z" fill="#E0E0E0" fill-opacity="1.000000" fill-rule="nonzero"/>
		<path id="Vector" d="M98.43 82.08L135.74 82.08L135.74 83.17L98.43 83.17L98.43 82.08Z" fill="#F0F0F0" fill-opacity="1.000000" fill-rule="evenodd"/>
		<path id="Vector" d="M98.43 86.16L138.31 86.16L138.31 87.35L98.43 87.35L98.43 86.16Z" fill="#F0F0F0" fill-opacity="1.000000" fill-rule="evenodd"/>
		<path id="Vector" d="M98.43 90.28L138.31 90.28L138.31 91.48L98.43 91.48L98.43 90.28Z" fill="#F0F0F0" fill-opacity="1.000000" fill-rule="evenodd"/>
		<path id="Vector" d="M98.43 76.15L111.47 76.15L111.47 78.99L98.43 78.99L98.43 76.15Z" fill="#F0F0F0" fill-opacity="1.000000" fill-rule="evenodd"/>
		<path id="Vector" d="M91.04 64.8L147.24 64.8L147.24 70.01L91.04 70.01L91.04 64.8Z" fill="#E0E0E0" fill-opacity="1.000000" fill-rule="evenodd"/>
		<path id="Vector" d="M142.91 69.23C142.84 69.16 143.56 68.29 144.53 67.28C145.49 66.27 146.34 65.51 146.4 65.58C146.47 65.64 145.75 66.52 144.79 67.53C143.83 68.54 142.98 69.3 142.91 69.23Z" fill="#FFFFFF" fill-opacity="1.000000" fill-rule="nonzero"/>
		<path id="Vector" d="M146.41 69.23C146.34 69.3 145.5 68.54 144.53 67.53C143.57 66.52 142.85 65.65 142.92 65.58C142.99 65.51 143.83 66.27 144.8 67.28C145.76 68.3 146.48 69.16 146.41 69.23Z" fill="#FFFFFF" fill-opacity="1.000000" fill-rule="nonzero"/>
		<path id="Vector" d="M21.62 0L77.82 0L77.82 32.38L21.62 32.38L21.62 0Z" fill="#E6E6E6" fill-opacity="1.000000" fill-rule="evenodd"/>
		<path id="Vector" d="M29.02 17.28L66.33 17.28L66.33 18.37L29.02 18.37L29.02 17.28Z" fill="#F0F0F0" fill-opacity="1.000000" fill-rule="evenodd"/>
		<path id="Vector" d="M29.02 21.35L68.9 21.35L68.9 22.55L29.02 22.55L29.02 21.35Z" fill="#F0F0F0" fill-opacity="1.000000" fill-rule="evenodd"/>
		<path id="Vector" d="M29.02 25.48L68.9 25.48L68.9 26.68L29.02 26.68L29.02 25.48Z" fill="#F0F0F0" fill-opacity="1.000000" fill-rule="evenodd"/>
		<path id="Vector" d="M29.02 11.35L42.06 11.35L42.06 14.19L29.02 14.19L29.02 11.35Z" fill="#F0F0F0" fill-opacity="1.000000" fill-rule="evenodd"/>
		<path id="Vector" d="M21.62 0L77.82 0L77.82 5.21L21.62 5.21L21.62 0Z" fill="#E0E0E0" fill-opacity="1.000000" fill-rule="evenodd"/>
		<path id="Vector" d="M73.31 4.4C73.23 4.34 73.96 3.46 74.92 2.45C75.88 1.44 76.73 0.68 76.8 0.75C76.87 0.82 76.15 1.69 75.18 2.7C74.22 3.71 73.38 4.46 73.31 4.4Z" fill="#FFFFFF" fill-opacity="1.000000" fill-rule="nonzero"/>
		<path id="Vector" d="M76.8 4.4C76.73 4.47 75.89 3.71 74.92 2.7C73.96 1.69 73.23 0.82 73.31 0.75C73.38 0.68 74.22 1.44 75.18 2.45C76.15 3.46 76.87 4.34 76.8 4.4Z" fill="#FFFFFF" fill-opacity="1.000000" fill-rule="nonzero"/>
		<path id="Vector" d="M56.54 60.15L0 60.15L0 27.42L56.54 27.42L56.54 60.15ZM0.34 59.81L56.19 59.81L56.19 27.77L0.34 27.77L0.34 59.81Z" fill="#E0E0E0" fill-opacity="1.000000" fill-rule="nonzero"/>
		<path id="Vector" d="M7.56 44.88L44.87 44.88L44.87 45.97L7.56 45.97L7.56 44.88Z" fill="#F0F0F0" fill-opacity="1.000000" fill-rule="evenodd"/>
		<path id="Vector" d="M7.56 48.96L47.44 48.96L47.44 50.15L7.56 50.15L7.56 48.96Z" fill="#F0F0F0" fill-opacity="1.000000" fill-rule="evenodd"/>
		<path id="Vector" d="M7.56 53.08L47.44 53.08L47.44 54.28L7.56 54.28L7.56 53.08Z" fill="#F0F0F0" fill-opacity="1.000000" fill-rule="evenodd"/>
		<path id="Vector" d="M7.56 38.95L20.6 38.95L20.6 41.79L7.56 41.79L7.56 38.95Z" fill="#F0F0F0" fill-opacity="1.000000" fill-rule="evenodd"/>
		<path id="Vector" d="M0.17 27.6L56.36 27.6L56.36 32.81L0.17 32.81L0.17 27.6Z" fill="#E0E0E0" fill-opacity="1.000000" fill-rule="evenodd"/>
		<path id="Vector" d="M55.44 67.65L121.79 67.65L121.79 127.06L55.44 127.06L55.44 67.65Z" fill="#E6E6E6" fill-opacity="1.000000" fill-rule="evenodd"/>
		<path id="Vector" d="M6.79 48.94L58.77 48.94L58.77 102.94L6.79 102.94L6.79 48.94Z" fill="#F0F0F0" fill-opacity="1.000000" fill-rule="evenodd"/>
		<path id="Vector" d="M6.79 48.94L58.77 48.94L58.77 54.82L6.79 54.82L6.79 48.94Z" fill="#E0E0E0" fill-opacity="1.000000" fill-rule="evenodd"/>
		<path id="Vector" d="M11.09 51.82C11.08 52.03 11 52.24 10.88 52.41C10.75 52.58 10.58 52.72 10.38 52.79C10.18 52.87 9.96 52.88 9.75 52.83C9.55 52.79 9.36 52.68 9.21 52.53C9.06 52.37 8.96 52.18 8.92 51.97C8.88 51.76 8.91 51.54 8.99 51.34C9.08 51.15 9.22 50.98 9.39 50.86C9.57 50.74 9.78 50.68 9.99 50.68C10.29 50.69 10.57 50.81 10.77 51.03C10.98 51.24 11.09 51.52 11.09 51.82Z" fill="#FFFFFF" fill-opacity="1.000000" fill-rule="nonzero"/>
		<path id="Vector" d="M15.51 51.82C15.5 52.03 15.43 52.24 15.31 52.41C15.18 52.59 15.01 52.72 14.81 52.8C14.61 52.87 14.39 52.89 14.18 52.84C13.97 52.79 13.78 52.69 13.63 52.53C13.48 52.38 13.38 52.18 13.34 51.97C13.3 51.76 13.33 51.54 13.41 51.34C13.5 51.15 13.64 50.98 13.82 50.86C14 50.74 14.21 50.68 14.42 50.68C14.72 50.69 15 50.81 15.2 51.03C15.41 51.24 15.52 51.52 15.51 51.82Z" fill="#FFFFFF" fill-opacity="1.000000" fill-rule="nonzero"/>
		<path id="Vector" d="M19.94 51.82C19.93 52.03 19.86 52.24 19.73 52.41C19.61 52.59 19.43 52.72 19.23 52.8C19.03 52.87 18.81 52.89 18.6 52.84C18.4 52.79 18.2 52.69 18.06 52.53C17.91 52.38 17.81 52.18 17.77 51.97C17.73 51.76 17.76 51.54 17.84 51.34C17.93 51.15 18.07 50.98 18.25 50.86C18.42 50.74 18.63 50.68 18.85 50.68C19.14 50.69 19.42 50.81 19.63 51.03C19.83 51.24 19.95 51.52 19.94 51.82Z" fill="#FFFFFF" fill-opacity="1.000000" fill-rule="nonzero"/>
		<path id="Vector" d="M73.63 11.81L139.99 11.81L139.99 77.94L73.63 77.94L73.63 11.81Z" fill="#F0F0F0" fill-opacity="1.000000" fill-rule="evenodd"/>
		<path id="Vector" d="M73.63 11.81L139.99 11.81L139.99 19.55L73.63 19.55L73.63 11.81Z" fill="#E0E0E0" fill-opacity="1.000000" fill-rule="evenodd"/>
		<path id="Vector" d="M79.28 15.6C79.27 15.88 79.18 16.16 79.01 16.38C78.85 16.61 78.62 16.79 78.35 16.89C78.09 16.99 77.8 17.01 77.53 16.94C77.25 16.88 77 16.74 76.81 16.54C76.61 16.33 76.48 16.08 76.43 15.8C76.38 15.52 76.41 15.24 76.52 14.98C76.63 14.72 76.82 14.5 77.05 14.34C77.29 14.18 77.56 14.1 77.84 14.1C78.23 14.11 78.6 14.27 78.87 14.55C79.14 14.84 79.29 15.21 79.28 15.6Z" fill="#FFFFFF" fill-opacity="1.000000" fill-rule="nonzero"/>
		<path id="Vector" d="M84.69 14.59C84.88 14.8 85.01 15.05 85.05 15.33C85.1 15.61 85.06 15.9 84.94 16.16C84.83 16.41 84.64 16.63 84.4 16.78C84.16 16.93 83.88 17.01 83.6 17C83.32 16.99 83.04 16.9 82.81 16.74C82.58 16.58 82.4 16.36 82.29 16.09C82.19 15.83 82.17 15.54 82.22 15.27C82.28 14.99 82.42 14.74 82.62 14.54C82.9 14.27 83.28 14.13 83.66 14.14C84.05 14.14 84.42 14.31 84.69 14.59Z" fill="#FFFFFF" fill-opacity="1.000000" fill-rule="nonzero"/>
		<path id="Vector" d="M90.94 15.6C90.93 15.88 90.83 16.16 90.67 16.38C90.5 16.61 90.27 16.79 90.01 16.89C89.75 16.99 89.46 17.01 89.18 16.94C88.91 16.88 88.66 16.74 88.46 16.54C88.27 16.33 88.14 16.08 88.09 15.8C88.04 15.52 88.07 15.24 88.18 14.98C88.29 14.72 88.47 14.5 88.71 14.34C88.94 14.18 89.22 14.1 89.5 14.1C89.89 14.11 90.26 14.27 90.53 14.55C90.8 14.84 90.95 15.21 90.94 15.6Z" fill="#FFFFFF" fill-opacity="1.000000" fill-rule="nonzero"/>
	</g>
	<g opacity="0.000000">
		<path id="Vector" d="M110.31 33.58C97.67 22.54 80.57 33.58 63.95 56.82C47.33 80.05 39.43 70.27 25.3 80.51C11.17 90.76 7.4 132.71 57.17 128.63C106.94 124.55 143.34 62.41 110.31 33.58Z" fill="#F0F0F0" fill-opacity="1.000000" fill-rule="nonzero"/>
	</g>
	<path id="Vector" d="M125.65 144.6C125.65 144.65 101.69 144.69 72.14 144.69C42.6 144.69 18.62 144.65 18.62 144.6C18.62 144.55 42.58 144.51 72.14 144.51C101.71 144.51 125.65 144.56 125.65 144.6Z" fill="#263238" fill-opacity="1.000000" fill-rule="nonzero"/>
	<path id="Vector" d="M102.31 102.36C96.97 98.64 95.77 91.73 95.98 85.51C96.01 84.48 95.9 83.38 96.39 82.47C96.88 81.56 98.04 80.94 98.97 81.37C99.73 81.74 100.07 82.63 100.5 83.38C101.08 84.36 101.92 85.17 102.93 85.7C103.59 86.04 104.41 86.25 105.06 85.89C105.96 85.4 106.06 84.17 106.06 83.13C106.06 81.2 106.05 79.28 106.02 77.36C105.96 76.33 106.06 75.29 106.33 74.3C106.65 73.32 107.37 72.41 108.34 72.13C109.32 71.86 110.54 72.43 110.76 73.43C110.8 73.86 110.81 74.29 110.79 74.72C110.82 75.15 111.02 75.62 111.42 75.75C111.83 75.88 112.25 75.58 112.56 75.28C113.62 74.25 114.34 72.9 115.02 71.56C115.69 70.23 116.35 68.86 117.32 67.73C118.28 66.59 119.62 65.69 121.11 65.6C122.61 65.52 124.16 66.44 124.53 67.89C124.91 69.33 124.06 70.82 123.15 71.99C121.78 73.74 120.17 75.28 118.36 76.56C118.01 76.76 117.73 77.06 117.56 77.42C117.33 78.11 117.99 78.8 118.67 79.02C119.43 79.28 120.27 79.2 121.08 79.29C121.89 79.39 122.75 79.74 123.06 80.5C123.48 81.56 122.6 82.66 121.73 83.39C119.99 84.84 118.02 85.98 115.89 86.76C115.14 87.03 114.34 87.28 113.72 87.81C113.11 88.34 112.74 89.27 113.11 90C113.48 90.73 114.43 90.96 115.23 90.81C116.03 90.66 116.73 90.23 117.49 89.95C118.91 89.41 120.74 89.51 121.63 90.73C121.91 91.15 122.08 91.63 122.14 92.14C122.2 92.64 122.15 93.14 121.98 93.62C121.63 94.57 121.1 95.43 120.41 96.17C118.15 98.87 115.22 100.92 111.91 102.12C108.62 103.25 105.57 103.57 102.3 102.37L102.31 102.36Z" fill="#4CAF4F" fill-opacity="1.000000" fill-rule="nonzero"/>
	<path id="Vector" d="M123.02 66.46C123.02 66.46 122.99 66.49 122.92 66.55L122.61 66.83C122.34 67.07 121.94 67.42 121.44 67.89C120.02 69.2 118.71 70.62 117.5 72.14C116.73 73.1 115.94 74.18 115.09 75.36C114.24 76.53 113.36 77.8 112.49 79.15C111.56 80.57 110.72 82.05 109.95 83.56C109.55 84.35 109.2 85.18 108.83 86.02L107.76 88.59C106.35 91.83 105.13 95.14 104.09 98.52C103.25 101.28 102.67 104.11 102.36 106.98C102.16 108.92 102.13 110.87 102.26 112.81C102.32 113.5 102.37 114.03 102.42 114.39C102.44 114.56 102.45 114.7 102.47 114.8L102.47 114.94C102.45 114.89 102.44 114.85 102.44 114.8C102.42 114.7 102.4 114.57 102.37 114.39C102.31 114.05 102.24 113.5 102.18 112.81C102.02 110.87 102.03 108.91 102.22 106.97C102.51 104.09 103.07 101.24 103.9 98.46C104.93 95.08 106.16 91.76 107.57 88.51L108.67 85.95C109.03 85.11 109.39 84.28 109.79 83.49C110.56 81.97 111.42 80.49 112.35 79.07C113.24 77.69 114.13 76.44 114.97 75.27C115.8 74.11 116.62 73.02 117.38 72.06C118.6 70.55 119.93 69.14 121.37 67.84C121.88 67.38 122.29 67.04 122.57 66.81L122.89 66.55C122.93 66.51 122.97 66.48 123.02 66.46Z" fill="#263238" fill-opacity="1.000000" fill-rule="nonzero"/>
	<path id="Vector" d="M109.83 83.48C109.79 83.34 109.75 83.19 109.73 83.04C109.68 82.76 109.62 82.35 109.55 81.83C109.4 80.79 109.24 79.38 109.08 77.81C108.92 76.24 108.74 74.81 108.59 73.79C108.51 73.28 108.44 72.87 108.39 72.58C108.35 72.44 108.33 72.28 108.33 72.13C108.39 72.27 108.43 72.42 108.46 72.56C108.53 72.85 108.62 73.25 108.72 73.77C108.91 74.8 109.11 76.21 109.27 77.79C109.43 79.36 109.57 80.74 109.68 81.81C109.73 82.3 109.77 82.71 109.81 83.03C109.83 83.18 109.84 83.33 109.83 83.48Z" fill="#263238" fill-opacity="1.000000" fill-rule="nonzero"/>
	<path id="Vector" d="M123.11 81C122.94 81.04 122.77 81.06 122.6 81.07C122.26 81.1 121.77 81.14 121.16 81.21C119.95 81.34 118.28 81.58 116.44 81.93C114.61 82.27 112.96 82.66 111.78 82.96C111.19 83.11 110.71 83.25 110.4 83.34C110.23 83.4 110.06 83.45 109.88 83.47C110.04 83.39 110.21 83.32 110.38 83.27C110.7 83.16 111.17 83 111.76 82.83C112.94 82.49 114.58 82.07 116.42 81.72C117.98 81.42 119.55 81.21 121.13 81.07C121.74 81.01 122.24 80.99 122.58 80.99C122.76 80.98 122.94 80.98 123.11 81Z" fill="#263238" fill-opacity="1.000000" fill-rule="nonzero"/>
	<path id="Vector" d="M104.07 98.22C104.04 98.17 104.01 98.12 103.98 98.06L103.76 97.58C103.56 97.16 103.29 96.55 102.98 95.79C102.33 94.27 101.52 92.15 100.65 89.79C99.78 87.43 98.98 85.3 98.37 83.77C98.07 83.02 97.83 82.41 97.64 81.95L97.45 81.46C97.42 81.4 97.4 81.34 97.4 81.28C97.43 81.33 97.46 81.39 97.48 81.44L97.71 81.92C97.91 82.34 98.17 82.96 98.49 83.71C99.13 85.23 99.95 87.36 100.82 89.72C101.69 92.08 102.49 94.2 103.1 95.74C103.4 96.48 103.64 97.09 103.82 97.55C103.9 97.75 103.97 97.9 104.02 98.04C104.04 98.1 104.06 98.16 104.07 98.22Z" fill="#263238" fill-opacity="1.000000" fill-rule="nonzero"/>
	<path id="Vector" d="M121.7 92.54C121.64 92.57 121.58 92.6 121.52 92.61L121.01 92.79L119.12 93.4C117.53 93.91 115.33 94.65 112.91 95.47C110.5 96.28 108.29 97.01 106.68 97.49C105.88 97.73 105.23 97.92 104.78 98.04L104.26 98.18C104.19 98.2 104.13 98.21 104.07 98.22C104.12 98.18 104.18 98.16 104.25 98.14L104.76 97.97L106.64 97.36C108.24 96.84 110.44 96.1 112.85 95.29C115.27 94.48 117.48 93.75 119.08 93.27C119.89 93.02 120.54 92.84 120.99 92.71L121.51 92.58C121.57 92.56 121.63 92.55 121.7 92.54Z" fill="#263238" fill-opacity="1.000000" fill-rule="nonzero"/>
	<path id="Vector" d="M114.51 8.84L112.73 9.47L111.97 7.15C110.57 2.87 106.1 0.6 102 2.04C97.9 3.49 95.71 8.18 97.11 12.47L97.87 14.79L96.09 15.43C95.41 15.69 94.86 16.21 94.55 16.87C94.24 17.53 94.2 18.28 94.43 18.97L99.37 34.08C99.47 34.43 99.65 34.74 99.87 35.02C100.1 35.29 100.38 35.52 100.7 35.69C101.02 35.85 101.37 35.95 101.72 35.98C102.08 36 102.44 35.96 102.78 35.85L121.19 29.26C121.88 29 122.44 28.48 122.75 27.81C123.07 27.14 123.11 26.38 122.87 25.68L117.92 10.57C117.82 10.23 117.64 9.91 117.41 9.64C117.18 9.36 116.9 9.14 116.58 8.98C116.26 8.82 115.92 8.72 115.56 8.7C115.2 8.67 114.84 8.72 114.51 8.84ZM100.47 11.25C100.09 10.14 100.16 8.92 100.66 7.86C101.16 6.8 102.05 5.97 103.15 5.54C103.69 5.36 104.26 5.28 104.83 5.32C105.41 5.37 105.96 5.52 106.47 5.78C106.98 6.04 107.43 6.41 107.8 6.84C108.17 7.28 108.44 7.79 108.61 8.34L109.37 10.66L101.23 13.58L100.47 11.25ZM110.82 24.66L112.08 28.52C112.11 28.6 112.1 28.68 112.06 28.75C112.03 28.83 111.96 28.88 111.89 28.91L110.12 29.54C110.05 29.56 109.97 29.55 109.91 29.52C109.84 29.48 109.8 29.42 109.77 29.35L108.5 25.51C107.8 25.47 107.12 25.22 106.57 24.79C106.01 24.36 105.6 23.77 105.39 23.1C105.09 22.21 105.15 21.24 105.55 20.39C105.94 19.55 106.66 18.88 107.53 18.55C107.96 18.4 108.42 18.34 108.87 18.38C109.33 18.41 109.77 18.53 110.18 18.74C110.58 18.95 110.94 19.24 111.24 19.59C111.53 19.94 111.75 20.34 111.88 20.78C112.1 21.46 112.12 22.19 111.93 22.88C111.75 23.58 111.36 24.2 110.83 24.67L110.82 24.66Z" fill="#4CAF4F" fill-opacity="1.000000" fill-rule="nonzero"/>
	<path id="Vector" d="M112.65 9.43C112.65 9.48 109.36 10.72 105.26 12.19C101.16 13.67 97.81 14.85 97.8 14.82C97.78 14.78 101.09 13.53 105.19 12.05C109.3 10.58 112.63 9.39 112.65 9.43Z" fill="#263238" fill-opacity="1.000000" fill-rule="nonzero"/>
	<path id="Vector" d="M116.56 10.07C116.58 10.1 116.59 10.13 116.6 10.16C116.63 10.23 116.66 10.32 116.7 10.43C116.79 10.68 116.92 11.03 117.07 11.46L118.4 15.32C118.95 16.96 119.61 18.9 120.34 21.05C120.68 22.13 121.09 23.26 121.47 24.44C121.67 25.05 121.76 25.69 121.73 26.33C121.7 26.67 121.6 26.99 121.45 27.29C121.28 27.59 121.06 27.85 120.8 28.06C120.26 28.45 119.67 28.75 119.04 28.95L117.27 29.59L113.9 30.8L108.21 32.82L104.36 34.18L103.32 34.52L103.05 34.61C103.02 34.62 102.99 34.63 102.95 34.64C102.95 34.64 102.98 34.64 103.04 34.59L103.31 34.49L104.35 34.1L108.17 32.69L113.86 30.62L117.22 29.4L118.99 28.76C119.6 28.57 120.18 28.28 120.69 27.9C120.94 27.7 121.15 27.46 121.3 27.18C121.45 26.91 121.54 26.61 121.56 26.3C121.59 25.68 121.51 25.06 121.31 24.47C120.94 23.3 120.55 22.16 120.19 21.08C119.47 18.92 118.81 16.98 118.29 15.34C117.76 13.71 117.32 12.39 117.02 11.47C116.87 11.02 116.76 10.66 116.67 10.41L116.59 10.13C116.58 10.11 116.57 10.09 116.56 10.07Z" fill="#263238" fill-opacity="1.000000" fill-rule="nonzero"/>
	<path id="Vector" d="M106.85 5.31C106.85 5.31 106.66 5.22 106.33 5.08C105.84 4.9 105.33 4.79 104.82 4.78C104.05 4.75 103.29 4.9 102.59 5.2C101.73 5.58 101 6.19 100.48 6.96C99.95 7.73 99.67 8.65 99.67 9.58C99.68 10.35 99.79 11.11 100.01 11.84C100.19 12.47 100.38 12.97 100.5 13.32C100.58 13.49 100.64 13.68 100.68 13.86C100.59 13.7 100.5 13.52 100.44 13.34C100.3 13 100.09 12.51 99.89 11.88C99.65 11.13 99.51 10.36 99.5 9.58C99.49 8.61 99.78 7.66 100.33 6.86C100.87 6.06 101.63 5.43 102.52 5.05C103.24 4.74 104.03 4.61 104.81 4.65C105.34 4.68 105.86 4.8 106.34 5.02C106.47 5.08 106.59 5.14 106.71 5.22C106.76 5.24 106.81 5.27 106.85 5.31Z" fill="#263238" fill-opacity="1.000000" fill-rule="nonzero"/>
	<path id="Vector" d="M107.01 18.81C107.06 18.78 107.12 18.75 107.18 18.72C107.35 18.65 107.53 18.58 107.71 18.54C108 18.45 108.3 18.4 108.61 18.38C109.02 18.36 109.43 18.42 109.82 18.57C110.7 18.88 111.51 19.78 111.91 20.98C112.1 21.63 112.1 22.32 111.91 22.96C111.7 23.66 111.32 24.3 110.8 24.82L110.82 24.73C111.28 25.99 111.78 27.35 112.3 28.78L112.33 28.87L112.24 28.9L111.45 29.16L109.73 29.74L109.64 29.76L109.61 29.68C109.14 28.25 108.62 26.92 108.23 25.61L108.31 25.67C107.64 25.61 106.99 25.36 106.46 24.94C105.98 24.57 105.58 24.1 105.3 23.56C105.05 23.08 104.93 22.55 104.94 22.01C104.95 21.45 105.09 20.91 105.34 20.42C105.59 19.93 105.95 19.5 106.38 19.16C106.56 19.01 106.77 18.89 106.98 18.81C106.79 18.93 106.6 19.05 106.42 19.19C105.94 19.59 105.57 20.11 105.35 20.7C105.16 21.15 105.07 21.62 105.09 22.11C105.11 22.59 105.23 23.06 105.46 23.49C105.73 24 106.12 24.46 106.58 24.81C107.09 25.21 107.7 25.45 108.35 25.5L108.41 25.5L108.42 25.55C108.8 26.84 109.32 28.18 109.8 29.62L109.69 29.56L111.42 28.98L112.2 28.72L112.15 28.84C111.63 27.41 111.14 26.04 110.68 24.78L110.68 24.73L110.72 24.69C111.22 24.19 111.6 23.58 111.81 22.9C112 22.29 112 21.63 111.81 21.01C111.44 19.85 110.66 18.97 109.82 18.66C109.45 18.52 109.05 18.45 108.65 18.46C108.35 18.47 108.05 18.51 107.76 18.58C107.25 18.71 107.01 18.83 107.01 18.81Z" fill="#263238" fill-opacity="1.000000" fill-rule="nonzero"/>
	<path id="Vector" d="M96.34 118.44L61.87 118.29C59.88 118.27 57.98 117.47 56.58 116.06C55.17 114.65 54.39 112.73 54.4 110.74L54.77 24.34C54.77 23.35 54.97 22.37 55.35 21.46C55.73 20.55 56.29 19.73 56.99 19.04C57.69 18.34 58.52 17.79 59.43 17.42C60.35 17.05 61.32 16.86 62.31 16.86L96.77 17.02C98.76 17.03 100.67 17.83 102.07 19.24C103.47 20.66 104.26 22.57 104.25 24.56L103.88 110.96C103.88 111.95 103.68 112.93 103.3 113.84C102.92 114.75 102.36 115.57 101.66 116.27C100.96 116.96 100.13 117.51 99.22 117.88C98.3 118.26 97.33 118.45 96.34 118.44Z" fill="#455A64" fill-opacity="1.000000" fill-rule="nonzero"/>
	<path id="Vector" d="M96.72 19.99L90.04 19.99C89.82 20 89.61 20.04 89.41 20.13C89.21 20.22 89.03 20.34 88.88 20.5C88.73 20.66 88.61 20.84 88.53 21.04C88.45 21.25 88.41 21.46 88.41 21.68L88.41 22.89C88.42 23.11 88.38 23.33 88.3 23.53C88.22 23.73 88.1 23.92 87.95 24.07C87.8 24.23 87.62 24.36 87.42 24.44C87.22 24.53 87 24.58 86.78 24.58L73.76 24.52C73.32 24.51 72.9 24.32 72.6 24C72.3 23.68 72.13 23.26 72.14 22.82L72.14 21.61C72.15 21.17 71.99 20.74 71.69 20.42C71.39 20.1 70.97 19.91 70.53 19.9L68.18 19.9L62.33 19.87C60.94 19.87 59.6 20.41 58.61 21.38C57.62 22.36 57.05 23.69 57.04 25.08L56.7 109.42C56.69 110.11 56.82 110.8 57.09 111.43C57.35 112.07 57.73 112.65 58.22 113.14C58.7 113.63 59.28 114.02 59.92 114.29C60.55 114.56 61.24 114.7 61.93 114.7L96.32 114.86C97.01 114.86 97.7 114.73 98.34 114.47C98.98 114.21 99.56 113.82 100.05 113.34C100.54 112.85 100.93 112.27 101.2 111.64C101.46 111 101.6 110.32 101.61 109.62L101.95 25.28C101.96 23.89 101.41 22.55 100.43 21.56C99.45 20.56 98.12 20 96.72 19.99Z" fill="#FFFFFF" fill-opacity="1.000000" fill-rule="nonzero"/>
	<path id="Vector" d="M92.1 103.61L66.52 103.5C66.25 103.5 66.04 103.21 66.04 102.85L66.07 96.16C66.07 95.82 66.29 95.52 66.55 95.52L92.13 95.64C92.28 95.66 92.41 95.75 92.5 95.87C92.59 95.99 92.62 96.14 92.61 96.28L92.58 102.97C92.58 103.32 92.36 103.61 92.1 103.61Z" fill="#4CAF4F" fill-opacity="1.000000" fill-rule="nonzero"/>
	<path id="SING UP" d="M73.99 100.49Q74.14 100.53 74.29 100.53Q74.53 100.53 74.69 100.46Q74.85 100.39 74.93 100.27Q74.96 100.22 74.98 100.16Q75 100.09 75 100.01Q75 99.84 74.92 99.74Q74.92 99.74 74.91 99.73Q74.88 99.69 74.84 99.66Q74.77 99.61 74.7 99.58Q74.57 99.53 74.36 99.48Q74.18 99.43 74.08 99.4Q73.97 99.36 73.9 99.29Q73.89 99.27 73.87 99.25Q73.83 99.19 73.83 99.11Q73.83 99.04 73.86 98.98Q73.89 98.91 73.96 98.86Q74.09 98.76 74.34 98.76Q74.47 98.76 74.6 98.8Q74.65 98.82 74.7 98.84Q74.78 98.87 74.86 98.92L74.93 98.76Q74.81 98.68 74.65 98.64Q74.59 98.62 74.52 98.61Q74.43 98.59 74.34 98.59Q74.1 98.59 73.94 98.66Q73.79 98.73 73.71 98.85Q73.68 98.9 73.66 98.96Q73.64 99.03 73.64 99.11Q73.64 99.28 73.72 99.38Q73.72 99.39 73.73 99.39Q73.77 99.45 73.83 99.49Q73.88 99.52 73.94 99.55Q74.07 99.6 74.29 99.65Q74.47 99.69 74.57 99.73Q74.67 99.77 74.74 99.84Q74.75 99.85 74.77 99.87Q74.81 99.93 74.81 100.02Q74.81 100.08 74.78 100.14Q74.75 100.21 74.68 100.26Q74.55 100.36 74.29 100.36Q74.21 100.36 74.13 100.34Q74.03 100.33 73.94 100.29Q73.77 100.23 73.67 100.12L73.59 100.28Q73.69 100.39 73.89 100.46Q73.94 100.48 73.99 100.49ZM80 99.56L79.81 99.56L79.81 100.2Q79.78 100.22 79.76 100.23Q79.57 100.35 79.31 100.35Q79.12 100.35 78.96 100.28Q78.92 100.26 78.89 100.24Q78.79 100.19 78.71 100.1Q78.65 100.04 78.6 99.96Q78.58 99.91 78.56 99.86Q78.5 99.72 78.5 99.56Q78.5 99.4 78.55 99.26Q78.57 99.21 78.6 99.16Q78.65 99.07 78.72 99.01Q78.79 98.93 78.9 98.87Q78.93 98.86 78.96 98.84Q79.12 98.77 79.31 98.77Q79.54 98.77 79.72 98.87Q79.81 98.92 79.88 98.99L80.01 98.87Q79.98 98.83 79.94 98.8Q79.84 98.71 79.7 98.66Q79.52 98.59 79.3 98.59Q79.04 98.59 78.83 98.69Q78.81 98.71 78.79 98.72Q78.67 98.78 78.57 98.88Q78.49 98.96 78.43 99.06Q78.39 99.12 78.37 99.19Q78.3 99.36 78.3 99.56Q78.3 99.76 78.37 99.94Q78.4 100 78.43 100.06Q78.49 100.16 78.57 100.24Q78.66 100.33 78.79 100.4Q78.82 100.42 78.85 100.43Q79.05 100.53 79.3 100.53Q79.49 100.53 79.66 100.47Q79.67 100.47 79.68 100.46Q79.87 100.4 80 100.28L80 99.56ZM75.64 98.61L75.44 98.61L75.44 100.51L75.64 100.51L75.64 98.61ZM77.85 100.51L77.85 98.61L77.65 98.61L77.65 100.15L76.43 98.61L76.26 98.61L76.26 100.51L76.46 100.51L76.46 98.97L77.68 100.51L77.85 100.51ZM81.54 100.38Q81.73 100.53 82.04 100.53Q82.36 100.53 82.55 100.38Q82.59 100.35 82.62 100.31Q82.62 100.31 82.62 100.31Q82.82 100.1 82.82 99.7L82.82 98.61L82.63 98.61L82.63 99.69Q82.63 100.02 82.48 100.18Q82.46 100.21 82.43 100.23Q82.29 100.35 82.04 100.35Q81.8 100.35 81.66 100.23Q81.63 100.21 81.61 100.18Q81.46 100.02 81.46 99.69L81.46 98.61L81.26 98.61L81.26 99.7Q81.26 100.09 81.46 100.31Q81.46 100.31 81.47 100.31Q81.5 100.35 81.54 100.38ZM84.71 98.78Q84.5 98.61 84.14 98.61L83.43 98.61L83.43 100.51L83.63 100.51L83.63 99.91L84.14 99.91Q84.5 99.91 84.71 99.74Q84.78 99.68 84.82 99.61Q84.92 99.46 84.92 99.26Q84.92 99.06 84.82 98.91Q84.78 98.84 84.71 98.78ZM84.57 99.61Q84.42 99.73 84.13 99.73L83.63 99.73L83.63 98.78L84.13 98.78Q84.42 98.78 84.57 98.91Q84.6 98.94 84.63 98.98Q84.71 99.09 84.71 99.26Q84.71 99.42 84.64 99.53Q84.61 99.57 84.57 99.61Z" fill="#E8E8E3" fill-opacity="1.000000" fill-rule="evenodd"/>
	<path id="Vector" d="M62.75 44.74L71.62 44.78L71.61 46.41L62.74 46.37L62.75 44.74Z" fill="#4CAF4F" fill-opacity="1.000000" fill-rule="evenodd"/>
	<g opacity="0.100000">
		<path id="Vector" d="M62.75 44.74L71.62 44.78L71.61 46.41L62.74 46.37L62.75 44.74Z" fill="#000000" fill-opacity="1.000000" fill-rule="evenodd"/>
	</g>
	<path id="Vector" d="M97.64 54.78C97.71 54.78 97.77 54.76 97.84 54.74C97.94 54.7 98.02 54.63 98.08 54.55C98.14 54.47 98.18 54.37 98.19 54.27C98.19 53.72 98.19 52.92 98.19 51.89C98.19 51.38 98.19 50.8 98.19 50.17C98.19 50.01 98.19 49.85 98.19 49.69C98.21 49.53 98.17 49.37 98.09 49.24C98.04 49.17 97.98 49.12 97.91 49.08C97.84 49.05 97.76 49.03 97.68 49.02L97.14 49.02L92.15 49.02L63.29 48.92C63.22 48.92 63.15 48.93 63.08 48.97C63.01 49 62.96 49.05 62.91 49.11C62.83 49.24 62.8 49.4 62.82 49.56C62.82 49.9 62.82 50.25 62.82 50.59C62.82 51.28 62.82 51.97 62.82 52.66C62.82 53.01 62.82 53.36 62.82 53.7C62.81 53.86 62.81 54.02 62.82 54.18C62.84 54.25 62.88 54.32 62.92 54.37C62.97 54.42 63.03 54.47 63.09 54.49C63.16 54.52 63.23 54.53 63.31 54.53L65.06 54.53L72.73 54.57L85.7 54.65L94.45 54.72L96.83 54.75L97.44 54.75C97.58 54.75 97.65 54.75 97.65 54.75L97.44 54.75L96.83 54.75L94.45 54.75L85.7 54.75L72.73 54.71L65.06 54.68L63.31 54.68C63.21 54.68 63.11 54.66 63.02 54.63C62.93 54.59 62.85 54.53 62.79 54.46C62.72 54.38 62.68 54.29 62.65 54.2C62.63 54.11 62.62 54.01 62.63 53.92L62.63 53.67C62.63 53.32 62.63 52.98 62.63 52.63C62.63 51.94 62.63 51.25 62.63 50.56C62.63 50.22 62.63 49.87 62.63 49.52C62.62 49.43 62.62 49.34 62.63 49.25C62.64 49.15 62.68 49.05 62.74 48.97C62.8 48.89 62.88 48.82 62.97 48.77C63.07 48.73 63.17 48.7 63.27 48.7L92.13 48.86L97.12 48.9L97.65 48.9C97.75 48.9 97.84 48.92 97.93 48.96C98.01 49.01 98.08 49.07 98.14 49.15C98.23 49.3 98.27 49.48 98.25 49.66C98.25 49.82 98.25 49.98 98.25 50.14C98.25 50.76 98.25 51.34 98.25 51.86C98.25 52.9 98.22 53.69 98.22 54.24C98.21 54.35 98.17 54.45 98.11 54.53C98.04 54.62 97.95 54.68 97.85 54.72C97.79 54.76 97.71 54.78 97.64 54.78Z" fill="#E0E0E0" fill-opacity="1.000000" fill-rule="nonzero"/>
	<path id="Vector" d="M65.41 50.65L81.64 50.65L81.64 52.17L65.41 52.17L65.41 50.65Z" fill="#4CAF4F" fill-opacity="1.000000" fill-rule="evenodd"/>
	<g opacity="0.200000">
		<path id="Vector" d="M65.41 50.65L81.64 50.65L81.64 52.17L65.41 52.17L65.41 50.65Z" fill="#FFFFFF" fill-opacity="1.000000" fill-rule="evenodd"/>
	</g>
	<path id="Vector" d="M62.69 59.6L71.56 59.64L71.55 61.27L62.68 61.23L62.69 59.6Z" fill="#4CAF4F" fill-opacity="1.000000" fill-rule="evenodd"/>
	<g opacity="0.100000">
		<path id="Vector" d="M62.69 59.6L71.56 59.64L71.55 61.27L62.68 61.23L62.69 59.6Z" fill="#000000" fill-opacity="1.000000" fill-rule="evenodd"/>
	</g>
	<path id="Vector" d="M97.41 69.64C97.48 69.63 97.55 69.62 97.62 69.6C97.72 69.57 97.8 69.52 97.88 69.45C97.95 69.39 98.01 69.3 98.05 69.21C98.11 69.07 98.13 68.92 98.12 68.77C98.12 68.61 98.12 68.43 98.12 68.23C98.12 67.83 98.12 67.37 98.12 66.85L98.12 64.66C98.13 64.5 98.1 64.34 98.02 64.2C97.93 64.06 97.8 63.96 97.64 63.91C97.47 63.88 97.29 63.87 97.12 63.88L92.15 63.88L63.39 63.77C63.24 63.77 63.09 63.83 62.97 63.93C62.86 64.03 62.78 64.17 62.76 64.33C62.76 64.66 62.76 65.02 62.76 65.36C62.76 66.05 62.76 66.74 62.76 67.43C62.76 67.78 62.76 68.12 62.76 68.47C62.75 68.63 62.76 68.79 62.78 68.95C62.83 69.09 62.91 69.21 63.03 69.3C63.16 69.38 63.31 69.42 63.46 69.41L63.94 69.41L64.94 69.41L72.57 69.45L85.5 69.52L94.22 69.59L96.59 69.62L94.22 69.62L85.5 69.62L72.57 69.61L64.93 69.58L63.43 69.58C63.24 69.59 63.06 69.54 62.9 69.44C62.75 69.33 62.63 69.17 62.58 68.99C62.55 68.81 62.54 68.63 62.55 68.45C62.55 68.11 62.55 67.76 62.55 67.42C62.55 66.73 62.55 66.04 62.55 65.35C62.55 65 62.55 64.66 62.55 64.31C62.58 64.12 62.67 63.94 62.82 63.8C62.97 63.67 63.16 63.6 63.36 63.6L92.12 63.76L97.09 63.8C97.27 63.79 97.46 63.8 97.64 63.83C97.82 63.89 97.97 64.02 98.06 64.18C98.15 64.33 98.19 64.51 98.17 64.68C98.17 64.85 98.17 65 98.17 65.16C98.17 65.79 98.17 66.36 98.17 66.89C98.17 67.42 98.17 67.86 98.17 68.27C98.17 68.47 98.17 68.65 98.17 68.82C98.19 68.97 98.16 69.13 98.1 69.27C98.06 69.36 97.99 69.45 97.91 69.52C97.83 69.58 97.74 69.63 97.64 69.66C97.56 69.67 97.49 69.66 97.41 69.64Z" fill="#E0E0E0" fill-opacity="1.000000" fill-rule="nonzero"/>
	<path id="Vector" d="M62.62 75.1L71.49 75.14L71.49 76.77L62.61 76.73L62.62 75.1Z" fill="#4CAF4F" fill-opacity="1.000000" fill-rule="evenodd"/>
	<g opacity="0.100000">
		<path id="Vector" d="M62.62 75.1L71.49 75.14L71.49 76.77L62.61 76.73L62.62 75.1Z" fill="#000000" fill-opacity="1.000000" fill-rule="evenodd"/>
	</g>
	<path id="Vector" d="M97.34 85.14C97.41 85.13 97.48 85.12 97.55 85.1C97.65 85.07 97.73 85.02 97.81 84.95C97.88 84.89 97.94 84.8 97.99 84.71C98.04 84.57 98.06 84.42 98.05 84.27C98.05 84.1 98.05 83.93 98.05 83.72C98.05 83.33 98.05 82.87 98.05 82.34L98.05 80.15C98.06 79.99 98.03 79.83 97.95 79.7C97.86 79.56 97.73 79.46 97.57 79.41C97.4 79.38 97.22 79.36 97.05 79.38L92.08 79.38L63.32 79.27C63.17 79.27 63.02 79.33 62.9 79.43C62.79 79.53 62.71 79.67 62.69 79.82C62.69 80.17 62.69 80.51 62.69 80.86C62.69 81.55 62.69 82.24 62.69 82.93C62.69 83.28 62.69 83.62 62.69 83.97C62.68 84.13 62.69 84.29 62.71 84.45C62.75 84.59 62.84 84.71 62.97 84.79C63.09 84.87 63.24 84.91 63.39 84.9L64.89 84.9L72.53 84.94L85.46 85.02L94.18 85.09L96.55 85.12L94.18 85.12L85.46 85.12L72.53 85.08L64.89 85.05L63.39 85.05C63.21 85.06 63.02 85.01 62.87 84.91C62.71 84.8 62.59 84.64 62.54 84.46C62.51 84.28 62.5 84.1 62.51 83.92C62.51 83.58 62.51 83.23 62.51 82.89C62.51 82.2 62.51 81.51 62.51 80.82C62.51 80.47 62.51 80.13 62.51 79.77C62.54 79.57 62.63 79.39 62.78 79.26C62.93 79.12 63.12 79.05 63.32 79.05L92.08 79.21L97.05 79.25C97.23 79.24 97.42 79.25 97.6 79.29C97.78 79.34 97.93 79.47 98.02 79.63C98.11 79.78 98.15 79.96 98.13 80.14C98.13 80.3 98.13 80.46 98.13 80.61C98.13 81.24 98.13 81.81 98.13 82.34C98.13 82.87 98.13 83.31 98.13 83.72C98.13 83.92 98.13 84.1 98.13 84.27C98.15 84.42 98.12 84.58 98.06 84.72C98.02 84.82 97.95 84.9 97.87 84.97C97.79 85.04 97.7 85.09 97.6 85.11C97.51 85.14 97.43 85.15 97.34 85.14Z" fill="#E0E0E0" fill-opacity="1.000000" fill-rule="nonzero"/>
	<path id="Vector" d="M65.07 65.86L81.3 65.94L81.29 67.46L65.06 67.39L65.07 65.86Z" fill="#4CAF4F" fill-opacity="1.000000" fill-rule="evenodd"/>
	<g opacity="0.200000">
		<path id="Vector" d="M65.07 65.86L81.3 65.94L81.29 67.46L65.06 67.39L65.07 65.86Z" fill="#FFFFFF" fill-opacity="1.000000" fill-rule="evenodd"/>
	</g>
	<path id="Vector" d="M66.53 82.32C66.52 82.46 66.47 82.59 66.39 82.7C66.3 82.81 66.19 82.9 66.06 82.94C65.92 82.99 65.78 82.99 65.65 82.96C65.51 82.92 65.39 82.85 65.3 82.75C65.2 82.64 65.14 82.52 65.12 82.38C65.1 82.24 65.12 82.1 65.18 81.97C65.24 81.85 65.33 81.74 65.45 81.67C65.57 81.59 65.7 81.56 65.84 81.56C66.04 81.57 66.22 81.66 66.34 81.8C66.47 81.94 66.54 82.13 66.53 82.32Z" fill="#4CAF4F" fill-opacity="1.000000" fill-rule="nonzero"/>
	<path id="Vector" d="M68.73 82.33C68.74 82.43 68.72 82.53 68.69 82.62C68.66 82.71 68.61 82.8 68.54 82.87C68.48 82.94 68.39 83 68.31 83.03C68.22 83.07 68.12 83.09 68.02 83.09C67.92 83.09 67.83 83.07 67.74 83.03C67.65 83 67.57 82.94 67.5 82.87C67.44 82.8 67.38 82.71 67.35 82.62C67.32 82.53 67.31 82.43 67.31 82.33C67.31 82.24 67.32 82.14 67.35 82.05C67.38 81.95 67.44 81.87 67.5 81.8C67.57 81.73 67.65 81.67 67.74 81.63C67.83 81.59 67.92 81.57 68.02 81.57C68.12 81.57 68.22 81.59 68.31 81.63C68.39 81.67 68.48 81.73 68.54 81.8C68.61 81.87 68.66 81.95 68.69 82.05C68.72 82.14 68.74 82.24 68.73 82.33Z" fill="#4CAF4F" fill-opacity="1.000000" fill-rule="nonzero"/>
	<path id="Vector" d="M70.93 82.34C70.92 82.48 70.87 82.62 70.79 82.73C70.7 82.84 70.59 82.92 70.45 82.96C70.32 83.01 70.18 83.01 70.05 82.98C69.91 82.95 69.79 82.87 69.7 82.77C69.6 82.67 69.54 82.54 69.52 82.4C69.5 82.26 69.52 82.12 69.58 81.99C69.64 81.87 69.73 81.76 69.85 81.69C69.97 81.61 70.1 81.58 70.24 81.58C70.43 81.59 70.61 81.68 70.74 81.82C70.87 81.96 70.94 82.15 70.93 82.34Z" fill="#4CAF4F" fill-opacity="1.000000" fill-rule="nonzero"/>
	<path id="Vector" d="M73.13 82.35C73.12 82.49 73.07 82.63 72.98 82.74C72.9 82.85 72.78 82.93 72.65 82.97C72.52 83.02 72.38 83.02 72.24 82.99C72.11 82.96 71.99 82.88 71.89 82.78C71.8 82.68 71.74 82.55 71.72 82.41C71.7 82.27 71.72 82.13 71.78 82.01C71.83 81.88 71.93 81.77 72.05 81.7C72.16 81.62 72.3 81.59 72.44 81.59C72.63 81.6 72.81 81.69 72.94 81.83C73.07 81.97 73.14 82.16 73.13 82.35Z" fill="#4CAF4F" fill-opacity="1.000000" fill-rule="nonzero"/>
	<path id="Vector" d="M75.33 82.36C75.32 82.5 75.27 82.63 75.18 82.74C75.1 82.85 74.98 82.94 74.85 82.98C74.72 83.03 74.58 83.04 74.44 83C74.31 82.97 74.19 82.89 74.09 82.79C74 82.69 73.94 82.56 73.92 82.42C73.9 82.28 73.92 82.14 73.97 82.02C74.03 81.89 74.13 81.78 74.24 81.71C74.36 81.64 74.5 81.6 74.64 81.6C74.83 81.61 75.01 81.7 75.14 81.84C75.27 81.98 75.34 82.17 75.33 82.36Z" fill="#4CAF4F" fill-opacity="1.000000" fill-rule="nonzero"/>
	<path id="Vector" d="M77.53 82.37C77.52 82.51 77.47 82.64 77.39 82.75C77.3 82.86 77.19 82.95 77.06 82.99C76.93 83.04 76.79 83.05 76.65 83.01C76.52 82.98 76.4 82.91 76.3 82.81C76.21 82.71 76.14 82.58 76.12 82.44C76.1 82.31 76.11 82.17 76.17 82.04C76.22 81.91 76.32 81.8 76.43 81.73C76.55 81.65 76.68 81.61 76.82 81.61C77.02 81.62 77.2 81.7 77.33 81.85C77.47 81.99 77.54 82.18 77.53 82.37Z" fill="#4CAF4F" fill-opacity="1.000000" fill-rule="nonzero"/>
	<path id="Vector" d="M79.73 82.38C79.73 82.48 79.72 82.58 79.69 82.67C79.66 82.76 79.61 82.84 79.54 82.92C79.47 82.99 79.39 83.04 79.3 83.08C79.21 83.12 79.12 83.14 79.02 83.14C78.92 83.14 78.83 83.12 78.74 83.08C78.65 83.04 78.57 82.99 78.5 82.92C78.43 82.84 78.38 82.76 78.35 82.67C78.32 82.58 78.3 82.48 78.31 82.38C78.3 82.28 78.32 82.19 78.35 82.09C78.38 82 78.43 81.92 78.5 81.85C78.57 81.78 78.65 81.72 78.74 81.68C78.83 81.64 78.92 81.62 79.02 81.62C79.12 81.62 79.21 81.64 79.3 81.68C79.39 81.72 79.47 81.78 79.54 81.85C79.61 81.92 79.66 82 79.69 82.09C79.72 82.19 79.73 82.28 79.73 82.38Z" fill="#4CAF4F" fill-opacity="1.000000" fill-rule="nonzero"/>
	<path id="Vector" d="M81.93 82.39C81.92 82.53 81.87 82.66 81.78 82.77C81.7 82.88 81.59 82.97 81.45 83.01C81.32 83.06 81.18 83.07 81.05 83.03C80.91 83 80.79 82.93 80.7 82.83C80.6 82.73 80.54 82.6 80.52 82.46C80.49 82.33 80.51 82.19 80.57 82.06C80.62 81.93 80.71 81.82 80.83 81.75C80.94 81.67 81.08 81.63 81.22 81.63C81.41 81.64 81.6 81.72 81.73 81.87C81.86 82.01 81.93 82.2 81.93 82.39Z" fill="#4CAF4F" fill-opacity="1.000000" fill-rule="nonzero"/>
	<path id="Vector" d="M84.12 82.4C84.11 82.54 84.06 82.67 83.98 82.79C83.9 82.9 83.78 82.98 83.65 83.03C83.52 83.07 83.37 83.08 83.24 83.04C83.1 83.01 82.98 82.93 82.89 82.83C82.8 82.73 82.73 82.6 82.71 82.46C82.69 82.33 82.71 82.18 82.77 82.06C82.83 81.93 82.92 81.82 83.04 81.75C83.16 81.68 83.29 81.64 83.43 81.64C83.63 81.65 83.8 81.74 83.93 81.88C84.06 82.02 84.13 82.21 84.12 82.4Z" fill="#4CAF4F" fill-opacity="1.000000" fill-rule="nonzero"/>
	<g opacity="0.200000">
		<path id="Vector" d="M66.53 82.32C66.52 82.46 66.47 82.59 66.39 82.7C66.3 82.81 66.19 82.9 66.06 82.94C65.92 82.99 65.78 82.99 65.65 82.96C65.51 82.92 65.39 82.85 65.3 82.75C65.2 82.64 65.14 82.52 65.12 82.38C65.1 82.24 65.12 82.1 65.18 81.97C65.24 81.85 65.33 81.74 65.45 81.67C65.57 81.59 65.7 81.56 65.84 81.56C66.04 81.57 66.22 81.66 66.34 81.8C66.47 81.94 66.54 82.13 66.53 82.32Z" fill="#FFFFFF" fill-opacity="1.000000" fill-rule="nonzero"/>
		<path id="Vector" d="M68.73 82.33C68.74 82.43 68.72 82.53 68.69 82.62C68.66 82.71 68.61 82.8 68.54 82.87C68.48 82.94 68.39 83 68.31 83.03C68.22 83.07 68.12 83.09 68.02 83.09C67.92 83.09 67.83 83.07 67.74 83.03C67.65 83 67.57 82.94 67.5 82.87C67.44 82.8 67.38 82.71 67.35 82.62C67.32 82.53 67.31 82.43 67.31 82.33C67.31 82.24 67.32 82.14 67.35 82.05C67.38 81.95 67.44 81.87 67.5 81.8C67.57 81.73 67.65 81.67 67.74 81.63C67.83 81.59 67.92 81.57 68.02 81.57C68.12 81.57 68.22 81.59 68.31 81.63C68.39 81.67 68.48 81.73 68.54 81.8C68.61 81.87 68.66 81.95 68.69 82.05C68.72 82.14 68.74 82.24 68.73 82.33Z" fill="#FFFFFF" fill-opacity="1.000000" fill-rule="nonzero"/>
		<path id="Vector" d="M70.93 82.34C70.92 82.48 70.87 82.62 70.79 82.73C70.7 82.84 70.59 82.92 70.45 82.96C70.32 83.01 70.18 83.01 70.05 82.98C69.91 82.95 69.79 82.87 69.7 82.77C69.6 82.67 69.54 82.54 69.52 82.4C69.5 82.26 69.52 82.12 69.58 81.99C69.64 81.87 69.73 81.76 69.85 81.69C69.97 81.61 70.1 81.58 70.24 81.58C70.43 81.59 70.61 81.68 70.74 81.82C70.87 81.96 70.94 82.15 70.93 82.34Z" fill="#FFFFFF" fill-opacity="1.000000" fill-rule="nonzero"/>
		<path id="Vector" d="M73.13 82.35C73.12 82.49 73.07 82.63 72.98 82.74C72.9 82.85 72.78 82.93 72.65 82.97C72.52 83.02 72.38 83.02 72.24 82.99C72.11 82.96 71.99 82.88 71.89 82.78C71.8 82.68 71.74 82.55 71.72 82.41C71.7 82.27 71.72 82.13 71.78 82.01C71.83 81.88 71.93 81.77 72.05 81.7C72.16 81.62 72.3 81.59 72.44 81.59C72.63 81.6 72.81 81.69 72.94 81.83C73.07 81.97 73.14 82.16 73.13 82.35Z" fill="#FFFFFF" fill-opacity="1.000000" fill-rule="nonzero"/>
		<path id="Vector" d="M75.33 82.36C75.32 82.5 75.27 82.63 75.18 82.74C75.1 82.85 74.98 82.94 74.85 82.98C74.72 83.03 74.58 83.04 74.44 83C74.31 82.97 74.19 82.89 74.09 82.79C74 82.69 73.94 82.56 73.92 82.42C73.9 82.28 73.92 82.14 73.97 82.02C74.03 81.89 74.13 81.78 74.24 81.71C74.36 81.64 74.5 81.6 74.64 81.6C74.83 81.61 75.01 81.7 75.14 81.84C75.27 81.98 75.34 82.17 75.33 82.36Z" fill="#FFFFFF" fill-opacity="1.000000" fill-rule="nonzero"/>
		<path id="Vector" d="M77.53 82.37C77.52 82.51 77.47 82.64 77.39 82.75C77.3 82.86 77.19 82.95 77.06 82.99C76.93 83.04 76.79 83.05 76.65 83.01C76.52 82.98 76.4 82.91 76.3 82.81C76.21 82.71 76.14 82.58 76.12 82.44C76.1 82.31 76.11 82.17 76.17 82.04C76.22 81.91 76.32 81.8 76.43 81.73C76.55 81.65 76.68 81.61 76.82 81.61C77.02 81.62 77.2 81.7 77.33 81.85C77.47 81.99 77.54 82.18 77.53 82.37Z" fill="#FFFFFF" fill-opacity="1.000000" fill-rule="nonzero"/>
		<path id="Vector" d="M79.73 82.38C79.73 82.48 79.72 82.58 79.69 82.67C79.66 82.76 79.61 82.84 79.54 82.92C79.47 82.99 79.39 83.04 79.3 83.08C79.21 83.12 79.12 83.14 79.02 83.14C78.92 83.14 78.82 83.12 78.74 83.08C78.65 83.04 78.57 82.99 78.5 82.92C78.43 82.84 78.38 82.76 78.35 82.67C78.32 82.58 78.3 82.48 78.31 82.38C78.3 82.28 78.32 82.19 78.35 82.09C78.38 82 78.43 81.92 78.5 81.85C78.57 81.78 78.65 81.72 78.74 81.68C78.82 81.64 78.92 81.62 79.02 81.62C79.12 81.62 79.21 81.64 79.3 81.68C79.39 81.72 79.47 81.78 79.54 81.85C79.61 81.92 79.66 82 79.69 82.09C79.72 82.19 79.73 82.28 79.73 82.38Z" fill="#FFFFFF" fill-opacity="1.000000" fill-rule="nonzero"/>
		<path id="Vector" d="M81.93 82.39C81.92 82.53 81.87 82.66 81.78 82.77C81.7 82.88 81.59 82.97 81.45 83.01C81.32 83.06 81.18 83.07 81.05 83.03C80.91 83 80.79 82.93 80.7 82.83C80.6 82.73 80.54 82.6 80.52 82.46C80.49 82.33 80.51 82.19 80.57 82.06C80.62 81.93 80.71 81.82 80.83 81.75C80.94 81.67 81.08 81.63 81.22 81.63C81.41 81.64 81.6 81.72 81.73 81.87C81.86 82.01 81.93 82.2 81.93 82.39Z" fill="#FFFFFF" fill-opacity="1.000000" fill-rule="nonzero"/>
		<path id="Vector" d="M84.12 82.4C84.11 82.54 84.06 82.67 83.98 82.79C83.9 82.9 83.78 82.98 83.65 83.03C83.52 83.07 83.37 83.08 83.24 83.04C83.1 83.01 82.98 82.93 82.89 82.83C82.8 82.73 82.73 82.6 82.71 82.46C82.69 82.33 82.71 82.18 82.77 82.06C82.83 81.93 82.92 81.82 83.04 81.75C83.16 81.68 83.29 81.64 83.43 81.64C83.63 81.65 83.8 81.74 83.93 81.88C84.06 82.02 84.13 82.21 84.12 82.4Z" fill="#FFFFFF" fill-opacity="1.000000" fill-rule="nonzero"/>
	</g>
	<path id="Vector" d="M81 32.59C81.24 32.48 81.44 32.31 81.59 32.09C81.73 31.87 81.8 31.61 81.8 31.35C81.81 31.18 81.78 31.01 81.72 30.85C81.66 30.69 81.57 30.54 81.46 30.42C81.34 30.3 81.2 30.2 81.04 30.13C80.88 30.06 80.71 30.03 80.54 30.03C80.37 30.03 80.2 30.06 80.05 30.13C79.89 30.2 79.75 30.3 79.63 30.42C79.52 30.54 79.42 30.69 79.37 30.85C79.31 31.01 79.28 31.18 79.29 31.35C79.28 31.62 79.36 31.88 79.5 32.1C79.64 32.32 79.85 32.5 80.09 32.6C78.16 32.89 78.24 34.99 78.24 34.99L82.81 35.01C82.81 35.01 82.92 32.88 81 32.59Z" fill="#4CAF4F" fill-opacity="1.000000" fill-rule="nonzero"/>
	<g opacity="0.100000">
		<path id="Vector" d="M81 32.59C81.24 32.48 81.44 32.31 81.59 32.09C81.73 31.87 81.8 31.61 81.8 31.35C81.81 31.18 81.78 31.01 81.72 30.85C81.66 30.69 81.57 30.54 81.46 30.42C81.34 30.3 81.2 30.2 81.04 30.13C80.88 30.06 80.71 30.03 80.54 30.03C80.37 30.03 80.2 30.06 80.05 30.13C79.89 30.2 79.75 30.3 79.63 30.42C79.52 30.54 79.42 30.69 79.37 30.85C79.31 31.01 79.28 31.18 79.29 31.35C79.28 31.62 79.36 31.88 79.5 32.1C79.64 32.32 79.85 32.5 80.09 32.6C78.16 32.89 78.24 34.99 78.24 34.99L82.81 35.01C82.81 35.01 82.92 32.88 81 32.59Z" fill="#000000" fill-opacity="1.000000" fill-rule="nonzero"/>
	</g>
	<path id="Vector" d="M72.14 36.29L88.43 36.36L88.42 38.31L72.13 38.24L72.14 36.29Z" fill="#4CAF4F" fill-opacity="1.000000" fill-rule="evenodd"/>
	<g opacity="0.200000">
		<path id="Vector" d="M72.14 36.29L88.43 36.36L88.42 38.31L72.13 38.24L72.14 36.29Z" fill="#FFFFFF" fill-opacity="1.000000" fill-rule="evenodd"/>
	</g>
	<path id="Vector" d="M28.56 46.45L28.4 46.45L27.93 46.49C27.68 46.5 27.42 46.53 27.18 46.59C27.01 46.61 26.85 46.64 26.7 46.68L26.16 46.83C25.25 47.11 24.39 47.53 23.62 48.09C22.6 48.83 21.74 49.78 21.11 50.87C20.74 51.51 20.45 52.18 20.24 52.88C20.01 53.64 19.88 54.43 19.85 55.22C19.83 55.63 19.84 56.05 19.87 56.47C19.87 56.68 19.93 56.89 19.96 57.1C19.98 57.32 20.02 57.53 20.08 57.74C20.39 59.13 21.02 60.42 21.92 61.52C22.82 62.61 23.96 63.49 25.26 64.07C26.19 64.47 27.2 64.7 28.22 64.73C29.28 64.79 30.33 64.64 31.33 64.29L31.63 64.17L31.67 64.17L31.71 64.19L36.06 66.4L35.93 66.51C35.46 65.07 35.02 63.67 34.58 62.33L34.58 62.28L34.62 62.24C35.67 61.18 36.46 59.88 36.9 58.44C37.31 57.14 37.42 55.76 37.25 54.4C37.09 53.19 36.7 52.03 36.11 50.97C35.59 50.06 34.93 49.24 34.14 48.56C33.49 48.01 32.77 47.55 32 47.2C31.42 46.95 30.82 46.75 30.19 46.63L29.5 46.51L29 46.47L28.7 46.45L28.6 46.45C28.63 46.45 28.67 46.45 28.7 46.45L29.01 46.45L29.51 46.47L30.2 46.57C30.83 46.69 31.44 46.88 32.03 47.12C32.81 47.48 33.54 47.93 34.2 48.48C35.01 49.17 35.68 49.98 36.21 50.89C36.83 51.97 37.23 53.15 37.39 54.37C37.58 55.75 37.47 57.15 37.07 58.48C36.62 59.94 35.82 61.27 34.75 62.36L34.77 62.27C35.21 63.61 35.66 65.01 36.13 66.45L36.19 66.66L36 66.56L31.64 64.35L31.72 64.35L31.41 64.47C30.39 64.82 29.32 64.98 28.25 64.92C27.2 64.88 26.18 64.65 25.22 64.23C23.39 63.45 21.87 62.09 20.9 60.36C20.44 59.57 20.12 58.7 19.92 57.81C19.86 57.6 19.82 57.38 19.8 57.16C19.77 56.94 19.73 56.73 19.72 56.51C19.62 55.28 19.75 54.05 20.1 52.87C20.32 52.16 20.62 51.48 21 50.84C21.64 49.73 22.51 48.78 23.56 48.03C24.34 47.48 25.22 47.06 26.14 46.79L26.68 46.65C26.84 46.61 27 46.58 27.17 46.56C27.42 46.51 27.67 46.49 27.93 46.48L28.4 46.46C28.45 46.45 28.51 46.45 28.56 46.45Z" fill="#4CAF4F" fill-opacity="1.000000" fill-rule="nonzero"/>
	<path id="Vector" d="M30.53 54.5L29.89 54.5L28.51 52.56L28.51 51.28C28.51 51.28 27.52 51.22 27.64 52.89C27.76 54.56 27.64 54.13 27.64 54.13C27.64 54.13 25.55 54.13 25.37 54.32C25.2 54.51 25.19 56.53 25.17 57.66C25.15 57.93 25.23 58.2 25.39 58.42C25.55 58.65 25.77 58.81 26.03 58.89C26.11 58.91 26.18 58.92 26.26 58.92C26.78 58.92 29.45 58.5 29.45 58.5L30.55 58.5L30.53 54.5Z" fill="#4CAF4F" fill-opacity="1.000000" fill-rule="nonzero"/>
	<path id="Vector" d="M32.35 54.16L31.96 58.52L30.87 58.52L30.87 54.25L32.35 54.16Z" fill="#4CAF4F" fill-opacity="1.000000" fill-rule="nonzero"/>
	<path id="Vector" d="M45.36 142.95L45.36 140L40.07 139.96L40.03 144.42L40.35 144.45C41.81 144.54 47.78 144.68 48.76 144.38C49.85 144.04 45.36 142.95 45.36 142.95Z" fill="#4CAF4F" fill-opacity="1.000000" fill-rule="nonzero"/>
	<path id="Vector" d="M48.88 144.1C48.88 144.15 46.9 144.19 44.46 144.19C42.02 144.19 40.04 144.15 40.04 144.1C40.04 144.05 42.02 144.01 44.46 144.01C46.9 144.01 48.88 144.05 48.88 144.1Z" fill="#263238" fill-opacity="1.000000" fill-rule="nonzero"/>
	<path id="Vector" d="M45.45 143.55C45.41 143.53 45.45 143.37 45.56 143.21C45.67 143.04 45.81 142.97 45.85 143.01C45.88 143.04 45.81 143.17 45.71 143.32C45.6 143.46 45.5 143.58 45.45 143.55Z" fill="#263238" fill-opacity="1.000000" fill-rule="nonzero"/>
	<path id="Vector" d="M45.79 143.75C45.74 143.75 45.77 143.55 45.87 143.37C45.97 143.19 46.11 143.08 46.15 143.11C46.19 143.13 46.13 143.29 46.03 143.45C45.93 143.61 45.84 143.76 45.79 143.75Z" fill="#263238" fill-opacity="1.000000" fill-rule="nonzero"/>
	<path id="Vector" d="M41.64 144.09C41.62 144.09 41.54 144.02 41.42 143.89C41.28 143.72 41.13 143.57 40.96 143.43C40.79 143.3 40.6 143.21 40.39 143.18C40.23 143.16 40.12 143.18 40.11 143.16C40.1 143.14 40.2 143.06 40.39 143.05C40.64 143.05 40.89 143.13 41.08 143.28C41.26 143.43 41.42 143.62 41.54 143.82C41.62 143.97 41.66 144.07 41.64 144.09Z" fill="#263238" fill-opacity="1.000000" fill-rule="nonzero"/>
	<path id="Vector" d="M45.47 143C45.49 143.04 45.4 143.14 45.25 143.2C45.1 143.25 44.97 143.23 44.96 143.2C44.95 143.16 45.06 143.09 45.19 143.04C45.32 143 45.44 142.96 45.47 143Z" fill="#263238" fill-opacity="1.000000" fill-rule="nonzero"/>
	<path id="Vector" d="M45.39 142.71C45.39 142.76 45.25 142.81 45.07 142.81C44.89 142.81 44.75 142.77 44.75 142.72C44.76 142.67 44.9 142.63 45.07 142.63C45.24 142.62 45.38 142.66 45.39 142.71Z" fill="#263238" fill-opacity="1.000000" fill-rule="nonzero"/>
	<path id="Vector" d="M58.39 142.95L58.39 140L53.1 139.96L53.05 144.38L53.38 144.4C54.84 144.5 60.81 144.68 61.78 144.38C62.88 144.04 58.39 142.95 58.39 142.95Z" fill="#4CAF4F" fill-opacity="1.000000" fill-rule="nonzero"/>
	<path id="Vector" d="M61.91 144.11C61.91 144.15 59.93 144.2 57.49 144.2C55.05 144.2 53.07 144.15 53.07 144.11C53.07 144.06 55.05 144.02 57.49 144.02C59.93 144.02 61.91 144.06 61.91 144.11Z" fill="#263238" fill-opacity="1.000000" fill-rule="nonzero"/>
	<path id="Vector" d="M58.48 143.55C58.44 143.53 58.48 143.37 58.59 143.21C58.69 143.04 58.84 142.97 58.87 143.01C58.91 143.04 58.83 143.17 58.73 143.32C58.63 143.46 58.52 143.58 58.48 143.55Z" fill="#263238" fill-opacity="1.000000" fill-rule="nonzero"/>
	<path id="Vector" d="M58.82 143.75C58.77 143.75 58.79 143.55 58.9 143.37C59.01 143.19 59.14 143.08 59.18 143.11C59.22 143.13 59.15 143.29 59.06 143.45C58.96 143.61 58.87 143.76 58.82 143.75Z" fill="#263238" fill-opacity="1.000000" fill-rule="nonzero"/>
	<path id="Vector" d="M54.66 144.09C54.64 144.09 54.57 144.02 54.45 143.89C54.31 143.72 54.16 143.57 53.99 143.43C53.82 143.3 53.62 143.21 53.41 143.18C53.26 143.16 53.15 143.18 53.14 143.16C53.13 143.14 53.23 143.06 53.42 143.05C53.67 143.05 53.91 143.13 54.11 143.28C54.29 143.43 54.45 143.61 54.56 143.82C54.64 143.97 54.68 144.07 54.66 144.09Z" fill="#263238" fill-opacity="1.000000" fill-rule="nonzero"/>
	<path id="Vector" d="M58.5 143C58.52 143.04 58.43 143.14 58.28 143.2C58.13 143.25 57.99 143.23 57.99 143.2C57.98 143.16 58.09 143.09 58.22 143.04C58.35 143 58.47 142.96 58.5 143Z" fill="#263238" fill-opacity="1.000000" fill-rule="nonzero"/>
	<path id="Vector" d="M58.42 142.71C58.42 142.76 58.28 142.81 58.1 142.81C57.92 142.81 57.79 142.77 57.79 142.72C57.79 142.67 57.93 142.63 58.1 142.63C58.28 142.62 58.42 142.66 58.42 142.71Z" fill="#263238" fill-opacity="1.000000" fill-rule="nonzero"/>
	<path id="Vector" d="M77.87 55.34C77.74 55.2 77.4 55.27 77.4 55.27C77.43 55.07 77.43 54.87 77.4 54.67C77.33 54.47 76.9 54.51 76.9 54.51C76.88 54.35 76.88 54.18 76.9 54.02C76.9 53.99 76.89 53.95 76.88 53.92C76.86 53.89 76.83 53.86 76.8 53.85C76.59 53.76 76.37 53.72 76.15 53.73C75.88 53.54 76.96 52.03 77.36 51.55C77.76 51.06 77.69 50.69 77.33 50.69C77.09 50.69 75.83 52.14 75.45 52.62C75.06 53.11 74.03 54.46 74 53.38C73.97 52.3 73.53 51.49 73.26 51.35C72.99 51.21 72.7 51.54 72.84 51.84C72.97 52.18 73.06 52.54 73.09 52.9C73.12 53.19 73.11 53.48 73.05 53.77C72.93 54.3 72.78 54.82 72.58 55.33L72.55 55.33C72.55 55.33 65.03 62.55 64.48 63.07C63.99 63.53 54.21 62.52 52.24 62.31C51.58 62.21 50.9 62.17 50.23 62.17C49.38 62.21 49.22 62.33 48.38 62.34C46.23 62.36 44.09 62.55 41.98 62.9C41.02 63.07 40.13 63.49 39.39 64.12C38.66 64.76 38.11 65.59 37.82 66.51C35.84 72.69 31.36 87.31 30.57 95.52C29.97 96.6 29.43 97.72 28.96 98.86C28.4 100.37 28.53 100.42 28.72 100.46C29.23 100.55 29.8 97.84 30.01 98.49C30.23 99.15 28.92 101.73 29.45 101.8C30.14 101.9 30.69 99.04 30.76 98.81C30.82 98.59 31.16 98.66 31.1 98.87C31 99.18 30.03 102.4 30.71 102.5C31.08 102.55 31.12 101.87 31.12 101.87C31.12 101.87 31.81 98.79 32.13 98.85C32.44 98.92 32.11 100.74 31.95 101.34C31.79 101.95 32.01 102.26 32.33 102.11C32.55 102.01 33.08 100.16 33.23 99.56C33.37 98.96 33.74 97.3 34.22 98.26C34.71 99.22 35.45 99.78 35.75 99.79C35.82 99.79 35.88 99.76 35.94 99.71C35.99 99.67 36.03 99.61 36.04 99.54C36.06 99.48 36.06 99.4 36.04 99.34C36.02 99.27 35.97 99.22 35.92 99.18C35.66 98.92 35.43 98.63 35.25 98.31C35.09 98.07 34.98 97.79 34.91 97.51C34.77 96.93 34.69 96.35 34.67 95.76L34.61 95.41C35.38 91.59 37.61 80.36 40.82 73.18L42.14 75.89L42.71 77.9L39.2 86.57L54.18 86.38L51.95 77.77L54.66 68.8C57.6 68.87 65.14 68.98 66.39 68.41C67.98 67.72 76.15 57.39 76.15 57.39C76.68 56.98 77.19 56.54 77.68 56.07C77.68 56.07 78.18 55.65 77.87 55.34Z" fill="#FFBE9D" fill-opacity="1.000000" fill-rule="nonzero"/>
	<path id="Vector" d="M38.54 80.17C38.98 78.68 41.21 71.35 41.21 71.35C41.21 71.35 42.31 77.33 42.02 78.05C41.75 78.66 41.43 79.26 41.07 79.83C38.54 83.68 38.87 85.61 38.87 85.61L54.18 85.15C54.21 83.01 52.94 78.03 52.68 77.24C52.42 76.44 53.29 73.84 53.29 73.84C53.29 73.84 55.02 72.09 54.96 71.18C54.92 70.37 54.82 69.56 54.66 68.77L63.97 69.11L63.68 62.8L50.3 61.46C49.83 62.78 45.62 62.13 45.62 62.13C41.07 62.28 40.79 63.12 38.9 64.59C37.01 66.06 33.88 78.67 33.88 78.67L38.54 80.17Z" fill="#4CAF4F" fill-opacity="1.000000" fill-rule="nonzero"/>
	<path id="Vector" d="M47.59 78.67C47.32 78.72 47.05 78.73 46.79 78.71C46.28 78.71 45.6 78.68 44.84 78.6C44.09 78.53 43.4 78.42 42.92 78.32C42.65 78.29 42.39 78.22 42.13 78.12C42.4 78.12 42.67 78.15 42.94 78.2C43.43 78.26 44.11 78.35 44.86 78.42C45.61 78.5 46.3 78.55 46.79 78.59C47.06 78.59 47.33 78.62 47.59 78.67Z" fill="#263238" fill-opacity="1.000000" fill-rule="nonzero"/>
	<path id="Vector" d="M48.64 77.37C48.37 77.5 48.09 77.6 47.8 77.66C46.43 78.02 45.01 78.19 43.58 78.16C43.29 78.17 42.99 78.14 42.71 78.08C43 78.04 43.29 78.02 43.58 78.03C44.12 78.01 44.87 77.98 45.69 77.88C46.51 77.78 47.24 77.64 47.76 77.53C48.05 77.46 48.34 77.4 48.64 77.37Z" fill="#263238" fill-opacity="1.000000" fill-rule="nonzero"/>
	<path id="Vector" d="M53.79 71.57C53.78 71.83 53.74 72.09 53.68 72.35C53.59 72.83 53.45 73.48 53.28 74.2C53.1 74.92 52.93 75.58 52.78 76.03C52.72 76.29 52.63 76.53 52.51 76.77C52.53 76.51 52.58 76.25 52.65 76C52.79 75.46 52.93 74.84 53.1 74.16C53.27 73.48 53.42 72.86 53.56 72.32C53.6 72.06 53.68 71.81 53.79 71.57Z" fill="#263238" fill-opacity="1.000000" fill-rule="nonzero"/>
	<path id="Vector" d="M38.7 79.29C37.91 79.16 37.12 78.98 36.35 78.74C35.56 78.55 34.79 78.31 34.04 78.01C34.83 78.14 35.62 78.32 36.39 78.56C37.18 78.75 37.95 78.99 38.7 79.29Z" fill="#263238" fill-opacity="1.000000" fill-rule="nonzero"/>
	<path id="Vector" d="M54.82 68.69C54.69 68.72 54.56 68.72 54.43 68.69C54.07 68.66 53.71 68.57 53.38 68.44C52.81 68.23 52.3 67.9 51.87 67.48C51.44 67.06 51.1 66.55 50.88 65.99C50.63 65.37 50.53 64.71 50.57 64.05C50.59 63.5 50.75 62.97 51.04 62.51C51.25 62.2 51.56 61.97 51.92 61.86C52.01 61.83 52.11 61.82 52.21 61.82C52.28 61.82 52.31 61.82 52.31 61.82C52.31 61.82 52.17 61.82 51.94 61.92C51.61 62.04 51.33 62.26 51.15 62.56C50.68 63.3 50.55 64.65 51.05 65.91C51.28 66.5 51.64 67.04 52.11 67.47C52.5 67.82 52.94 68.11 53.42 68.31C53.87 68.49 54.34 68.62 54.82 68.69Z" fill="#263238" fill-opacity="1.000000" fill-rule="nonzero"/>
	<path id="Vector" d="M62.86 68.99C62.78 67.93 62.75 66.87 62.78 65.81C62.76 64.75 62.79 63.69 62.88 62.63C62.97 63.69 62.99 64.75 62.96 65.81C62.99 66.87 62.96 67.93 62.86 68.99Z" fill="#263238" fill-opacity="1.000000" fill-rule="nonzero"/>
	<path id="Vector" d="M50.21 61.85C50.25 61.08 50.33 60.21 50.33 60.21C50.33 60.21 52.23 60 52.34 58.03C52.46 56.06 52.34 51.53 52.34 51.53L48.89 49.76L45.06 52.77L45.65 62.61L49.17 62.83C49.43 62.84 49.7 62.74 49.89 62.55C50.09 62.37 50.2 62.12 50.21 61.85Z" fill="#FFBE9D" fill-opacity="1.000000" fill-rule="nonzero"/>
	<path id="Vector" d="M50.55 56.47C50.55 56.47 50.55 56.51 50.52 56.56C50.49 56.59 50.46 56.62 50.42 56.63C50.38 56.65 50.34 56.66 50.3 56.65C50.08 56.65 49.87 56.4 49.79 56.1C49.75 55.96 49.75 55.81 49.79 55.66C49.8 55.6 49.82 55.54 49.86 55.49C49.89 55.44 49.94 55.4 50 55.37C50.04 55.35 50.1 55.35 50.14 55.37C50.18 55.38 50.2 55.41 50.22 55.45C50.25 55.5 50.22 55.54 50.22 55.54C50.22 55.54 50.22 55.5 50.19 55.47C50.17 55.45 50.14 55.43 50.11 55.42C50.08 55.42 50.05 55.42 50.03 55.44C49.98 55.46 49.95 55.5 49.92 55.54C49.9 55.58 49.88 55.63 49.88 55.68C49.85 55.81 49.85 55.94 49.88 56.07C49.95 56.34 50.14 56.56 50.3 56.58C50.34 56.58 50.37 56.58 50.4 56.57C50.43 56.56 50.46 56.55 50.49 56.53C50.53 56.5 50.54 56.47 50.55 56.47Z" fill="#EB996E" fill-opacity="1.000000" fill-rule="nonzero"/>
	<path id="Vector" d="M53.53 50.46C53.26 49.56 52.3 49.11 51.42 48.86C50.09 48.48 48.64 48.32 47.34 48.8C46.04 49.28 44.47 50.12 44.47 51.56C43.7 51.5 43.26 52.17 42.95 53C42.76 53.51 42.64 54.05 42.61 54.59C42.51 56.47 41.99 59.08 40.76 60.46C40.07 61.23 39.12 61.76 38.72 62.72C38.38 63.55 38.56 64.54 38.24 65.38C37.95 66.12 37.32 66.65 36.86 67.29C36.39 68.02 36.11 68.86 36.05 69.73C35.99 70.6 36.16 71.47 36.53 72.26C36.9 73.02 37.43 73.71 38.08 74.27C38.72 74.82 39.47 75.24 40.29 75.5C41.9 75.99 43.62 76.01 45.24 75.55C46.46 75.26 47.59 74.7 48.56 73.9C49.55 73.09 50.23 71.97 50.48 70.72C50.73 69.31 50.34 67.88 50.04 66.47C49.12 62.05 49.39 61.82 50.55 57.71C50.57 57.63 50.59 57.56 50.61 57.49C50.63 57.41 50.64 57.38 50.65 57.32C50.69 57.16 50.7 57 50.71 56.83C50.54 56.89 50.35 56.91 50.18 56.87C50 56.83 49.84 56.74 49.71 56.62C49.58 56.48 49.49 56.31 49.45 56.13C49.41 55.95 49.42 55.76 49.47 55.58C49.55 55.39 49.68 55.21 49.83 55.07C49.98 54.92 50.16 54.81 50.36 54.74C50.75 54.58 51.16 54.5 51.53 54.32C52.33 53.95 52.88 53.16 53.26 52.33C53.57 51.76 53.66 51.1 53.53 50.46Z" fill="#263238" fill-opacity="1.000000" fill-rule="nonzero"/>
	<path id="Vector" d="M50.69 56.57C50.76 56.68 50.82 56.79 50.87 56.91C50.97 57.13 51.11 57.44 51.26 57.79L51.29 57.86L51.22 57.86L50.87 57.89C50.63 57.89 50.43 57.93 50.2 57.93C50.18 57.93 50.16 57.92 50.14 57.9C50.13 57.89 50.12 57.87 50.11 57.85C50.1 57.82 50.1 57.79 50.11 57.75C50.12 57.71 50.13 57.66 50.14 57.62L50.2 57.37C50.23 57.21 50.28 57.05 50.35 56.9C50.34 57.06 50.32 57.23 50.27 57.39L50.23 57.63C50.21 57.72 50.18 57.84 50.23 57.83C50.4 57.83 50.64 57.8 50.87 57.78L51.22 57.75L51.17 57.83C51.02 57.48 50.9 57.16 50.83 56.93C50.76 56.82 50.72 56.7 50.69 56.57Z" fill="#4CAF4F" fill-opacity="1.000000" fill-rule="nonzero"/>
	<path id="Vector" d="M38.87 85.61L54.18 85.15L60.84 111.14L59.61 140.96L51.52 140.96L52.51 111.78L46.59 93.68L47.5 142.12L39.33 142.24L38.47 96.71C38.43 95.44 38.01 92.59 38.17 91.33L38.87 85.61Z" fill="#263238" fill-opacity="1.000000" fill-rule="nonzero"/>
	<path id="Vector" d="M48.63 94.05C48.38 94.06 48.13 94.05 47.88 94C47.42 93.95 46.79 93.85 46.09 93.71C45.4 93.58 44.78 93.42 44.33 93.29C44.09 93.24 43.86 93.15 43.64 93.04C43.64 92.99 44.76 93.26 46.14 93.54C47.52 93.82 48.63 94 48.63 94.05Z" fill="#455A64" fill-opacity="1.000000" fill-rule="nonzero"/>
	<path id="Vector" d="M59.53 139.33C59.53 139.38 57.7 139.42 55.44 139.42C53.18 139.42 51.34 139.38 51.34 139.33C51.34 139.28 53.17 139.24 55.44 139.24C57.7 139.24 59.53 139.28 59.53 139.33Z" fill="#455A64" fill-opacity="1.000000" fill-rule="nonzero"/>
	<path id="Vector" d="M47.43 140.86C47.43 140.91 45.65 140.95 43.46 140.95C41.26 140.95 39.48 140.91 39.48 140.86C39.48 140.81 41.26 140.77 43.46 140.77C45.65 140.77 47.43 140.81 47.43 140.86Z" fill="#455A64" fill-opacity="1.000000" fill-rule="nonzero"/>
	<path id="Vector" d="M46.37 140.74C46.33 140.74 46.11 130.15 45.89 117.1C45.68 104.04 45.55 93.45 45.59 93.45C45.64 93.45 45.86 104.03 46.07 117.09C46.29 130.16 46.43 140.74 46.37 140.74Z" fill="#455A64" fill-opacity="1.000000" fill-rule="nonzero"/>
	<path id="Vector" d="M58.44 139.33C58.44 139.28 58.44 139.23 58.44 139.19L58.44 138.77C58.44 138.4 58.47 137.86 58.49 137.18C58.54 135.8 58.61 133.8 58.69 131.34C58.88 126.4 59.14 119.59 59.43 112.07C59.43 112 59.43 111.93 59.43 111.87L59.43 111.89C57.62 104.65 55.98 98.07 54.79 93.31L53.41 87.68C53.25 87.02 53.13 86.51 53.04 86.15C53 85.98 52.97 85.85 52.95 85.75C52.93 85.7 52.93 85.66 52.92 85.61C52.94 85.65 52.96 85.7 52.97 85.75C52.99 85.84 53.03 85.97 53.08 86.14C53.17 86.48 53.3 87.01 53.48 87.66C53.82 89 54.31 90.91 54.91 93.28C56.12 98.03 57.77 104.59 59.61 111.85L59.61 111.87C59.61 111.94 59.61 112.01 59.61 112.08C59.3 119.6 59.02 126.4 58.82 131.35C58.71 133.81 58.62 135.8 58.56 137.18C58.52 137.87 58.5 138.4 58.48 138.77C58.48 138.95 58.46 139.09 58.46 139.19C58.46 139.23 58.45 139.28 58.44 139.33Z" fill="#455A64" fill-opacity="1.000000" fill-rule="nonzero"/>
	<path id="Vector" d="M55.8 111.26C55.22 111.45 54.62 111.58 54.01 111.66C53.27 111.78 52.63 111.87 52.35 111.89L52.35 111.82C52.44 111.85 52.49 111.86 52.49 111.88C52.49 111.89 52.43 111.88 52.33 111.88L52.13 111.88L52.33 111.82C52.6 111.74 53.24 111.61 53.98 111.47C54.58 111.34 55.19 111.27 55.8 111.26Z" fill="#455A64" fill-opacity="1.000000" fill-rule="nonzero"/>
	<path id="Vector" d="M55.66 112.25C55.12 112.27 54.58 112.25 54.05 112.18C53.51 112.17 52.97 112.11 52.44 112C53.52 111.91 54.61 112 55.66 112.25Z" fill="#455A64" fill-opacity="1.000000" fill-rule="nonzero"/>
	<g opacity="0.200000">
		<path id="Vector" d="M38.81 86.16C38.99 86.39 39.22 86.58 39.48 86.72C39.74 86.86 40.02 86.94 40.32 86.96C40.94 87.04 41.56 87.03 42.17 86.93C46.12 86.49 50.31 86.09 54.18 85.15C49.17 85.43 43.88 85.33 38.87 85.61L38.82 86.04L38.81 86.16Z" fill="#000000" fill-opacity="1.000000" fill-rule="nonzero"/>
	</g>
	<g opacity="0.200000">
		<path id="Vector" d="M43.97 93.22L46.79 104.17L46.59 93.68L43.97 93.22Z" fill="#000000" fill-opacity="1.000000" fill-rule="nonzero"/>
	</g>
</svg>
