<svg width="147.413086" height="109.840454" viewBox="0 0 147.413 109.84" fill="none" xmlns="http://www.w3.org/2000/svg" xmlns:xlink="http://www.w3.org/1999/xlink">
	<desc>
			Created with Pixso.
	</desc>
	<defs/>
	<g opacity="0.000000">
		<path id="Vector" d="M0 96.52L147.41 96.52L147.41 96.59L0 96.59L0 96.52Z" fill="#E6E6E6" fill-opacity="1.000000" fill-rule="evenodd"/>
		<path id="Vector" d="M27.03 100.98L36.8 100.98L36.8 101.06L27.03 101.06L27.03 100.98Z" fill="#E6E6E6" fill-opacity="1.000000" fill-rule="evenodd"/>
		<path id="Vector" d="M18.28 100.98L23.94 100.98L23.94 101.06L18.28 101.06L18.28 100.98Z" fill="#E6E6E6" fill-opacity="1.000000" fill-rule="evenodd"/>
		<path id="Vector" d="M56.41 102.07L62.07 102.07L62.07 102.14L56.41 102.14L56.41 102.07Z" fill="#E6E6E6" fill-opacity="1.000000" fill-rule="evenodd"/>
		<path id="Vector" d="M78.84 103.71L91.57 103.71L91.57 103.79L78.84 103.79L78.84 103.71Z" fill="#E6E6E6" fill-opacity="1.000000" fill-rule="evenodd"/>
		<path id="Vector" d="M74.35 103.71L76.21 103.71L76.21 103.79L74.35 103.79L74.35 103.71Z" fill="#E6E6E6" fill-opacity="1.000000" fill-rule="evenodd"/>
		<path id="Vector" d="M106.04 102.07L133.65 102.07L133.65 102.14L106.04 102.14L106.04 102.07Z" fill="#E6E6E6" fill-opacity="1.000000" fill-rule="evenodd"/>
		<path id="Vector" d="M69.87 83.37L12.94 83.37C12.49 83.37 12.07 83.19 11.75 82.88C11.44 82.56 11.26 82.13 11.26 81.69L11.26 1.66C11.26 1.22 11.44 0.8 11.76 0.48C12.07 0.17 12.5 0 12.94 -0.01L69.87 -0.01C70.32 -0.01 70.74 0.17 71.06 0.49C71.37 0.8 71.55 1.23 71.55 1.68L71.55 81.69C71.55 82.13 71.37 82.56 71.06 82.88C70.74 83.19 70.32 83.37 69.87 83.37ZM12.94 0.05C12.51 0.05 12.11 0.22 11.8 0.53C11.5 0.83 11.33 1.24 11.33 1.66L11.33 81.69C11.33 82.11 11.5 82.52 11.8 82.83C12.11 83.13 12.51 83.3 12.94 83.3L69.87 83.3C70.3 83.3 70.7 83.13 71.01 82.83C71.31 82.52 71.48 82.11 71.48 81.69L71.48 1.66C71.48 1.24 71.31 0.83 71.01 0.53C70.7 0.22 70.3 0.05 69.87 0.05L12.94 0.05Z" fill="#E6E6E6" fill-opacity="1.000000" fill-rule="nonzero"/>
		<path id="Vector" d="M133.64 83.37L76.71 83.37C76.27 83.37 75.84 83.19 75.52 82.88C75.21 82.56 75.03 82.13 75.03 81.69L75.03 1.66C75.03 1.22 75.21 0.8 75.53 0.48C75.84 0.17 76.27 0 76.71 -0.01L133.64 -0.01C134.09 0 134.51 0.17 134.82 0.48C135.14 0.8 135.32 1.22 135.32 1.66L135.32 81.69C135.32 82.13 135.14 82.56 134.83 82.88C134.52 83.19 134.09 83.37 133.64 83.37ZM76.71 0.05C76.29 0.05 75.88 0.22 75.57 0.53C75.27 0.83 75.1 1.24 75.1 1.66L75.1 81.69C75.1 82.11 75.27 82.52 75.57 82.83C75.88 83.13 76.29 83.3 76.71 83.3L133.64 83.3C134.07 83.3 134.48 83.13 134.78 82.83C135.08 82.52 135.25 82.11 135.25 81.69L135.25 1.66C135.25 1.24 135.08 0.83 134.78 0.53C134.48 0.22 134.07 0.05 133.64 0.05L76.71 0.05Z" fill="#E6E6E6" fill-opacity="1.000000" fill-rule="nonzero"/>
		<path id="Vector" d="M72.35 71.34L78.83 71.34L78.83 97.05L72.35 97.05L72.35 71.34Z" fill="#E0E0E0" fill-opacity="1.000000" fill-rule="evenodd"/>
		<path id="Vector" d="M77.6 97.05L78.83 97.05L78.83 93.55L76.31 93.55L77.6 97.05Z" fill="#FAFAFA" fill-opacity="1.000000" fill-rule="nonzero"/>
		<path id="Vector" d="M43.94 71.34L50.42 71.34L50.42 97.05L43.94 97.05L43.94 71.34Z" fill="#E0E0E0" fill-opacity="1.000000" fill-rule="evenodd"/>
		<path id="Vector" d="M49.35 71.34L78.83 71.34L78.83 94.91L49.35 94.91L49.35 71.34Z" fill="#FAFAFA" fill-opacity="1.000000" fill-rule="evenodd"/>
		<path id="Vector" d="M77.76 72.5L77.76 78.73L50.41 78.73L50.41 72.5L77.75 72.5L77.76 72.5ZM77.87 72.38L50.3 72.38L50.3 78.84L77.88 78.84L77.88 72.38L77.87 72.38Z" fill="#E0E0E0" fill-opacity="1.000000" fill-rule="nonzero"/>
		<path id="Vector" d="M50.58 97.05L49.35 97.05L49.35 93.55L51.87 93.55L50.58 97.05Z" fill="#FAFAFA" fill-opacity="1.000000" fill-rule="nonzero"/>
		<path id="Vector" d="M63.44 75.61C63.44 75.74 63.48 75.87 63.55 75.97C63.62 76.08 63.72 76.16 63.84 76.21C63.96 76.26 64.09 76.28 64.22 76.25C64.34 76.23 64.46 76.16 64.55 76.07C64.64 75.98 64.7 75.87 64.73 75.74C64.75 75.61 64.74 75.48 64.69 75.36C64.64 75.24 64.56 75.14 64.45 75.07C64.35 75 64.22 74.96 64.09 74.96C63.92 74.96 63.75 75.03 63.63 75.15C63.51 75.27 63.44 75.44 63.44 75.61Z" fill="#E6E6E6" fill-opacity="1.000000" fill-rule="nonzero"/>
		<path id="Vector" d="M77.76 80L77.76 86.24L50.41 86.24L50.41 80L77.75 80L77.76 80ZM77.87 79.89L50.3 79.89L50.3 86.35L77.88 86.35L77.88 79.89L77.87 79.89Z" fill="#E0E0E0" fill-opacity="1.000000" fill-rule="nonzero"/>
		<path id="Vector" d="M63.44 83.14C63.44 83.26 63.48 83.39 63.55 83.5C63.62 83.61 63.72 83.69 63.84 83.74C63.96 83.79 64.09 83.8 64.22 83.77C64.34 83.75 64.46 83.69 64.55 83.6C64.64 83.51 64.7 83.39 64.73 83.26C64.75 83.14 64.74 83.01 64.69 82.89C64.64 82.77 64.56 82.67 64.45 82.59C64.35 82.52 64.22 82.48 64.09 82.48C63.92 82.48 63.75 82.55 63.63 82.68C63.51 82.8 63.44 82.96 63.44 83.14Z" fill="#E6E6E6" fill-opacity="1.000000" fill-rule="nonzero"/>
		<path id="Vector" d="M77.76 87.51L77.76 93.75L50.41 93.75L50.41 87.51L77.75 87.51L77.76 87.51ZM77.87 87.4L50.3 87.4L50.3 93.86L77.88 93.86L77.88 87.4L77.87 87.4Z" fill="#E0E0E0" fill-opacity="1.000000" fill-rule="nonzero"/>
		<path id="Vector" d="M63.44 90.63C63.44 90.76 63.48 90.88 63.55 90.99C63.62 91.1 63.72 91.18 63.84 91.23C63.96 91.28 64.09 91.29 64.22 91.27C64.35 91.24 64.46 91.18 64.55 91.09C64.64 91 64.7 90.88 64.73 90.75C64.75 90.63 64.74 90.5 64.69 90.38C64.64 90.26 64.56 90.16 64.45 90.09C64.34 90.01 64.22 89.98 64.09 89.98C64 89.98 63.92 89.99 63.84 90.03C63.76 90.06 63.69 90.11 63.63 90.17C63.57 90.23 63.52 90.3 63.49 90.38C63.45 90.46 63.44 90.54 63.44 90.63Z" fill="#E6E6E6" fill-opacity="1.000000" fill-rule="nonzero"/>
		<path id="Vector" d="M39.98 56.4L46.46 56.4L46.46 97.06L39.98 97.06L39.98 56.4Z" fill="#E0E0E0" fill-opacity="1.000000" fill-rule="evenodd"/>
		<path id="Vector" d="M45.23 97.05L46.46 97.05L46.46 93.55L43.94 93.55L45.23 97.05Z" fill="#FAFAFA" fill-opacity="1.000000" fill-rule="nonzero"/>
		<path id="Vector" d="M15.75 56.4L22.23 56.4L22.23 97.06L15.75 97.06L15.75 56.4Z" fill="#E0E0E0" fill-opacity="1.000000" fill-rule="evenodd"/>
		<path id="Vector" d="M21.16 56.4L46.46 56.4L46.46 94.91L21.16 94.91L21.16 56.4Z" fill="#FAFAFA" fill-opacity="1.000000" fill-rule="evenodd"/>
		<path id="Vector" d="M45.37 57.49L45.37 66.2L22.25 66.2L22.25 57.49L45.37 57.49ZM45.51 57.35L22.11 57.35L22.11 66.33L45.5 66.33L45.5 57.36L45.51 57.35Z" fill="#E0E0E0" fill-opacity="1.000000" fill-rule="nonzero"/>
		<path id="Vector" d="M45.37 67.27L45.37 90.39L34.36 90.39L34.36 67.27L45.37 67.27ZM45.51 67.13L34.22 67.13L34.22 90.53L45.51 90.53L45.51 67.13Z" fill="#E0E0E0" fill-opacity="1.000000" fill-rule="nonzero"/>
		<path id="Vector" d="M33.26 67.27L33.26 90.39L22.25 90.39L22.25 67.27L33.26 67.27ZM33.4 67.13L22.11 67.13L22.11 90.53L33.39 90.53L33.39 67.13L33.4 67.13Z" fill="#E0E0E0" fill-opacity="1.000000" fill-rule="nonzero"/>
		<path id="Vector" d="M22.39 97.05L21.16 97.05L21.16 93.55L23.68 93.55L22.39 97.05Z" fill="#FAFAFA" fill-opacity="1.000000" fill-rule="nonzero"/>
		<path id="Vector" d="M33.16 61.85C33.16 61.98 33.19 62.11 33.27 62.21C33.34 62.32 33.44 62.41 33.56 62.46C33.68 62.51 33.81 62.52 33.94 62.49C34.06 62.47 34.18 62.41 34.27 62.32C34.37 62.22 34.43 62.11 34.45 61.98C34.48 61.85 34.47 61.72 34.42 61.6C34.37 61.48 34.28 61.38 34.18 61.31C34.07 61.24 33.94 61.2 33.81 61.2C33.64 61.2 33.47 61.27 33.35 61.39C33.23 61.51 33.16 61.68 33.16 61.85Z" fill="#E6E6E6" fill-opacity="1.000000" fill-rule="nonzero"/>
		<path id="Vector" d="M35.49 78.28C35.49 78.41 35.53 78.54 35.6 78.64C35.67 78.75 35.78 78.84 35.9 78.89C36.02 78.93 36.15 78.95 36.28 78.92C36.4 78.9 36.52 78.83 36.61 78.74C36.7 78.65 36.76 78.53 36.79 78.41C36.81 78.28 36.8 78.15 36.75 78.03C36.7 77.91 36.62 77.81 36.51 77.73C36.4 77.66 36.27 77.62 36.14 77.63C36.06 77.63 35.97 77.64 35.89 77.68C35.81 77.71 35.74 77.76 35.68 77.82C35.62 77.88 35.57 77.95 35.54 78.03C35.51 78.11 35.49 78.19 35.49 78.28Z" fill="#E6E6E6" fill-opacity="1.000000" fill-rule="nonzero"/>
		<path id="Vector" d="M30.83 78.28C30.83 78.41 30.86 78.53 30.94 78.64C31.01 78.75 31.11 78.83 31.23 78.88C31.35 78.93 31.48 78.94 31.61 78.92C31.73 78.89 31.85 78.83 31.94 78.74C32.03 78.65 32.09 78.53 32.12 78.4C32.14 78.28 32.13 78.15 32.08 78.03C32.03 77.91 31.95 77.81 31.84 77.74C31.73 77.66 31.61 77.63 31.48 77.63C31.39 77.63 31.31 77.64 31.23 77.68C31.15 77.71 31.08 77.76 31.01 77.82C30.95 77.88 30.91 77.95 30.87 78.03C30.84 78.11 30.82 78.19 30.83 78.28Z" fill="#E6E6E6" fill-opacity="1.000000" fill-rule="nonzero"/>
		<path id="Vector" d="M30.09 45.06L27.35 45.06C27.61 46.39 27.77 47.73 27.83 49.08C27.83 50.55 25.75 56.4 28.71 56.4C31.68 56.4 29.6 50.57 29.6 49.08C29.67 47.73 29.83 46.39 30.09 45.06Z" fill="#E0E0E0" fill-opacity="1.000000" fill-rule="nonzero"/>
		<path id="Vector" d="M19.69 51.04L19.69 52.81C19.69 53.76 20.07 54.67 20.74 55.34C21.41 56.01 22.32 56.39 23.27 56.39L25.04 56.39C25.99 56.39 26.89 56.01 27.57 55.34C28.24 54.67 28.61 53.76 28.62 52.81L28.62 51.04L19.69 51.04Z" fill="#F5F5F5" fill-opacity="1.000000" fill-rule="nonzero"/>
		<path id="Vector" d="M57.68 67.59C57.68 69.65 59.99 71.34 62.81 71.34L65.36 71.34C68.18 71.34 70.49 69.65 70.49 67.59L57.68 67.59Z" fill="#E0E0E0" fill-opacity="1.000000" fill-rule="nonzero"/>
		<path id="Vector" d="M125.18 64.56C123.64 65.82 121.5 68.13 119.55 71.38C118.25 73.55 117.46 75.8 117.12 78.8C117.12 75.41 117.14 71.77 117.15 68.34C117.54 67.45 118.44 65.41 119.08 63.8C121.23 58.43 122.03 57.1 123.96 52.47C126.53 46.28 129.16 38.95 128.41 39.53C126.87 40.73 120.97 51.77 120.34 53.35C118.6 57.57 117.53 62.03 117.16 66.57C117.16 63.33 117.18 60.38 117.19 58.09C117.23 50.63 117.36 48.22 117.42 47.48C117.66 47.1 117.94 46.66 118.11 46.43C119.49 44.42 120.03 42.72 121.33 39.73C123.18 35.5 124.77 27.98 124.31 28.36C122.37 29.94 120.84 33.33 118.83 37.66C116.82 41.98 117.39 44.47 116.99 48.16C116.91 48.88 116.85 51.62 116.8 55.41C116.28 51.37 115.3 48.71 113.52 46.29C111.32 43.32 109.2 41.31 107.65 40.26C106.09 39.21 110.33 46.52 112.36 49.69C114.17 52.54 115.84 55.04 116.79 57.51C116.73 62.65 116.71 69.15 116.71 75.2C116.25 72.44 115.48 69.47 114.47 67.18C113.25 64.42 111.37 60.18 109.88 58.75C109.52 58.4 111.44 66.64 112.68 68.83C113.91 71.01 114.81 73.08 115.59 74.32C115.77 74.62 116.37 75.73 116.71 76.37C116.71 83.76 116.75 90.28 116.82 92.5L117.14 92.5C117.12 91.93 117.11 88.17 117.12 83.19C117.89 80.49 119.64 77.41 121.1 74.59C122.68 71.55 126.73 63.31 125.18 64.56Z" fill="#E0E0E0" fill-opacity="1.000000" fill-rule="nonzero"/>
		<path id="Vector" d="M121.59 97.05L112.35 97.05L111.66 88L122.29 88L121.59 97.05Z" fill="#F0F0F0" fill-opacity="1.000000" fill-rule="nonzero"/>
		<path id="Vector" d="M122.98 89.05L110.97 89.05L110.62 86L123.32 86L122.98 89.05Z" fill="#F5F5F5" fill-opacity="1.000000" fill-rule="nonzero"/>
		<path id="Vector" d="M20.11 6.04L36.63 6.04L36.63 24.19L20.11 24.19L20.11 6.04Z" fill="#E0E0E0" fill-opacity="1.000000" fill-rule="evenodd"/>
		<path id="Vector" d="M21.35 6.04L38.42 6.04L38.42 24.19L21.35 24.19L21.35 6.04Z" fill="#F5F5F5" fill-opacity="1.000000" fill-rule="evenodd"/>
		<path id="Vector" d="M36.99 7.47L36.99 22.76L22.78 22.76L22.78 7.47L36.99 7.47Z" fill="#FFFFFF" fill-opacity="1.000000" fill-rule="evenodd"/>
		<path id="Vector" d="M33.54 11.17L33.54 19.05L26.22 19.05L26.22 11.17L33.54 11.17Z" fill="#F5F5F5" fill-opacity="1.000000" fill-rule="evenodd"/>
		<path id="Vector" d="M105.54 8.15L120.89 8.15L120.89 25.01L105.54 25.01L105.54 8.15Z" fill="#E0E0E0" fill-opacity="1.000000" fill-rule="evenodd"/>
		<path id="Vector" d="M106.7 8.15L122.55 8.15L122.55 25.01L106.7 25.01L106.7 8.15Z" fill="#F5F5F5" fill-opacity="1.000000" fill-rule="evenodd"/>
		<path id="Vector" d="M121.22 9.48L121.22 23.68L108.03 23.68L108.03 9.48L121.22 9.48Z" fill="#FFFFFF" fill-opacity="1.000000" fill-rule="evenodd"/>
		<path id="Vector" d="M118.74 16.58C118.74 18.86 116.9 20.7 114.62 20.7C112.35 20.7 110.51 18.86 110.51 16.58C110.51 14.31 112.35 12.46 114.62 12.46C116.9 12.46 118.74 14.31 118.74 16.58Z" fill="#F5F5F5" fill-opacity="1.000000" fill-rule="evenodd"/>
		<path id="Vector" d="M41.54 16.86L53.8 16.86L53.8 30.32L41.54 30.32L41.54 16.86Z" fill="#E0E0E0" fill-opacity="1.000000" fill-rule="evenodd"/>
		<path id="Vector" d="M42.46 16.86L55.12 16.86L55.12 30.32L42.46 30.32L42.46 16.86Z" fill="#F5F5F5" fill-opacity="1.000000" fill-rule="evenodd"/>
		<path id="Vector" d="M54.06 17.92L54.06 29.26L43.52 29.26L43.52 17.92L54.06 17.92Z" fill="#FFFFFF" fill-opacity="1.000000" fill-rule="evenodd"/>
		<path id="Vector" d="M48.79 20.72L45.91 25.72L51.68 25.72L48.79 20.72Z" fill="#F5F5F5" fill-opacity="1.000000" fill-rule="nonzero"/>
	</g>
	<g opacity="0.000000">
		<path id="Vector" d="M39.64 53.87C56.9 71.67 79.58 84.02 100.6 64.08C111.44 53.81 125.76 26.07 111.63 13.37C92.15 -4.12 80.97 24.5 66.41 28.38C56.43 31.03 48.03 15.7 36.08 25.95C26.64 34.04 32.46 46.47 39.64 53.87Z" fill="#4CAF4F" fill-opacity="1.000000" fill-rule="nonzero"/>
		<g opacity="0.900000">
			<path id="Vector" d="M39.64 53.87C56.9 71.67 79.58 84.02 100.6 64.08C111.44 53.81 125.76 26.07 111.63 13.37C92.15 -4.12 80.97 24.5 66.41 28.38C56.43 31.03 48.03 15.7 36.08 25.95C26.64 34.04 32.46 46.47 39.64 53.87Z" fill="#FFFFFF" fill-opacity="1.000000" fill-rule="nonzero"/>
		</g>
	</g>
	<path id="Vector" d="M130.87 106.5C130.87 108.34 105.27 109.84 73.7 109.84C42.13 109.84 16.54 108.34 16.54 106.5C16.54 104.66 42.13 103.16 73.7 103.16C105.27 103.16 130.87 104.66 130.87 106.5Z" fill="#F5F5F5" fill-opacity="1.000000" fill-rule="evenodd"/>
	<path id="Vector" d="M102.96 31.96L100.04 30.78C100.04 30.78 96.18 37.82 95.07 38.18C93.57 38.66 90.46 40.01 88.61 40.24C88.36 40.54 87.95 41.45 87.99 41.79C90.47 42.62 95.92 41.52 97.08 40.65C99.74 38.68 102.96 31.96 102.96 31.96Z" fill="#E58A7B" fill-opacity="1.000000" fill-rule="nonzero"/>
	<path id="Vector" d="M103.86 30.36C104.41 32.38 101.45 36.43 101.45 36.43L97.58 34.26C97.58 34.26 98.31 32.59 99.19 30.9C100.61 28.16 103.24 28.07 103.86 30.36Z" fill="#4CAF4F" fill-opacity="1.000000" fill-rule="nonzero"/>
	<g opacity="0.200000">
		<path id="Vector" d="M103.86 30.36C104.41 32.38 101.45 36.43 101.45 36.43L97.58 34.26C97.58 34.26 98.31 32.59 99.19 30.9C100.61 28.16 103.24 28.07 103.86 30.36Z" fill="#000000" fill-opacity="1.000000" fill-rule="nonzero"/>
	</g>
	<g opacity="0.200000">
		<path id="Vector" d="M99.12 35.12L100.64 35.98L100.91 31.3C100.02 31.98 99.4 34.03 99.12 35.12Z" fill="#000000" fill-opacity="1.000000" fill-rule="nonzero"/>
	</g>
	<path id="Vector" d="M101.32 28.85C101.32 28.85 98.3 35.55 100.06 48.03L111.93 48.03C112.12 46.21 111.5 37.32 113.76 28.73C112.45 28.48 111.14 28.31 109.81 28.23C108.13 28.13 106.45 28.13 104.77 28.23C103.6 28.35 102.45 28.55 101.32 28.85Z" fill="#4CAF4F" fill-opacity="1.000000" fill-rule="nonzero"/>
	<g opacity="0.200000">
		<path id="Vector" d="M101.32 28.85C101.32 28.85 98.3 35.55 100.06 48.03L111.93 48.03C112.12 46.21 111.5 37.32 113.76 28.73C112.45 28.48 111.14 28.31 109.81 28.23C108.13 28.13 106.45 28.13 104.77 28.23C103.6 28.35 102.45 28.55 101.32 28.85Z" fill="#000000" fill-opacity="1.000000" fill-rule="nonzero"/>
	</g>
	<g style="mix-blend-mode:multiply">
		<path id="Vector" d="M98.56 106.76C98.54 107.08 103.05 107.34 108.62 107.34C114.18 107.34 118.72 107.08 118.74 106.76C118.75 106.45 114.26 106.19 108.68 106.19C103.11 106.19 98.58 106.45 98.56 106.76Z" fill="#E8ECF1" fill-opacity="1.000000" fill-rule="nonzero"/>
	</g>
	<path id="Vector" d="M104.38 99.21L106.49 98.4L108.3 103.08L106.19 103.9L104.38 99.21Z" fill="#E58A7B" fill-opacity="1.000000" fill-rule="evenodd"/>
	<path id="Vector" d="M115.88 104.5L113.66 104.5L112.84 99.36L115.06 99.36L115.88 104.5Z" fill="#E58A7B" fill-opacity="1.000000" fill-rule="nonzero"/>
	<path id="Vector" d="M113.5 104.24L116 104.24C116.04 104.24 116.08 104.26 116.12 104.28C116.15 104.31 116.17 104.35 116.18 104.39L116.5 106.37C116.51 106.42 116.5 106.47 116.49 106.51C116.47 106.56 116.45 106.61 116.42 106.64C116.38 106.68 116.34 106.71 116.3 106.73C116.25 106.75 116.2 106.76 116.15 106.76C115.28 106.75 114.86 106.69 113.77 106.69C113.09 106.69 111.7 106.76 110.76 106.76C109.83 106.76 109.77 105.84 110.15 105.76C111.88 105.38 112.56 104.87 113.14 104.38C113.24 104.29 113.37 104.24 113.5 104.24Z" fill="#263238" fill-opacity="1.000000" fill-rule="nonzero"/>
	<path id="Vector" d="M106.13 103.48L108.49 102.79C108.53 102.78 108.58 102.78 108.62 102.8C108.66 102.81 108.69 102.85 108.71 102.88L109.6 104.65C109.62 104.7 109.63 104.75 109.63 104.8C109.63 104.85 109.62 104.89 109.6 104.94C109.57 104.98 109.54 105.02 109.51 105.05C109.47 105.09 109.42 105.11 109.38 105.12C108.52 105.36 107.94 105.5 106.87 105.81C106.13 106.03 105.38 106.38 104.64 106.61C104.14 106.78 102.95 106.78 102.33 106.78C101.42 106.78 101.22 105.82 101.61 105.78C102.59 105.67 102.73 105.72 103.27 105.44C104.17 105.05 104.97 104.49 105.66 103.8C105.78 103.65 105.95 103.54 106.13 103.48Z" fill="#263238" fill-opacity="1.000000" fill-rule="nonzero"/>
	<path id="Vector" d="M88.98 40.23L86.54 39.21L85.54 41.91C86.54 42.07 87.55 42.07 88.55 41.91L88.98 40.23Z" fill="#E58A7B" fill-opacity="1.000000" fill-rule="nonzero"/>
	<path id="Vector" d="M84.73 39.14L84.66 40.93L85.54 41.91L86.54 39.2L84.73 39.14Z" fill="#E58A7B" fill-opacity="1.000000" fill-rule="nonzero"/>
	<path id="Vector" d="M104.66 99.61L106.78 98.79L107.71 101.22L105.6 102.03L104.66 99.61Z" fill="#CF6F64" fill-opacity="1.000000" fill-rule="evenodd"/>
	<path id="Vector" d="M115.06 99.36L112.84 99.36L113.26 102.01L115.48 102.01L115.06 99.36Z" fill="#CF6F64" fill-opacity="1.000000" fill-rule="nonzero"/>
	<g opacity="0.200000">
		<path id="Vector" d="M99.68 44.66C99.73 45.19 99.78 45.74 99.84 46.3L108.67 43.43C110.05 43.02 111.25 42.16 112.06 40.98C112.1 40.19 112.14 39.36 112.21 38.5C112.24 38.08 112.28 37.65 112.32 37.21C112.35 36.77 112.41 36.29 112.46 35.83L99.68 44.66Z" fill="#000000" fill-opacity="1.000000" fill-rule="nonzero"/>
	</g>
	<path id="Vector" d="M102.57 34.99L102.27 34.95C102.44 33.48 103.54 32.32 104.7 32.35L104.7 32.64C103.69 32.62 102.72 33.67 102.57 34.99Z" fill="#FFFFFF" fill-opacity="1.000000" fill-rule="nonzero"/>
	<path id="Vector" d="M104.14 37.71L104.09 37.71L104.09 37.41C105.1 37.45 106.05 36.39 106.21 35.08L106.5 35.11C106.35 36.55 105.28 37.71 104.14 37.71Z" fill="#FFFFFF" fill-opacity="1.000000" fill-rule="nonzero"/>
	<path id="Vector" d="M109.65 22.55C109.23 24.17 108.74 27.15 109.81 28.23C109.81 28.23 109.06 29.88 106.05 29.88C103.29 29.88 104.77 28.23 104.77 28.23C106.6 27.8 106.63 26.46 106.39 25.19L109.65 22.55Z" fill="#E58A7B" fill-opacity="1.000000" fill-rule="nonzero"/>
	<path id="Vector" d="M108.32 23.63L106.4 25.19C106.46 25.49 106.49 25.78 106.5 26.08C107.06 26.64 108.19 25.22 108.31 24.5C108.36 24.21 108.37 23.92 108.32 23.63Z" fill="#CF6F64" fill-opacity="1.000000" fill-rule="nonzero"/>
	<path id="Vector" d="M103.08 22.53C103.22 22.76 103.4 22.96 103.61 23.12C103.83 23.28 104.08 23.39 104.34 23.45C105.05 23.61 105.4 22.96 105.2 22.3C105.03 21.71 104.45 20.92 103.73 21.06C103.58 21.09 103.43 21.16 103.31 21.26C103.19 21.36 103.09 21.48 103.03 21.63C102.96 21.77 102.94 21.93 102.95 22.08C102.96 22.24 103 22.39 103.08 22.53Z" fill="#CF6F64" fill-opacity="1.000000" fill-rule="nonzero"/>
	<path id="Vector" d="M104.26 17.33C103.15 17.83 102.76 22.22 104.15 22.86C105.53 23.51 106.34 16.37 104.26 17.33Z" fill="#263238" fill-opacity="1.000000" fill-rule="nonzero"/>
	<path id="Vector" d="M109.98 20.11C109.72 22.3 109.69 23.6 108.51 24.72C108.14 25.1 107.68 25.36 107.18 25.49C106.67 25.62 106.14 25.61 105.64 25.45C105.14 25.29 104.69 25 104.35 24.61C104 24.22 103.77 23.74 103.69 23.22C103.33 21.25 103.82 17.98 106.03 17.11C106.49 16.9 107 16.83 107.5 16.88C108.01 16.94 108.48 17.14 108.89 17.44C109.29 17.75 109.61 18.16 109.8 18.62C109.99 19.09 110.05 19.6 109.98 20.11Z" fill="#E58A7B" fill-opacity="1.000000" fill-rule="nonzero"/>
	<path id="Vector" d="M106.36 18.47C107.99 18.05 109.19 17.77 108.76 19.13C108.19 20.95 107.51 22.7 108.43 22.78C108.99 22.83 111.46 21.78 111.15 20.72C110.87 19.79 112.03 19.54 112.24 19.07C113 17.37 110.82 17.6 111.21 16.56C111.6 15.53 109.44 13.87 108.26 14.7C106.34 16.04 103.05 16.02 104.78 13.81C106.02 12.24 103.8 12.56 103.8 12.56C103.8 12.56 105.14 13.36 102.89 14.58C100.51 15.89 102.69 19.41 106.36 18.47Z" fill="#263238" fill-opacity="1.000000" fill-rule="nonzero"/>
	<path id="Vector" d="M110.85 22.53C110.53 23 110.04 23.33 109.49 23.45C108.76 23.61 108.48 22.96 108.76 22.3C109 21.71 109.67 20.92 110.37 21.06C111.07 21.19 111.22 21.95 110.85 22.53Z" fill="#E58A7B" fill-opacity="1.000000" fill-rule="nonzero"/>
	<path id="Vector" d="M100.06 48.03C100.06 48.03 98.07 65.87 97.91 72.64C97.75 79.68 104.66 101.65 104.66 101.65L108.2 100.17C108.2 100.17 104.07 80.1 104.66 73.19C105.29 65.65 107.87 48.05 107.87 48.05L100.06 48.03Z" fill="#4CAF4F" fill-opacity="1.000000" fill-rule="nonzero"/>
	<g opacity="0.200000">
		<path id="Vector" d="M105.01 52.93C103.42 56.23 104.49 62.75 105.35 66.61C105.68 63.88 106.07 60.92 106.44 58.18C106.4 53.97 106.08 50.72 105.01 52.93Z" fill="#000000" fill-opacity="1.000000" fill-rule="nonzero"/>
	</g>
	<path id="Vector" d="M108.05 99.01C108.06 99.01 108.47 100.13 108.47 100.13L104.38 101.85L103.74 100.65L108.05 99.01Z" fill="#4CAF4F" fill-opacity="1.000000" fill-rule="nonzero"/>
	<path id="Vector" d="M104.27 48.03C104.27 48.03 105.8 65 106.81 71.35C107.91 78.31 112.26 101.5 112.26 101.5L116.33 101.5C116.33 101.5 113.89 78.88 113.43 71.98C112.93 64.51 111.93 48.03 111.93 48.03L104.27 48.03Z" fill="#4CAF4F" fill-opacity="1.000000" fill-rule="nonzero"/>
	<path id="Vector" d="M116.39 100.44C116.4 100.44 116.52 101.57 116.52 101.57L112.05 101.57L111.73 100.27L116.39 100.44Z" fill="#4CAF4F" fill-opacity="1.000000" fill-rule="nonzero"/>
	<g opacity="0.200000">
		<path id="Vector" d="M114.83 99.09C114.82 99.09 114.81 99.09 114.81 99.08C114.8 99.08 114.79 99.07 114.79 99.06C114.77 98.85 112.57 78.42 112.16 72.23C111.71 65.51 110.81 50.62 110.8 50.47C110.8 50.46 110.8 50.46 110.8 50.45C110.8 50.45 110.81 50.44 110.81 50.44C110.81 50.44 110.82 50.43 110.82 50.43C110.83 50.43 110.83 50.43 110.84 50.43C110.85 50.43 110.85 50.43 110.86 50.44C110.87 50.44 110.87 50.45 110.87 50.46C110.87 50.61 111.78 65.5 112.23 72.23C112.65 78.42 114.84 98.84 114.86 99.06C114.86 99.06 114.86 99.07 114.86 99.07C114.86 99.08 114.86 99.08 114.86 99.08C114.85 99.09 114.85 99.09 114.84 99.09C114.84 99.1 114.84 99.1 114.83 99.1L114.83 99.09Z" fill="#000000" fill-opacity="1.000000" fill-rule="nonzero"/>
	</g>
	<path id="Vector" d="M106.61 20.72C106.61 20.9 106.5 21.04 106.38 21.04C106.26 21.04 106.18 20.9 106.19 20.72C106.2 20.54 106.3 20.39 106.42 20.39C106.54 20.39 106.62 20.54 106.61 20.72Z" fill="#263238" fill-opacity="1.000000" fill-rule="nonzero"/>
	<path id="Vector" d="M104.59 20.72C104.59 20.9 104.47 21.04 104.36 21.04C104.24 21.04 104.15 20.9 104.16 20.72C104.17 20.54 104.28 20.39 104.4 20.39C104.51 20.39 104.6 20.54 104.59 20.72Z" fill="#263238" fill-opacity="1.000000" fill-rule="nonzero"/>
	<path id="Vector" d="M105.22 20.81C104.98 21.36 104.66 21.87 104.28 22.34C104.58 22.63 105.13 22.5 105.13 22.5L105.22 20.81Z" fill="#DF5753" fill-opacity="1.000000" fill-rule="nonzero"/>
	<path id="Vector" d="M105.28 23.25C105.27 23.25 105.26 23.25 105.26 23.25C105.25 23.24 105.25 23.24 105.24 23.24C105.24 23.23 105.23 23.22 105.23 23.22C105.23 23.21 105.23 23.2 105.23 23.2C105.23 23.18 105.23 23.17 105.25 23.16C105.26 23.15 105.27 23.14 105.28 23.14C105.51 23.15 105.73 23.1 105.94 23C106.14 22.91 106.32 22.77 106.46 22.59C106.47 22.58 106.49 22.58 106.5 22.58C106.51 22.58 106.53 22.58 106.54 22.59C106.55 22.6 106.55 22.61 106.55 22.63C106.55 22.64 106.55 22.65 106.54 22.66C106.38 22.85 106.19 23 105.97 23.1C105.76 23.2 105.52 23.25 105.28 23.25Z" fill="#263238" fill-opacity="1.000000" fill-rule="nonzero"/>
	<path id="Vector" d="M106.97 20.18C106.96 20.18 106.94 20.19 106.92 20.19C106.91 20.19 106.89 20.18 106.88 20.18C106.77 20.1 106.64 20.06 106.51 20.05C106.38 20.03 106.25 20.05 106.13 20.1C106.12 20.1 106.1 20.11 106.09 20.11C106.08 20.11 106.06 20.11 106.05 20.1C106.04 20.1 106.03 20.09 106.02 20.08C106.01 20.07 106 20.06 105.99 20.05C105.98 20.02 105.98 19.99 105.99 19.97C106 19.94 106.02 19.92 106.05 19.91C106.2 19.84 106.37 19.82 106.53 19.84C106.7 19.85 106.86 19.91 107 20C107.01 20 107.02 20.01 107.03 20.02C107.04 20.04 107.04 20.05 107.04 20.06C107.05 20.08 107.05 20.09 107.04 20.1C107.04 20.12 107.03 20.13 107.03 20.14C107.01 20.16 106.99 20.17 106.97 20.18Z" fill="#263238" fill-opacity="1.000000" fill-rule="nonzero"/>
	<path id="Vector" d="M103.81 19.59C103.79 19.58 103.78 19.57 103.77 19.56C103.76 19.55 103.75 19.54 103.74 19.53C103.74 19.52 103.73 19.5 103.73 19.49C103.73 19.48 103.74 19.46 103.74 19.45C103.75 19.44 103.76 19.42 103.77 19.42C103.88 19.29 104.02 19.19 104.18 19.13C104.33 19.06 104.5 19.04 104.67 19.05C104.69 19.05 104.7 19.06 104.71 19.06C104.72 19.07 104.73 19.08 104.74 19.09C104.75 19.1 104.75 19.12 104.76 19.13C104.76 19.14 104.76 19.16 104.76 19.17C104.75 19.2 104.73 19.22 104.71 19.24C104.69 19.25 104.66 19.26 104.63 19.26C104.5 19.25 104.36 19.27 104.24 19.32C104.12 19.37 104.01 19.45 103.92 19.55C103.9 19.57 103.89 19.58 103.87 19.59C103.85 19.59 103.83 19.59 103.81 19.59Z" fill="#263238" fill-opacity="1.000000" fill-rule="nonzero"/>
	<path id="Vector" d="M114.9 31.64L111.83 30.82C111.83 30.82 108.82 38.22 107.76 38.7C106.32 39.36 102.66 41.65 101.1 42.73C101.01 43.1 101.08 44.08 101.28 44.35C103.93 43.86 109.01 41.91 110.07 40.91C112.49 38.65 114.9 31.64 114.9 31.64Z" fill="#E58A7B" fill-opacity="1.000000" fill-rule="nonzero"/>
	<path id="Vector" d="M112.76 104.63C112.61 104.64 112.46 104.6 112.34 104.51C112.3 104.48 112.27 104.44 112.25 104.39C112.24 104.34 112.23 104.29 112.24 104.24C112.25 104.21 112.26 104.18 112.27 104.15C112.29 104.12 112.32 104.1 112.34 104.09C112.59 103.96 113.29 104.4 113.37 104.45C113.37 104.46 113.38 104.47 113.38 104.48C113.39 104.48 113.39 104.5 113.39 104.51C113.38 104.52 113.38 104.53 113.37 104.53C113.36 104.54 113.35 104.55 113.34 104.55C113.15 104.6 112.96 104.62 112.76 104.63ZM112.46 104.17C112.44 104.16 112.42 104.16 112.4 104.17C112.38 104.17 112.37 104.18 112.37 104.19C112.36 104.21 112.36 104.22 112.36 104.23C112.35 104.27 112.35 104.3 112.36 104.33C112.37 104.37 112.39 104.4 112.42 104.42C112.53 104.53 112.82 104.54 113.2 104.46C112.98 104.31 112.72 104.21 112.45 104.17L112.46 104.17Z" fill="#4CAF4F" fill-opacity="1.000000" fill-rule="nonzero"/>
	<path id="Vector" d="M113.33 104.55C113.32 104.55 113.31 104.55 113.31 104.55C113.08 104.43 112.67 103.94 112.73 103.69C112.74 103.65 112.76 103.62 112.79 103.59C112.83 103.57 112.86 103.55 112.91 103.55C112.94 103.55 112.99 103.55 113.02 103.56C113.06 103.57 113.1 103.59 113.13 103.62C113.37 103.83 113.39 104.47 113.39 104.51C113.39 104.52 113.39 104.53 113.38 104.53C113.38 104.54 113.37 104.55 113.36 104.55C113.35 104.55 113.34 104.55 113.33 104.55ZM112.93 103.65L112.91 103.65C112.85 103.65 112.84 103.69 112.83 103.7C112.8 103.85 113.06 104.22 113.28 104.39C113.28 104.14 113.2 103.9 113.06 103.69C113.02 103.66 112.98 103.65 112.93 103.65Z" fill="#4CAF4F" fill-opacity="1.000000" fill-rule="nonzero"/>
	<path id="Vector" d="M104.93 104.26C104.75 104.32 104.55 104.32 104.37 104.26C104.33 104.24 104.3 104.21 104.27 104.17C104.25 104.13 104.23 104.08 104.23 104.04C104.22 104.01 104.23 103.98 104.24 103.95C104.25 103.92 104.27 103.9 104.29 103.88C104.53 103.67 105.49 103.88 105.6 103.92C105.61 103.92 105.62 103.93 105.63 103.94C105.63 103.95 105.64 103.96 105.63 103.97C105.64 103.98 105.63 103.99 105.63 104C105.62 104.01 105.61 104.02 105.6 104.02C105.39 104.12 105.16 104.2 104.93 104.26ZM104.45 103.91C104.42 103.92 104.38 103.93 104.36 103.95C104.35 103.96 104.34 103.97 104.34 103.98C104.33 103.99 104.33 104 104.33 104.02C104.34 104.05 104.35 104.08 104.36 104.1C104.38 104.13 104.4 104.15 104.43 104.17C104.59 104.25 104.95 104.18 105.42 103.99C105.1 103.91 104.77 103.88 104.45 103.91Z" fill="#4CAF4F" fill-opacity="1.000000" fill-rule="nonzero"/>
	<path id="Vector" d="M105.59 104.02L105.57 104.02C105.27 103.97 104.69 103.63 104.67 103.38C104.67 103.32 104.69 103.23 104.84 103.19C104.88 103.17 104.93 103.16 104.98 103.17C105.04 103.17 105.09 103.18 105.13 103.21C105.45 103.36 105.62 103.93 105.63 103.95C105.63 103.96 105.63 103.97 105.63 103.98C105.62 103.99 105.62 104 105.61 104C105.61 104.01 105.6 104.02 105.59 104.02ZM104.89 103.28L104.87 103.28C104.77 103.31 104.77 103.35 104.77 103.36C104.77 103.51 105.2 103.79 105.5 103.89C105.43 103.65 105.29 103.44 105.09 103.3C105.03 103.27 104.96 103.26 104.89 103.28Z" fill="#4CAF4F" fill-opacity="1.000000" fill-rule="nonzero"/>
	<path id="Vector" d="M101.35 42.56L98.28 43.97L97.92 44.86L99.05 45.62C99.05 45.62 101.18 45.39 101.78 44.03L101.35 42.56Z" fill="#E58A7B" fill-opacity="1.000000" fill-rule="nonzero"/>
	<path id="Vector" d="M101.48 44.4C101.41 43.8 101.22 43.24 100.91 42.73L101.4 42.36C101.76 42.95 101.99 43.61 102.08 44.29L101.48 44.4Z" fill="#263238" fill-opacity="1.000000" fill-rule="nonzero"/>
	<path id="Vector" d="M102.01 42.98C102.07 43.08 102.1 43.2 102.1 43.32C102.09 43.44 102.05 43.56 101.97 43.65C101.9 43.75 101.8 43.82 101.68 43.86C101.57 43.89 101.44 43.89 101.33 43.86C101.21 43.82 101.11 43.75 101.04 43.65C100.96 43.55 100.92 43.44 100.92 43.32C100.91 43.2 100.95 43.08 101.01 42.97C101.08 42.87 101.17 42.79 101.29 42.75C101.41 42.68 101.56 42.67 101.69 42.71C101.83 42.76 101.94 42.85 102.01 42.98Z" fill="#263238" fill-opacity="1.000000" fill-rule="nonzero"/>
	<path id="Vector" d="M96.2 45.12L96.61 45.53L99.37 44.35L98.28 43.97L96.2 45.12Z" fill="#E58A7B" fill-opacity="1.000000" fill-rule="nonzero"/>
	<g opacity="0.200000">
		<path id="Vector" d="M108.05 99.01C108.06 99.01 108.47 100.13 108.47 100.13L104.38 101.85L103.74 100.65L108.05 99.01Z" fill="#000000" fill-opacity="1.000000" fill-rule="nonzero"/>
	</g>
	<g opacity="0.200000">
		<path id="Vector" d="M116.39 100.44C116.4 100.44 116.52 101.57 116.52 101.57L112.05 101.57L111.73 100.27L116.39 100.44Z" fill="#000000" fill-opacity="1.000000" fill-rule="nonzero"/>
	</g>
	<path id="Vector" d="M115.7 30.79C116.51 33.4 113.34 36.98 113.34 36.98L108.96 35.19C109.48 33.68 110.08 32.2 110.75 30.75C112.1 27.85 114.88 28.15 115.7 30.79Z" fill="#4CAF4F" fill-opacity="1.000000" fill-rule="nonzero"/>
	<g opacity="0.200000">
		<path id="Vector" d="M115.7 30.79C116.51 33.4 113.34 36.98 113.34 36.98L108.96 35.19C109.48 33.68 110.08 32.2 110.75 30.75C112.1 27.85 114.88 28.15 115.7 30.79Z" fill="#000000" fill-opacity="1.000000" fill-rule="nonzero"/>
	</g>
	<path id="Vector" d="M70.31 4.59L72.19 4.59L72.19 4.89L70.31 4.89L70.31 4.59Z" fill="#4CAF4F" fill-opacity="1.000000" fill-rule="evenodd"/>
	<path id="Vector" d="M96.35 21.66L96.58 16.6L96.88 16.62L96.65 21.68L96.35 21.66Z" fill="#4CAF4F" fill-opacity="1.000000" fill-rule="evenodd"/>
	<path id="Vector" d="M95.99 5.95L61.2 5.95L57.97 78.39L92.76 78.39L95.99 5.95Z" fill="#4CAF4F" fill-opacity="1.000000" fill-rule="nonzero"/>
	<g opacity="0.560000">
		<path id="Vector" d="M94.96 6.94L60.17 6.94L56.93 79.39L91.72 79.39L94.96 6.94Z" fill="#FAFAFA" fill-opacity="1.000000" fill-rule="nonzero"/>
	</g>
	<g opacity="0.070000">
		<path id="Vector" d="M93.92 7.94L59.13 7.94L55.89 80.38L90.68 80.38L93.92 7.94Z" fill="#4CAF4F" fill-opacity="1.000000" fill-rule="nonzero"/>
	</g>
	<path id="Vector" d="M89.96 39.53L60.26 39.53L60.02 45.08L89.71 45.08L89.96 39.53Z" fill="#FFFFFF" fill-opacity="1.000000" fill-rule="nonzero"/>
	<path id="Vector" d="M76.59 35.49L60.44 35.49L60.33 37.97L76.48 37.97L76.59 35.49Z" fill="#4CAF4F" fill-opacity="1.000000" fill-rule="nonzero"/>
	<path id="Vector" d="M89.29 54.49L59.59 54.49L59.35 60.04L89.04 60.04L89.29 54.49Z" fill="#FFFFFF" fill-opacity="1.000000" fill-rule="nonzero"/>
	<g opacity="0.470000">
		<path id="Vector" d="M83.84 67.52L63.88 67.52L63.58 74.16L83.55 74.16L83.84 67.52Z" fill="#4CAF4F" fill-opacity="1.000000" fill-rule="nonzero"/>
	</g>
	<path id="Vector" d="M82.51 75.2L62.54 75.2C62.53 75.2 62.52 75.2 62.51 75.2C62.51 75.19 62.51 75.18 62.51 75.17L62.81 68.52C62.81 68.52 62.81 68.52 62.81 68.51C62.81 68.51 62.81 68.5 62.82 68.5C62.82 68.5 62.83 68.49 62.83 68.49C62.83 68.49 62.84 68.49 62.84 68.49L82.81 68.49C82.82 68.49 82.82 68.49 82.82 68.49C82.83 68.49 82.83 68.49 82.84 68.49C82.84 68.5 82.84 68.5 82.84 68.5C82.84 68.51 82.84 68.51 82.84 68.52L82.55 75.18C82.54 75.18 82.54 75.19 82.53 75.19C82.52 75.2 82.52 75.2 82.51 75.2ZM62.57 75.13L82.47 75.13L82.77 68.55L62.87 68.55L62.57 75.13Z" fill="#FFFFFF" fill-opacity="1.000000" fill-rule="nonzero"/>
	<path id="Vector" d="M73.11 50.45L59.77 50.45L59.66 52.93L72.99 52.93L73.11 50.45Z" fill="#4CAF4F" fill-opacity="1.000000" fill-rule="nonzero"/>
	<path id="Vector" d="M83.46 21.63C83.39 23.24 82.81 24.79 81.82 26.07C81.09 27.03 80.14 27.81 79.06 28.35C77.97 28.89 76.78 29.18 75.57 29.18C74.59 29.19 73.62 29 72.72 28.62C71.82 28.23 71.01 27.67 70.33 26.96C69.66 26.26 69.13 25.42 68.79 24.5C68.45 23.58 68.31 22.61 68.36 21.63C68.46 19.6 69.34 17.69 70.8 16.29C72.27 14.88 74.22 14.09 76.25 14.08C77.23 14.07 78.2 14.26 79.1 14.64C80 15.02 80.81 15.58 81.49 16.29C82.17 17 82.69 17.84 83.03 18.75C83.37 19.67 83.52 20.65 83.46 21.63Z" fill="#FFFFFF" fill-opacity="1.000000" fill-rule="nonzero"/>
	<path id="Vector" d="M84.17 15.66C84.15 16.09 84 16.5 83.74 16.84C83.54 17.09 83.29 17.3 83 17.44C82.71 17.59 82.4 17.66 82.07 17.66C81.76 17.67 81.46 17.59 81.18 17.45C80.9 17.3 80.67 17.09 80.49 16.84C80.25 16.49 80.14 16.07 80.16 15.66C80.19 15.12 80.42 14.61 80.81 14.24C81.2 13.87 81.72 13.66 82.25 13.65C82.51 13.65 82.77 13.7 83.01 13.8C83.25 13.9 83.47 14.05 83.65 14.24C83.83 14.43 83.97 14.65 84.06 14.89C84.15 15.14 84.19 15.4 84.17 15.66Z" fill="#4CAF4F" fill-opacity="1.000000" fill-rule="nonzero"/>
	<path id="Vector" d="M63.46 42.31C63.45 42.54 63.34 42.77 63.17 42.93C63 43.09 62.77 43.19 62.53 43.19C62.42 43.19 62.3 43.17 62.2 43.12C62.09 43.08 62 43.01 61.92 42.93C61.84 42.85 61.78 42.75 61.74 42.64C61.7 42.53 61.68 42.42 61.68 42.31C61.7 42.07 61.8 41.84 61.97 41.68C62.15 41.51 62.37 41.42 62.61 41.42C62.73 41.42 62.84 41.44 62.95 41.49C63.05 41.53 63.15 41.6 63.23 41.68C63.31 41.76 63.37 41.86 63.41 41.97C63.45 42.08 63.47 42.19 63.46 42.31Z" fill="#263238" fill-opacity="1.000000" fill-rule="nonzero"/>
	<path id="Vector" d="M67.44 42.31C67.42 42.54 67.32 42.77 67.15 42.93C66.97 43.1 66.75 43.19 66.51 43.19C66.39 43.19 66.28 43.17 66.17 43.12C66.07 43.08 65.97 43.01 65.89 42.93C65.81 42.85 65.75 42.75 65.71 42.64C65.67 42.53 65.66 42.42 65.66 42.31C65.67 42.07 65.78 41.84 65.95 41.68C66.12 41.52 66.35 41.42 66.59 41.42C66.7 41.42 66.82 41.44 66.92 41.49C67.03 41.53 67.12 41.6 67.2 41.68C67.28 41.76 67.35 41.86 67.39 41.97C67.43 42.08 67.44 42.19 67.44 42.31Z" fill="#263238" fill-opacity="1.000000" fill-rule="nonzero"/>
	<path id="Vector" d="M71.41 42.31C71.4 42.54 71.3 42.77 71.12 42.93C70.95 43.1 70.72 43.19 70.49 43.19C70.37 43.19 70.26 43.17 70.15 43.12C70.04 43.08 69.95 43.01 69.87 42.93C69.79 42.85 69.73 42.75 69.69 42.64C69.65 42.53 69.63 42.42 69.64 42.31C69.65 42.07 69.75 41.84 69.93 41.68C70.1 41.52 70.33 41.42 70.56 41.42C70.68 41.42 70.79 41.44 70.9 41.49C71.01 41.53 71.1 41.6 71.18 41.68C71.26 41.76 71.32 41.86 71.36 41.97C71.4 42.08 71.42 42.19 71.41 42.31Z" fill="#263238" fill-opacity="1.000000" fill-rule="nonzero"/>
	<path id="Vector" d="M62.79 57.26C62.78 57.5 62.68 57.73 62.5 57.89C62.33 58.05 62.1 58.15 61.86 58.15C61.75 58.15 61.64 58.13 61.53 58.08C61.42 58.04 61.33 57.97 61.25 57.89C61.17 57.81 61.11 57.71 61.07 57.6C61.03 57.49 61.01 57.38 61.02 57.26C61.03 57.03 61.13 56.8 61.3 56.64C61.48 56.47 61.71 56.38 61.94 56.38C62.06 56.38 62.17 56.4 62.28 56.45C62.38 56.49 62.48 56.56 62.56 56.64C62.64 56.72 62.7 56.82 62.74 56.93C62.78 57.04 62.8 57.15 62.79 57.26Z" fill="#263238" fill-opacity="1.000000" fill-rule="nonzero"/>
	<path id="Vector" d="M66.77 57.26C66.75 57.5 66.65 57.73 66.48 57.89C66.31 58.05 66.08 58.15 65.84 58.15C65.73 58.15 65.61 58.13 65.51 58.08C65.4 58.04 65.3 57.97 65.23 57.89C65.15 57.81 65.08 57.71 65.04 57.6C65 57.49 64.99 57.38 64.99 57.26C65.01 57.03 65.11 56.8 65.28 56.64C65.45 56.47 65.68 56.38 65.92 56.38C66.04 56.38 66.15 56.4 66.26 56.45C66.36 56.49 66.46 56.56 66.54 56.64C66.61 56.72 66.68 56.82 66.72 56.93C66.76 57.04 66.77 57.15 66.77 57.26Z" fill="#263238" fill-opacity="1.000000" fill-rule="nonzero"/>
	<path id="Vector" d="M70.75 57.26C70.74 57.5 70.64 57.73 70.46 57.89C70.29 58.05 70.06 58.15 69.82 58.15C69.71 58.15 69.6 58.13 69.49 58.08C69.39 58.04 69.29 57.97 69.21 57.89C69.13 57.81 69.07 57.71 69.03 57.6C68.99 57.49 68.97 57.38 68.98 57.26C68.99 57.03 69.09 56.8 69.27 56.64C69.44 56.48 69.67 56.38 69.9 56.38C70.02 56.38 70.13 56.4 70.24 56.45C70.35 56.49 70.44 56.56 70.52 56.64C70.6 56.72 70.66 56.82 70.7 56.93C70.74 57.04 70.76 57.15 70.75 57.26Z" fill="#263238" fill-opacity="1.000000" fill-rule="nonzero"/>
	<path id="Vector" d="M74.72 57.26C74.71 57.5 74.6 57.73 74.43 57.89C74.26 58.05 74.03 58.15 73.79 58.15C73.68 58.15 73.56 58.13 73.46 58.08C73.35 58.04 73.26 57.97 73.18 57.89C73.1 57.81 73.04 57.71 73 57.6C72.96 57.49 72.94 57.38 72.94 57.26C72.96 57.03 73.06 56.8 73.23 56.64C73.41 56.48 73.63 56.38 73.87 56.38C73.99 56.38 74.1 56.4 74.21 56.45C74.31 56.49 74.41 56.56 74.49 56.64C74.57 56.72 74.63 56.82 74.67 56.93C74.71 57.04 74.73 57.15 74.72 57.26Z" fill="#263238" fill-opacity="1.000000" fill-rule="nonzero"/>
	<path id="Vector" d="M78.71 57.26C78.7 57.5 78.6 57.73 78.42 57.89C78.25 58.05 78.02 58.15 77.78 58.15C77.67 58.15 77.56 58.13 77.45 58.08C77.34 58.04 77.25 57.97 77.17 57.89C77.09 57.81 77.03 57.71 76.99 57.6C76.95 57.49 76.93 57.38 76.94 57.26C76.95 57.03 77.05 56.8 77.23 56.64C77.4 56.47 77.63 56.38 77.86 56.38C77.98 56.38 78.09 56.4 78.2 56.45C78.3 56.49 78.4 56.56 78.48 56.64C78.56 56.72 78.62 56.82 78.66 56.93C78.7 57.04 78.72 57.15 78.71 57.26Z" fill="#263238" fill-opacity="1.000000" fill-rule="nonzero"/>
	<path id="Vector" d="M78.26 16.92C79.41 18.09 79.34 20.03 78.11 21.24C76.88 22.44 74.94 22.46 73.79 21.29C72.63 20.11 72.7 18.17 73.93 16.97C75.17 15.76 77.1 15.74 78.26 16.92Z" fill="#4CAF4F" fill-opacity="1.000000" fill-rule="evenodd"/>
	<path id="Vector" d="M81.82 26.07C81.09 27.03 80.14 27.81 79.06 28.35C77.97 28.89 76.78 29.18 75.57 29.18C74.4 29.19 73.24 28.91 72.2 28.37C71.16 27.83 70.27 27.04 69.6 26.07C71.04 24.64 73.3 23.71 75.82 23.71C78.33 23.71 80.51 24.64 81.82 26.07Z" fill="#4CAF4F" fill-opacity="1.000000" fill-rule="nonzero"/>
	<g opacity="0.100000">
		<path id="Vector" d="M78.26 16.92C79.41 18.09 79.34 20.03 78.11 21.24C76.88 22.44 74.94 22.46 73.79 21.29C72.63 20.11 72.7 18.17 73.93 16.97C75.17 15.76 77.1 15.74 78.26 16.92Z" fill="#FFFFFF" fill-opacity="1.000000" fill-rule="evenodd"/>
	</g>
	<g opacity="0.100000">
		<path id="Vector" d="M81.82 26.07C81.09 27.03 80.14 27.81 79.06 28.35C77.97 28.89 76.78 29.18 75.57 29.18C74.4 29.19 73.24 28.91 72.2 28.37C71.16 27.83 70.27 27.04 69.6 26.07C71.04 24.64 73.3 23.71 75.82 23.71C78.33 23.71 80.51 24.64 81.82 26.07Z" fill="#FFFFFF" fill-opacity="1.000000" fill-rule="nonzero"/>
	</g>
	<path id="Vector" d="M38.44 46.41C38.16 47.03 37.87 47.7 37.61 48.36C37.36 49.01 37.09 49.68 36.87 50.36C36.4 51.68 36.05 53.04 35.81 54.43L35.75 54.86C35.74 54.93 35.75 55.01 35.77 55.08C35.84 55.32 35.95 55.56 36.09 55.76C36.47 56.3 36.91 56.8 37.4 57.24C37.92 57.72 38.46 58.17 39.03 58.6C39.59 59.03 40.19 59.46 40.78 59.86L40.22 60.89C38.82 60.28 37.49 59.52 36.26 58.62C35.6 58.14 35.01 57.58 34.49 56.95C34.18 56.57 33.95 56.14 33.79 55.69C33.69 55.4 33.64 55.1 33.64 54.8C33.64 54.73 33.64 54.63 33.64 54.58L33.64 54.43L33.67 54.14C33.84 52.6 34.16 51.09 34.64 49.62C34.87 48.89 35.11 48.17 35.39 47.46C35.67 46.76 35.96 46.07 36.32 45.35L38.44 46.41Z" fill="#E58A7B" fill-opacity="1.000000" fill-rule="nonzero"/>
	<path id="Vector" d="M40.36 59.68L42.44 58.62L41.9 60.91C41.9 60.91 40.47 61.31 39.81 60.61L40.36 59.68Z" fill="#E58A7B" fill-opacity="1.000000" fill-rule="nonzero"/>
	<path id="Vector" d="M44.35 59L43.8 60.89L41.9 60.91L42.44 58.62L44.35 59Z" fill="#E58A7B" fill-opacity="1.000000" fill-rule="nonzero"/>
	<path id="Vector" d="M47.29 35.37C47.41 35.78 47.56 36.18 47.76 36.55C47.7 36.62 47.63 36.67 47.54 36.69C47.46 36.72 47.37 36.72 47.29 36.7L47.29 35.37Z" fill="#DF5753" fill-opacity="1.000000" fill-rule="nonzero"/>
	<path id="Vector" d="M47.45 35.05C47.45 35.24 47.35 35.39 47.23 35.39C47.11 35.39 47.01 35.24 47.01 35.05C47.01 34.87 47.11 34.71 47.23 34.71C47.35 34.71 47.45 34.87 47.45 35.05Z" fill="#263238" fill-opacity="1.000000" fill-rule="evenodd"/>
	<path id="Vector" d="M47.17 34.73L47.62 34.6C47.62 34.6 47.4 34.95 47.17 34.73Z" fill="#263238" fill-opacity="1.000000" fill-rule="nonzero"/>
	<path id="Vector" d="M41.54 37.54C41.8 38.91 42.07 41.42 41.11 42.34C41.11 42.34 41.49 43.73 44.04 43.73C46.84 43.73 45.38 42.34 45.38 42.34C43.85 41.98 43.89 40.84 44.15 39.77L41.54 37.54Z" fill="#E58A7B" fill-opacity="1.000000" fill-rule="nonzero"/>
	<path id="Vector" d="M40.79 34.41C40.93 36.7 40.94 37.68 42.1 38.85C43.84 40.62 46.62 39.95 47.17 37.67C47.66 35.61 47.35 32.21 45.11 31.3C44.61 31.1 44.08 31.03 43.55 31.09C43.02 31.15 42.52 31.35 42.08 31.66C41.65 31.97 41.31 32.39 41.08 32.87C40.85 33.35 40.75 33.88 40.79 34.41Z" fill="#E58A7B" fill-opacity="1.000000" fill-rule="nonzero"/>
	<path id="Vector" d="M41.02 31.84C39.87 32.25 38.33 31.94 38.94 35.49C39.57 39.25 38.59 40.48 38.59 40.48C38.59 40.48 42.95 41.41 47.41 40.42C47.41 40.42 46.05 38.05 46.43 36.3C46.91 34.09 46.53 33.27 46.53 33.27C46.53 33.27 42.63 31.25 41.02 31.84Z" fill="#263238" fill-opacity="1.000000" fill-rule="nonzero"/>
	<path id="Vector" d="M45.88 35.61C45.88 36.04 46.01 36.47 46.24 36.84C46.55 37.31 46.92 37.13 47.01 36.62C47.1 36.18 47.03 35.39 46.64 35.09C46.24 34.78 45.89 35.08 45.88 35.61Z" fill="#E58A7B" fill-opacity="1.000000" fill-rule="nonzero"/>
	<path id="Vector" d="M40.02 32.22C39.69 31.29 41.26 29.86 44.59 30.45C47.92 31.04 48.07 33.82 48.07 33.82L47.4 33.02L47.43 33.86L44 34.52L40.02 32.22Z" fill="#263238" fill-opacity="1.000000" fill-rule="nonzero"/>
	<path id="Vector" d="M40.3 42.5C40.28 42.36 40.31 42.23 40.39 42.12C40.47 42.01 40.59 41.93 40.73 41.91C41.77 41.74 44.12 41.39 45.31 41.55C46.19 41.68 46.42 42.19 46.46 42.61C46.47 42.69 46.46 42.76 46.43 42.83C46.41 42.9 46.37 42.96 46.32 43.02C46.27 43.07 46.2 43.11 46.13 43.14C46.07 43.16 45.99 43.18 45.92 43.17L40.79 42.94C40.67 42.94 40.56 42.89 40.47 42.81C40.38 42.73 40.32 42.62 40.3 42.5Z" fill="#4CAF4F" fill-opacity="1.000000" fill-rule="nonzero"/>
	<g opacity="0.600000">
		<path id="Vector" d="M40.3 42.5C40.28 42.36 40.31 42.23 40.39 42.12C40.47 42.01 40.59 41.93 40.73 41.91C41.77 41.74 44.12 41.39 45.31 41.55C46.19 41.68 46.42 42.19 46.46 42.61C46.47 42.69 46.46 42.76 46.43 42.83C46.41 42.9 46.37 42.96 46.32 43.02C46.27 43.07 46.2 43.11 46.13 43.14C46.07 43.16 45.99 43.18 45.92 43.17L40.79 42.94C40.67 42.94 40.56 42.89 40.47 42.81C40.38 42.73 40.32 42.62 40.3 42.5Z" fill="#000000" fill-opacity="1.000000" fill-rule="nonzero"/>
	</g>
	<path id="Vector" d="M43.26 94L45.17 95.32L48.35 91.01L46.44 89.69L43.26 94Z" fill="#E58A7B" fill-opacity="1.000000" fill-rule="nonzero"/>
	<path id="Vector" d="M38.83 93.92L40.84 95.06L43.65 90.5L41.65 89.36L38.83 93.92Z" fill="#E58A7B" fill-opacity="1.000000" fill-rule="nonzero"/>
	<path id="Vector" d="M48.34 91.01L46.7 93.23L44.8 91.92L46.44 89.69L48.34 91.01Z" fill="#CF6F64" fill-opacity="1.000000" fill-rule="nonzero"/>
	<path id="Vector" d="M41.64 89.36L43.65 90.5L42.2 92.85L40.19 91.71L41.64 89.36Z" fill="#CF6F64" fill-opacity="1.000000" fill-rule="nonzero"/>
	<path id="Vector" d="M44.87 56.9C44.87 56.9 52.29 66.25 50.9 75.2C49.77 82.43 43.26 92.21 43.26 92.21L40.19 90.69C42.35 86.36 44.2 81.89 45.71 77.29C46.17 75.87 46.31 74.35 46.11 72.87C45.9 71.38 45.36 69.96 44.53 68.71C40.77 63.22 34.74 66.49 38.79 56.9L44.87 56.9Z" fill="#4CAF4F" fill-opacity="1.000000" fill-rule="nonzero"/>
	<g opacity="0.600000">
		<path id="Vector" d="M44.87 56.9C44.87 56.9 52.29 66.25 50.9 75.2C49.77 82.43 43.26 92.21 43.26 92.21L40.19 90.69C42.35 86.36 44.2 81.89 45.71 77.29C46.17 75.87 46.31 74.35 46.11 72.87C45.9 71.38 45.36 69.96 44.53 68.71C40.77 63.22 34.74 66.49 38.79 56.9L44.87 56.9Z" fill="#000000" fill-opacity="1.000000" fill-rule="nonzero"/>
	</g>
	<g opacity="0.400000">
		<path id="Vector" d="M48.51 62.9L47.43 61.83C47.43 61.92 49.52 74.82 50.11 78.45C50.45 77.39 50.72 76.3 50.9 75.21C51.59 70.82 50.15 66.33 48.51 62.9Z" fill="#000000" fill-opacity="1.000000" fill-rule="nonzero"/>
	</g>
	<path id="Vector" d="M48.18 56.9C48.18 56.9 57.12 68.65 57.37 75.7C57.58 81.6 47.64 93.02 47.64 93.02L44.76 91.16C44.76 91.16 50.57 83.04 52.04 76.41C51.47 69.85 39.5 56.9 39.5 56.9L48.18 56.9Z" fill="#4CAF4F" fill-opacity="1.000000" fill-rule="nonzero"/>
	<g opacity="0.600000">
		<path id="Vector" d="M48.18 56.9C48.18 56.9 57.12 68.65 57.37 75.7C57.58 81.6 47.64 93.02 47.64 93.02L44.76 91.16C44.76 91.16 50.57 83.04 52.04 76.41C51.47 69.85 39.5 56.9 39.5 56.9L48.18 56.9Z" fill="#000000" fill-opacity="1.000000" fill-rule="nonzero"/>
	</g>
	<path id="Vector" d="M37.12 42.87C36.17 43.09 35.25 46.57 35.25 46.57L38.99 49.06C38.99 49.06 40.23 46.31 39.79 45.11C39.34 43.86 38.32 42.58 37.12 42.87Z" fill="#4CAF4F" fill-opacity="1.000000" fill-rule="nonzero"/>
	<g opacity="0.200000">
		<path id="Vector" d="M37.85 45.1L37.59 48.13L38.98 49.06C39.37 48.2 39.65 47.3 39.83 46.37L37.85 45.1Z" fill="#000000" fill-opacity="1.000000" fill-rule="nonzero"/>
	</g>
	<path id="Vector" d="M49.29 42.93C49.29 42.93 50.39 43.32 48.18 56.89L38.79 56.89C38.95 53.06 38.95 50.7 37.12 42.87C38.44 42.59 39.77 42.42 41.11 42.34C42.53 42.24 43.96 42.24 45.38 42.34C47.21 42.51 49.29 42.93 49.29 42.93Z" fill="#4CAF4F" fill-opacity="1.000000" fill-rule="nonzero"/>
	<path id="Vector" d="M50.24 45.1C50.45 45.69 50.68 46.33 50.91 46.94C51.15 47.55 51.37 48.18 51.61 48.79L52.34 50.65L52.52 51.11L52.61 51.34L52.66 51.45C52.66 51.47 52.66 51.47 52.66 51.47C52.6 51.4 52.53 51.33 52.45 51.29C52.33 51.22 52.2 51.18 52.07 51.17C51.96 51.17 51.84 51.19 51.74 51.24C51.6 51.3 51.6 51.32 51.61 51.32C51.63 51.3 51.65 51.28 51.67 51.25C51.84 51.04 51.98 50.81 52.09 50.57C52.23 50.3 52.37 50.01 52.5 49.71C52.76 49.12 53 48.51 53.23 47.9C53.47 47.28 53.7 46.66 53.92 46.03L54.59 44.15L55.73 44.45C55.5 45.79 55.22 47.1 54.87 48.43C54.7 49.1 54.5 49.75 54.28 50.42C54.17 50.75 54.04 51.08 53.9 51.42C53.75 51.79 53.57 52.14 53.36 52.47C53.28 52.59 53.19 52.69 53.1 52.79C52.95 52.96 52.77 53.08 52.56 53.17C52.38 53.25 52.19 53.29 51.99 53.28C51.77 53.27 51.56 53.21 51.37 53.09C51.15 52.95 50.96 52.76 50.83 52.54C50.79 52.46 50.75 52.38 50.72 52.33L50.67 52.21L50.55 51.98L50.33 51.53C50.04 50.91 49.74 50.3 49.48 49.67C49.23 49.05 48.96 48.42 48.7 47.79C48.45 47.15 48.22 46.52 48.01 45.83L50.24 45.1Z" fill="#E58A7B" fill-opacity="1.000000" fill-rule="nonzero"/>
	<path id="Vector" d="M49.29 42.93C50.42 43.2 51.69 46.54 51.69 46.54L48.33 49.4C48.33 49.4 46.16 45.76 46.6 44.56C47.05 43.31 47.81 42.58 49.29 42.93Z" fill="#4CAF4F" fill-opacity="1.000000" fill-rule="nonzero"/>
	<path id="Vector" d="M55.13 43.1L56.31 42.11L57.13 43.39L56.52 44.45C56.52 44.45 55.56 45.34 54.71 44.89C54.58 44.58 54.54 44.24 54.62 43.92C54.69 43.6 54.87 43.31 55.13 43.1Z" fill="#E58A7B" fill-opacity="1.000000" fill-rule="nonzero"/>
	<path id="Vector" d="M58.44 42.11L58.35 42.44L56.48 42.75L56.3 42.11L58.44 42.11Z" fill="#E58A7B" fill-opacity="1.000000" fill-rule="nonzero"/>
	<path id="Vector" d="M47.87 93.17L44.51 91L45.11 89.95L48.89 92.28L47.87 93.17Z" fill="#4CAF4F" fill-opacity="1.000000" fill-rule="nonzero"/>
	<path id="Vector" d="M42.16 94.91C41.86 94.87 41.58 94.77 41.32 94.61C41.31 94.61 41.3 94.6 41.3 94.59C41.29 94.59 41.29 94.57 41.29 94.56C41.29 94.55 41.29 94.54 41.3 94.53C41.3 94.52 41.31 94.52 41.32 94.51C41.42 94.48 42.21 94.24 42.44 94.43C42.46 94.45 42.48 94.48 42.5 94.51C42.51 94.54 42.51 94.57 42.5 94.61C42.5 94.66 42.48 94.71 42.45 94.76C42.42 94.8 42.38 94.84 42.34 94.86C42.28 94.89 42.22 94.91 42.16 94.91ZM41.49 94.58C41.86 94.77 42.16 94.84 42.3 94.77C42.33 94.75 42.35 94.73 42.37 94.7C42.39 94.67 42.4 94.63 42.4 94.6C42.4 94.55 42.4 94.53 42.38 94.52C42.25 94.42 41.81 94.5 41.49 94.58L41.49 94.58Z" fill="#263238" fill-opacity="1.000000" fill-rule="nonzero"/>
	<path id="Vector" d="M41.34 94.63C41.33 94.63 41.31 94.63 41.3 94.62C41.3 94.61 41.3 94.6 41.3 94.59C41.3 94.58 41.3 94.57 41.3 94.56C41.3 94.54 41.49 93.9 41.8 93.75C41.83 93.74 41.88 93.73 41.92 93.73C41.96 93.73 42 93.74 42.04 93.75C42.08 93.77 42.12 93.79 42.14 93.83C42.17 93.86 42.18 93.91 42.18 93.95C42.16 94.22 41.62 94.58 41.37 94.64L41.34 94.63ZM41.92 93.83C41.89 93.83 41.86 93.84 41.83 93.85C41.65 93.94 41.5 94.28 41.43 94.49C41.69 94.38 42.04 94.09 42.05 93.93C42.05 93.91 42.05 93.87 41.99 93.84C41.97 93.83 41.94 93.82 41.92 93.82L41.92 93.83Z" fill="#263238" fill-opacity="1.000000" fill-rule="nonzero"/>
	<path id="Vector" d="M46.36 96.18C46.03 96.18 45.57 95.75 45.31 95.49C45.31 95.48 45.3 95.47 45.3 95.46C45.3 95.45 45.31 95.44 45.31 95.43C45.32 95.42 45.33 95.41 45.34 95.41C45.35 95.4 45.36 95.4 45.37 95.4C45.49 95.4 46.51 95.55 46.65 95.84C46.67 95.87 46.68 95.9 46.68 95.93C46.68 95.96 46.67 95.99 46.65 96.01C46.63 96.06 46.6 96.1 46.56 96.13C46.52 96.16 46.47 96.17 46.42 96.18L46.36 96.18ZM45.51 95.53C45.88 95.89 46.21 96.09 46.39 96.07C46.42 96.07 46.46 96.05 46.48 96.03C46.51 96.02 46.53 95.99 46.55 95.96C46.55 95.95 46.56 95.94 46.56 95.93C46.56 95.91 46.55 95.9 46.55 95.89C46.47 95.73 45.92 95.6 45.51 95.53Z" fill="#263238" fill-opacity="1.000000" fill-rule="nonzero"/>
	<path id="Vector" d="M45.54 95.52C45.47 95.52 45.41 95.52 45.34 95.5C45.33 95.5 45.32 95.5 45.32 95.49C45.31 95.49 45.3 95.48 45.3 95.47C45.3 95.46 45.29 95.45 45.29 95.44C45.29 95.43 45.3 95.42 45.3 95.42C45.32 95.39 45.72 94.91 46.09 94.88C46.2 94.87 46.31 94.91 46.39 94.98C46.5 95.08 46.5 95.16 46.47 95.22C46.39 95.42 45.88 95.52 45.54 95.52ZM45.46 95.41C45.79 95.43 46.32 95.32 46.39 95.17C46.39 95.17 46.41 95.13 46.34 95.06C46.31 95.04 46.27 95.02 46.23 95C46.19 94.99 46.15 94.99 46.11 94.99C45.86 95.06 45.63 95.21 45.46 95.41L45.46 95.41Z" fill="#263238" fill-opacity="1.000000" fill-rule="nonzero"/>
	<path id="Vector" d="M41.42 94.32L38.92 93.61C38.88 93.6 38.83 93.6 38.79 93.62C38.75 93.64 38.72 93.67 38.7 93.71L37.86 95.61C37.84 95.66 37.83 95.71 37.83 95.76C37.83 95.81 37.85 95.86 37.87 95.91C37.89 95.96 37.93 96 37.97 96.03C38.01 96.07 38.05 96.09 38.1 96.11C38.99 96.34 39.41 96.4 40.51 96.72C41.19 96.9 42.16 97.26 43.09 97.52C44.03 97.79 44.34 96.87 43.98 96.68C42.34 95.81 42.21 95.21 41.76 94.56C41.68 94.44 41.56 94.35 41.42 94.32Z" fill="#4CAF4F" fill-opacity="1.000000" fill-rule="nonzero"/>
	<path id="Vector" d="M45.38 95.15L43.25 93.67C43.21 93.65 43.17 93.63 43.12 93.64C43.08 93.64 43.03 93.66 43 93.7L41.59 95.22C41.55 95.26 41.53 95.3 41.51 95.35C41.5 95.4 41.49 95.46 41.5 95.51C41.51 95.56 41.53 95.61 41.55 95.65C41.58 95.7 41.62 95.74 41.66 95.77C42.41 96.27 42.8 96.47 43.74 97.13C44.33 97.53 45.47 98.42 46.27 98.97C47.06 99.53 47.66 98.76 47.37 98.46C46.11 97.11 45.83 96.26 45.62 95.49C45.58 95.35 45.5 95.23 45.38 95.15Z" fill="#4CAF4F" fill-opacity="1.000000" fill-rule="nonzero"/>
	<path id="Vector" d="M43.65 92.41L39.8 90.49L40.2 89.45L44.31 91.46L43.65 92.41Z" fill="#4CAF4F" fill-opacity="1.000000" fill-rule="nonzero"/>
	<path id="Vector" d="M38.65 56.34L38.32 57.19C38.29 57.26 38.37 57.32 38.48 57.32L48.23 57.32C48.31 57.32 48.38 57.28 48.39 57.23L48.47 56.39C48.47 56.33 48.41 56.28 48.31 56.28L38.8 56.28C38.77 56.28 38.74 56.28 38.72 56.29C38.69 56.3 38.67 56.32 38.65 56.34Z" fill="#4CAF4F" fill-opacity="1.000000" fill-rule="nonzero"/>
	<g opacity="0.400000">
		<path id="Vector" d="M38.65 56.34L38.32 57.19C38.29 57.26 38.37 57.32 38.48 57.32L48.23 57.32C48.31 57.32 48.38 57.28 48.39 57.23L48.47 56.39C48.47 56.33 48.41 56.28 48.31 56.28L38.8 56.28C38.77 56.28 38.74 56.28 38.72 56.29C38.69 56.3 38.67 56.32 38.65 56.34Z" fill="#FFFFFF" fill-opacity="1.000000" fill-rule="nonzero"/>
	</g>
	<path id="Vector" d="M40.18 57.41L39.93 57.41C39.88 57.41 39.84 57.38 39.84 57.35L39.96 56.25C39.96 56.22 40.01 56.2 40.06 56.2L40.32 56.2C40.37 56.2 40.4 56.22 40.4 56.25L40.28 57.35C40.28 57.38 40.23 57.41 40.18 57.41Z" fill="#4CAF4F" fill-opacity="1.000000" fill-rule="nonzero"/>
	<path id="Vector" d="M46.2 57.41L45.94 57.41C45.89 57.41 45.86 57.38 45.86 57.35L45.98 56.25C45.98 56.22 46.03 56.2 46.08 56.2L46.33 56.2C46.38 56.2 46.42 56.22 46.42 56.25L46.3 57.35C46.28 57.38 46.25 57.41 46.2 57.41Z" fill="#4CAF4F" fill-opacity="1.000000" fill-rule="nonzero"/>
	<g style="mix-blend-mode:multiply">
		<path id="Vector" d="M47.86 106.76C47.86 107.08 44.32 107.34 39.96 107.34C35.6 107.34 32.06 107.08 32.06 106.76C32.06 106.45 35.6 106.19 39.96 106.19C44.32 106.19 47.86 106.45 47.86 106.76Z" fill="#F5F5F5" fill-opacity="1.000000" fill-rule="evenodd"/>
	</g>
	<path id="Vector" d="M44.77 105.96C43.37 105.55 41.82 105.03 40.88 104.48C40.86 104.46 40.83 104.46 40.8 104.44L40.8 98.11L43.63 98.11C43.84 98.1 44.05 98.01 44.19 97.85C44.34 97.69 44.42 97.49 44.42 97.27C44.42 97.06 44.34 96.85 44.19 96.69C44.05 96.54 43.84 96.44 43.63 96.43L40.82 96.43L40.82 67.59L39.12 67.59L39.12 96.43L36.31 96.43C36.19 96.42 36.08 96.44 35.97 96.48C35.86 96.52 35.76 96.58 35.68 96.66C35.6 96.74 35.53 96.83 35.48 96.94C35.44 97.04 35.42 97.16 35.42 97.27C35.42 97.39 35.44 97.5 35.48 97.61C35.53 97.71 35.6 97.81 35.68 97.88C35.76 97.96 35.86 98.02 35.97 98.06C36.08 98.1 36.19 98.12 36.31 98.11L39.12 98.11L39.12 104.43C39.09 104.43 39.07 104.46 39.04 104.47C38.09 105.03 36.55 105.55 35.15 105.95C35.06 105.98 34.97 106.04 34.92 106.12C34.87 106.2 34.85 106.3 34.86 106.4C34.87 106.5 34.92 106.59 35 106.65C35.07 106.72 35.17 106.75 35.27 106.75L44.66 106.75C44.75 106.75 44.84 106.71 44.91 106.65C44.98 106.58 45.02 106.5 45.04 106.4C45.05 106.31 45.03 106.21 44.98 106.13C44.93 106.05 44.86 105.99 44.77 105.96Z" fill="#E0E0E0" fill-opacity="1.000000" fill-rule="nonzero"/>
	<path id="Vector" d="M34.72 64.65L45.2 64.65C46.05 64.65 46.73 65.34 46.73 66.18L46.73 69.3C46.73 70.14 46.05 70.82 45.2 70.82L34.72 70.82C33.88 70.82 33.19 70.14 33.19 69.3L33.19 66.18C33.19 65.34 33.88 64.65 34.72 64.65Z" fill="#4CAF4F" fill-opacity="1.000000" fill-rule="evenodd"/>
	<path id="Vector" d="M34.62 70.83L34.62 71.36C34.62 71.81 35.1 72.17 35.69 72.17L44.24 72.17C44.83 72.17 45.31 71.81 45.31 71.36L45.31 70.83L34.62 70.83Z" fill="#4CAF4F" fill-opacity="1.000000" fill-rule="nonzero"/>
	<g opacity="0.300000">
		<path id="Vector" d="M34.62 70.83L34.62 71.36C34.62 71.81 35.1 72.17 35.69 72.17L44.24 72.17C44.83 72.17 45.31 71.81 45.31 71.36L45.31 70.83L34.62 70.83Z" fill="#FFFFFF" fill-opacity="1.000000" fill-rule="nonzero"/>
	</g>
</svg>
